<svg width="144" height="144" viewBox="0 0 144 144" fill="none" xmlns="http://www.w3.org/2000/svg">
<path d="M72 142C110.66 142 142 110.66 142 72C142 33.3401 110.66 2 72 2C33.3401 2 2 33.3401 2 72C2 110.66 33.3401 142 72 142Z" stroke="black" stroke-width="2.5" stroke-miterlimit="10"/>
<path d="M86.2476 17.3535L93.1716 19.668L92.7805 20.8462L90.0009 19.9187L87.4127 27.7146L86.0562 27.2634L88.6444 19.4675L85.8564 18.5317L86.2476 17.3535Z" fill="black"/>
<path d="M100.537 23.3447L101.718 24.1552L99.4049 27.5309L103.266 30.1964L105.58 26.8207L106.762 27.6312L101.427 35.4187L100.245 34.6082L102.576 31.2075L98.7141 28.542L96.3839 31.9428L95.2021 31.1323L100.537 23.3447Z" fill="black"/>
<path d="M113.037 33.5303L116.832 38.0674L115.883 38.8612L113.012 35.4187L110.832 37.2569L113.503 40.4572L112.571 41.2426L109.9 38.0424L107.703 39.8973L110.607 43.3733L109.658 44.1671L105.83 39.5882L113.037 33.5303Z" fill="black"/>
<path d="M124.263 51.3364L124.696 52.7068L120.801 53.9434L122.208 58.4221L126.103 57.1854L126.535 58.5558L117.564 61.3967L117.131 60.0264L121.051 58.7814L119.644 54.3027L115.725 55.5477L115.292 54.1774L124.263 51.3364Z" fill="black"/>
<path d="M118.479 66.6689L127.967 69.8608L128 71.5153L118.654 75.1249L118.621 73.5958L121.084 72.6767L121.009 68.9918L118.504 68.1813L118.479 66.6689ZM122.274 72.2506L126.261 70.7632V70.6964L122.216 69.3929L122.274 72.2506Z" fill="black"/>
<path d="M115.982 87.7757L116.324 86.5056L124.196 83.673L124.213 83.5978L117.572 81.8014L117.946 80.4143L127.034 82.8709L126.693 84.1577L118.804 86.9819L118.779 87.0738L125.428 88.8703L125.062 90.2323L115.982 87.7757Z" fill="black"/>
<path d="M118.97 100.384C119.561 99.3985 119.437 98.4626 118.754 98.0448C117.988 97.5853 117.19 98.2287 116.657 98.7801L115.974 99.4319C115.101 100.309 113.761 101.27 112.296 100.384C110.94 99.5489 110.598 97.861 111.747 95.9476C112.837 94.1344 114.427 93.5495 115.941 94.36L115.201 95.5883C114.277 95.1287 113.386 95.6551 112.812 96.5993C112.196 97.6354 112.263 98.6966 113.045 99.1812C113.752 99.599 114.435 99.106 115.176 98.3874L116.008 97.5853C117.148 96.499 118.288 96.098 119.42 96.7748C120.81 97.6271 120.984 99.4235 119.994 101.061C119.004 102.699 117.381 103.284 116.058 102.532L116.782 101.337C117.589 101.713 118.413 101.312 118.97 100.384Z" fill="black"/>
<path d="M103.575 106.091C105.372 104.42 107.936 104.537 109.975 106.743C112.022 108.957 111.947 111.531 110.149 113.202C108.368 114.865 105.805 114.748 103.758 112.542C101.711 110.328 101.794 107.746 103.575 106.091ZM104.465 107.052C103.283 108.147 103.242 109.885 104.79 111.573C106.354 113.252 108.077 113.344 109.25 112.241C110.449 111.138 110.482 109.4 108.934 107.712C107.378 106.033 105.655 105.941 104.465 107.052Z" fill="black"/>
<path d="M98.298 121.633L92.5224 116.26L92.4142 116.31L92.797 124.207L91.2158 124.942L87.2461 116.377L88.4861 115.801L91.3573 121.992L91.4405 121.95L91.066 114.597L92.0896 114.121L97.4657 119.135L97.5323 119.101L94.6612 112.901L95.9012 112.325L99.8709 120.889L98.298 121.633Z" fill="black"/>
<path d="M82.7027 127.164L76.8522 128L76.6774 126.772L81.1048 126.137L80.7054 123.304L76.5859 123.889L76.4111 122.677L80.5306 122.092L80.1228 119.235L75.6455 119.87L75.4707 118.642L81.3711 117.798L82.7027 127.164Z" fill="black"/>
<path d="M59.8833 126.931L52.876 124.9L53.2172 123.705L56.0301 124.516L58.302 116.628L59.6752 117.029L57.4032 124.917L60.2245 125.736L59.8833 126.931Z" fill="black"/>
<path d="M45.3611 121.524L44.1544 120.756L46.3348 117.288L42.3735 114.781L40.193 118.249L38.9863 117.48L44.0046 109.484L45.2113 110.252L43.0226 113.745L46.9839 116.252L49.1727 112.759L50.3794 113.528L45.3611 121.524Z" fill="black"/>
<path d="M32.4526 111.865L28.4746 107.478L29.3901 106.643L32.4027 109.968L34.5082 108.038L31.7036 104.947L32.6107 104.119L35.4153 107.211L37.5458 105.264L34.4999 101.897L35.4153 101.061L39.4266 105.49L32.4526 111.865Z" fill="black"/>
<path d="M20.5276 94.4853L20.0449 93.1317L23.8897 91.7446L22.3085 87.3245L18.4637 88.7115L17.9727 87.3579L26.8358 84.166L27.3185 85.5196L23.4487 86.915L25.0299 91.3436L28.8997 89.9482L29.3824 91.3018L20.5276 94.4853Z" fill="black"/>
<path d="M25.7037 78.952L16.0999 76.1361L16 74.4817L25.1877 70.5127L25.2792 72.0334L22.8492 73.0445L23.0739 76.721L25.6038 77.4312L25.7037 78.952ZM21.6841 73.5291L17.756 75.1668V75.2337L21.8505 76.3784L21.6841 73.5291Z" fill="black"/>
<path d="M27.3512 57.7786L27.0599 59.0654L19.3036 62.2072L19.287 62.2824L25.9946 63.8031L25.6784 65.1985L16.499 63.1179L16.7903 61.8228L24.5632 58.681L24.5799 58.5891L17.8639 57.06L18.1718 55.6897L27.3512 57.7786Z" fill="black"/>
<path d="M23.8478 45.2785C23.2902 46.2895 23.4567 47.217 24.1557 47.6097C24.938 48.0442 25.712 47.359 26.228 46.7825L26.8854 46.0973C27.7176 45.1782 29.0242 44.1672 30.5222 44.986C31.912 45.7631 32.3281 47.4426 31.2546 49.3978C30.2393 51.2528 28.6747 51.9129 27.1268 51.1609L27.8175 49.8992C28.7579 50.3253 29.6234 49.7571 30.1644 48.7962C30.7386 47.7351 30.6304 46.6739 29.8232 46.2227C29.0991 45.83 28.4333 46.3564 27.7176 47.1084L26.9187 47.9439C25.8202 49.072 24.6967 49.5315 23.5482 48.8965C22.1251 48.1027 21.8755 46.3062 22.7909 44.6351C23.7147 42.9556 25.3125 42.3038 26.669 43.0057L25.9949 44.234C25.1794 43.8914 24.3721 44.3259 23.8478 45.2785Z" fill="black"/>
<path d="M39.0105 38.9782C37.2794 40.7246 34.7162 40.7079 32.5857 38.5772C30.4553 36.4465 30.422 33.8729 32.153 32.1266C33.8674 30.3969 36.4389 30.4053 38.5694 32.536C40.7082 34.6667 40.7248 37.2486 39.0105 38.9782ZM38.0784 38.0508C39.2185 36.906 39.1852 35.168 37.5707 33.547C35.9396 31.9344 34.2169 31.9093 33.0851 33.0624C31.9366 34.2155 31.9699 35.9535 33.5844 37.5745C35.2155 39.1871 36.9382 39.2122 38.0784 38.0508Z" fill="black"/>
<path d="M43.6876 23.236L49.6712 28.3747L49.7794 28.3246L49.0887 20.4535L50.6366 19.6514L54.9392 28.0489L53.7241 28.6755L50.62 22.6093L50.5367 22.6511L51.1859 29.9707L50.1789 30.4887L44.6113 25.6925L44.5448 25.726L47.6573 31.8089L46.4422 32.4356L42.1396 24.0381L43.6876 23.236Z" fill="black"/>
<path d="M59.0254 17.0612L64.8426 16L65.0673 17.2199L60.6649 18.0304L61.1725 20.8463L65.267 20.0943L65.4834 21.3059L61.3889 22.0579L61.9049 24.8988L66.3572 24.08L66.5819 25.2999L60.7231 26.3778L59.0254 17.0612Z" fill="black"/>
</svg>
