<svg width="32" height="16" viewBox="0 0 32 16" fill="none" xmlns="http://www.w3.org/2000/svg">
<path d="M0 8C0 3.58172 3.58172 0 8 0H24C28.4183 0 32 3.58172 32 8C32 12.4183 28.4183 16 24 16H8C3.58172 16 0 12.4183 0 8Z" fill="url(#paint0_linear_24978_32627)"/>
<path d="M6.22 11V10.9L6.4 10.83C6.53333 10.7767 6.62333 10.71 6.67 10.63C6.72333 10.55 6.75 10.4433 6.75 10.31V5.09C6.75 4.95 6.72333 4.84 6.67 4.76C6.62333 4.68 6.53333 4.61667 6.4 4.57L6.22 4.5V4.4H9.09C9.90333 4.4 10.49 4.55 10.85 4.85C11.21 5.14333 11.39 5.51667 11.39 5.97C11.39 6.31 11.2567 6.62 10.99 6.9C10.73 7.17333 10.28 7.36667 9.64 7.48C10.3733 7.56 10.91 7.75333 11.25 8.06C11.59 8.36 11.76 8.72667 11.76 9.16C11.76 9.37333 11.7133 9.59 11.62 9.81C11.5267 10.0233 11.3667 10.22 11.14 10.4C10.92 10.58 10.6167 10.7267 10.23 10.84C9.84333 10.9467 9.35333 11 8.76 11H6.22ZM8.23 7.47H8.66C9.10667 7.47 9.42667 7.36667 9.62 7.16C9.82 6.95333 9.92 6.59333 9.92 6.08C9.92 5.54667 9.83 5.16667 9.65 4.94C9.47 4.71333 9.17667 4.6 8.77 4.6H8.23V7.47ZM8.23 10.8H8.73C9.23 10.8 9.6 10.6667 9.84 10.4C10.0867 10.1333 10.21 9.71667 10.21 9.15C10.21 8.61667 10.0933 8.23667 9.86 8.01C9.62667 7.78333 9.24333 7.67 8.71 7.67H8.23V10.8ZM14.9452 6.04C15.3785 6.04 15.7485 6.13 16.0552 6.31C16.3618 6.48333 16.5952 6.72333 16.7552 7.03C16.9218 7.33 17.0052 7.67333 17.0052 8.06C17.0052 8.13333 17.0018 8.21 16.9952 8.29C16.9885 8.36333 16.9752 8.43 16.9552 8.49H13.9752C13.9818 9.21 14.1085 9.73 14.3552 10.05C14.6085 10.3633 14.9818 10.52 15.4752 10.52C15.8085 10.52 16.0785 10.4667 16.2852 10.36C16.4918 10.2533 16.6852 10.0967 16.8652 9.89L16.9652 9.98C16.7585 10.3467 16.4818 10.6333 16.1352 10.84C15.7952 11.0467 15.3852 11.15 14.9052 11.15C14.4318 11.15 14.0118 11.05 13.6452 10.85C13.2785 10.6433 12.9918 10.35 12.7852 9.97C12.5785 9.59 12.4752 9.13667 12.4752 8.61C12.4752 8.06333 12.5952 7.6 12.8352 7.22C13.0752 6.83333 13.3818 6.54 13.7552 6.34C14.1352 6.14 14.5318 6.04 14.9452 6.04ZM14.9152 6.24C14.7218 6.24 14.5552 6.3 14.4152 6.42C14.2818 6.53333 14.1752 6.74 14.0952 7.04C14.0218 7.33333 13.9818 7.75 13.9752 8.29H15.6852C15.7518 7.56333 15.7252 7.04 15.6052 6.72C15.4852 6.4 15.2552 6.24 14.9152 6.24ZM19.6035 11.15C19.1768 11.15 18.8435 11.0433 18.6035 10.83C18.3702 10.6167 18.2535 10.2767 18.2535 9.81V6.39H17.5635V6.29L17.8035 6.25C18.0102 6.20333 18.1868 6.13667 18.3335 6.05C18.4868 5.96333 18.6368 5.84667 18.7835 5.7L19.6035 4.79H19.7035L19.6735 6.19H20.7935V6.39H19.6635V9.99C19.6635 10.2233 19.7135 10.4 19.8135 10.52C19.9202 10.64 20.0535 10.7 20.2135 10.7C20.3535 10.7 20.4768 10.6667 20.5835 10.6C20.6902 10.5267 20.7968 10.43 20.9035 10.31L21.0035 10.41C20.8702 10.6367 20.6868 10.8167 20.4535 10.95C20.2202 11.0833 19.9368 11.15 19.6035 11.15ZM22.9768 11.15C22.5901 11.15 22.2635 11.04 21.9968 10.82C21.7368 10.6 21.6068 10.2833 21.6068 9.87C21.6068 9.55667 21.7668 9.27 22.0868 9.01C22.4068 8.74333 22.9101 8.54333 23.5968 8.41C23.7035 8.39 23.8235 8.37 23.9568 8.35C24.0901 8.32333 24.2301 8.29667 24.3768 8.27V7.48C24.3768 7.02667 24.3201 6.71 24.2068 6.53C24.1001 6.34333 23.9301 6.25 23.6968 6.25C23.5368 6.25 23.4101 6.30333 23.3168 6.41C23.2235 6.51 23.1635 6.68667 23.1368 6.94L23.1168 7.05C23.1035 7.33667 23.0335 7.54667 22.9068 7.68C22.7801 7.81333 22.6235 7.88 22.4368 7.88C22.2635 7.88 22.1201 7.82667 22.0068 7.72C21.8935 7.61333 21.8368 7.47 21.8368 7.29C21.8368 7.01667 21.9301 6.78667 22.1168 6.6C22.3101 6.41333 22.5635 6.27333 22.8768 6.18C23.1901 6.08667 23.5301 6.04 23.8968 6.04C24.4901 6.04 24.9468 6.18667 25.2668 6.48C25.5935 6.76667 25.7568 7.23667 25.7568 7.89V10.1C25.7568 10.4 25.8968 10.55 26.1768 10.55H26.3968L26.4868 10.63C26.3601 10.79 26.2201 10.9133 26.0668 11C25.9201 11.0867 25.7101 11.13 25.4368 11.13C25.1435 11.13 24.9101 11.0633 24.7368 10.93C24.5701 10.79 24.4601 10.6067 24.4068 10.38C24.2068 10.5933 24.0001 10.7767 23.7868 10.93C23.5801 11.0767 23.3101 11.15 22.9768 11.15ZM23.5868 10.54C23.7201 10.54 23.8435 10.51 23.9568 10.45C24.0768 10.3833 24.2168 10.2833 24.3768 10.15V8.47C24.3101 8.48333 24.2435 8.49667 24.1768 8.51C24.1101 8.52333 24.0335 8.53667 23.9468 8.55C23.6401 8.63 23.3935 8.76667 23.2068 8.96C23.0268 9.14667 22.9368 9.4 22.9368 9.72C22.9368 9.99333 23.0001 10.2 23.1268 10.34C23.2535 10.4733 23.4068 10.54 23.5868 10.54Z" fill="white"/>
<defs>
<linearGradient id="paint0_linear_24978_32627" x1="1" y1="0.999999" x2="32.7262" y2="11.2527" gradientUnits="userSpaceOnUse">
<stop stop-color="#5A8FF9"/>
<stop offset="1" stop-color="#B841F0"/>
</linearGradient>
</defs>
</svg>
