<svg width="17" height="14" viewBox="0 0 17 14" fill="none" xmlns="http://www.w3.org/2000/svg">
<g clip-path="url(#clip0_24978_32639)">
<path d="M16.3284 4.20522C15.821 3.9766 15.2427 3.91179 14.5581 4.0036C13.5712 4.13861 12.6273 4.52385 11.4987 5.25473C11.245 5.41854 11.0044 5.58956 10.7507 5.76958C10.7227 5.78938 10.6947 5.80918 10.6667 5.82898L9.86829 4.31143C9.165 2.9757 8.46359 1.63996 7.76404 0.30243C7.62786 0.0432043 7.4096 0.00540054 7.2585 0C7.25103 0 7.24357 0 7.23611 0C6.92085 0 6.81265 0.230423 6.76601 0.329433C6.67461 0.525653 6.58133 0.720072 6.48806 0.914491C6.35748 1.18812 6.22689 1.46175 6.10004 1.73717C6.03475 1.87939 6.03848 2.06301 6.1075 2.19442C6.56268 3.06571 7.02158 3.93519 7.48235 4.80468L7.99349 5.77138C8.21175 6.18542 8.42814 6.59946 8.65573 7.0333L8.87399 7.44915C8.84787 7.47255 8.82176 7.49595 8.79564 7.51935C8.59977 7.69217 8.39643 7.87039 8.20242 8.05761C8.18936 8.07021 8.18004 8.07741 8.17817 8.08101C8.17071 8.08101 8.15765 8.07921 8.13713 8.07381C5.40982 7.39154 3.01083 8.0108 1.00545 9.91359C0.214494 10.6589 -0.110097 11.5248 0.0335439 12.4896C0.108163 12.9865 0.360001 13.4041 0.748018 13.6688C1.1323 13.9316 1.62292 14.0234 2.12846 13.9262C2.66758 13.8218 3.14328 13.6166 3.54062 13.3159L3.83163 13.0963C4.53118 12.5689 5.25499 12.0216 5.90603 11.4131C6.51044 10.8479 7.07568 10.2304 7.6204 9.63276C7.82746 9.40594 8.03453 9.17912 8.24533 8.9541C8.24533 8.9541 8.24533 8.9523 8.24719 8.9505C9.34595 9.46535 10.2209 10.2502 10.8458 11.2799C11.1984 11.8614 11.5192 12.477 11.8308 13.0711C11.939 13.2781 12.0472 13.4833 12.1553 13.6886C12.2673 13.901 12.4333 14 12.6739 14C12.6795 14 12.6851 14 12.6907 14C12.9314 13.9964 13.1702 13.9946 13.4108 13.9946C13.6515 13.9946 13.8921 13.9946 14.1327 13.9946C14.2335 13.9946 14.3286 13.9946 14.4424 13.9856L14.5077 13.9802C14.5991 13.973 14.6793 13.9244 14.726 13.8488C14.7726 13.7732 14.7782 13.6814 14.7409 13.6022L14.7185 13.55C14.7017 13.5122 14.6868 13.4815 14.6719 13.4527L10.9894 6.44284C11.6815 5.93159 12.3046 5.61476 12.9426 5.44734C13.8492 5.20972 14.5543 5.36274 15.1643 5.93159C15.321 6.07741 15.5561 6.18362 15.7967 6.21602C16.3247 6.28983 16.8153 5.9748 16.9627 5.46895C17.11 4.9595 16.8526 4.43924 16.3321 4.20522H16.3284ZM9.20604 8.08641L9.484 8.61386L8.91503 8.33843L9.20604 8.08641ZM1.58561 11.9838C1.53151 11.4833 1.68262 10.9991 2.04265 10.5005C2.46611 9.91719 3.0612 9.46895 3.91745 9.08731C4.73266 8.72547 5.51429 8.54545 6.28286 8.54545C6.72311 8.54545 7.15963 8.60486 7.59242 8.72367C7.42452 8.88929 7.26036 9.05311 7.09434 9.21692C6.46567 9.84158 5.87059 10.432 5.25872 11.0207C4.65431 11.6022 4.05176 12.063 3.41564 12.4284C3.05 12.6391 2.74966 12.7291 2.42134 12.7219C1.92513 12.7093 1.63598 12.4554 1.58375 11.9838H1.58561Z" fill="url(#paint0_linear_24978_32639)"/>
</g>
<defs>
<linearGradient id="paint0_linear_24978_32639" x1="4.99988" y1="4.5" x2="11.4999" y2="14" gradientUnits="userSpaceOnUse">
<stop stop-color="#5A8FF9"/>
<stop offset="1" stop-color="#B841F0"/>
</linearGradient>
<clipPath id="clip0_24978_32639">
<rect width="17" height="14" fill="white"/>
</clipPath>
</defs>
</svg>
