<svg width="26" height="27" viewBox="0 0 26 27" fill="none" xmlns="http://www.w3.org/2000/svg">
<path fill-rule="evenodd" clip-rule="evenodd" d="M2.1 19.6H23.9V23.275H25V19.6V18.5H23.9H2.1H1V19.6V23.275H2.1V19.6ZM25 24.9H23.9H2.1H1V26H2.1H23.9H25V24.9Z" fill="black" stroke="black" stroke-width="0.6"/>
<path fill-rule="evenodd" clip-rule="evenodd" d="M20.9 14.1996H5.1V18.4996H20.9V14.1996ZM4 13.0996V19.5996H22V13.0996H4Z" fill="black" stroke="black" stroke-width="0.6"/>
<path fill-rule="evenodd" clip-rule="evenodd" d="M14.5844 4.3197L13.0003 1L11.4163 4.3197L7.76953 4.80041L10.4372 7.3328L9.76752 10.9496L13.0003 9.195L16.2332 10.9496L15.5634 7.3328L18.2312 4.80041L14.5844 4.3197ZM15.8019 5.58971L13.8488 5.33224L13.0003 3.55423L12.1519 5.33224L10.1987 5.58971L11.6276 6.94604L11.2689 8.88318L13.0003 7.94343L14.7318 8.88318L14.3731 6.94604L15.8019 5.58971Z" fill="black" stroke="black" stroke-width="0.4"/>
</svg>
