<svg width="64" height="64" viewBox="0 0 64 64" fill="none" xmlns="http://www.w3.org/2000/svg">
<path d="M24.3999 27C26.7739 27 28.208 25.5337 28.2026 23.1006C28.208 20.6782 26.7739 19.2227 24.4321 19.2227H21.6606V27H24.3999ZM23.272 25.6143V20.6084H24.3462C25.8179 20.6084 26.5913 21.3711 26.5913 23.1006C26.5913 24.8462 25.8179 25.6143 24.3354 25.6143H23.272ZM29.3735 27H30.9849V24.2393H32.2148L33.7026 27H35.4858L33.8315 23.9761C34.7178 23.5947 35.2065 22.8213 35.2065 21.7578C35.2065 20.2163 34.1914 19.2227 32.4243 19.2227H29.3735V27ZM30.9849 22.9287V20.5439H32.1235C33.0796 20.5493 33.5469 20.9736 33.5415 21.7578C33.5469 22.5366 33.0796 22.9287 32.1235 22.9287H30.9849ZM35.5288 19.2227L38.3647 24.2285V27H39.9761V24.2285L42.812 19.2227H40.9966L39.2134 22.5742H39.1382L37.3442 19.2227H35.5288Z" fill="black"/>
<path d="M6 38.5C6.85 40.5693 8.85 42 11.2 42C13.525 42 15.525 40.5438 16.4 38.5C17.25 36.4307 19.25 35 21.6 35C23.925 35 25.925 36.4562 26.8 38.5C27.65 40.5693 29.65 42 32 42C34.325 42 36.325 40.5438 37.2 38.5C38.05 36.4307 40.05 35 42.4 35C44.725 35 46.725 36.4562 47.6 38.5C48.45 40.5693 50.45 42 52.8 42C55.125 42 57.125 40.5438 58 38.5" stroke="black" stroke-width="2" stroke-miterlimit="2.6131" stroke-linecap="round" stroke-linejoin="round"/>
<circle cx="32" cy="32" r="27" stroke="black" stroke-width="2"/>
<rect x="48.6016" y="7" width="2.00218" height="6" transform="rotate(25.7048 48.6016 7)" fill="#F8F8F8"/>
</svg>
