<svg width="24" height="24" viewBox="0 0 24 24" fill="none" xmlns="http://www.w3.org/2000/svg">
<path d="M16.5 11V6" stroke="black" stroke-width="1.5" stroke-miterlimit="10"/>
<path d="M14 8.5H19" stroke="black" stroke-width="1.5" stroke-miterlimit="10"/>
<path d="M22 22H2V2H22V19" stroke="black" stroke-width="1.5"/>
<path d="M9.51239 17C11.6558 17 13 15.8383 13 13.9835V13.9769C13 12.538 12.2133 11.7327 10.3301 11.3102L9.36991 11.0924C8.25487 10.8416 7.80265 10.4191 7.80265 9.74587V9.73927C7.80265 8.92739 8.50885 8.43234 9.5 8.43234C10.5221 8.42574 11.185 8.9538 11.2965 9.69307L11.3088 9.77228H12.8389L12.8327 9.68647C12.7212 8.15512 11.4885 7 9.50619 7C7.57345 7 6.19823 8.14851 6.19823 9.85149V9.85809C6.19823 11.2772 6.99115 12.1881 8.81858 12.5974L9.77876 12.8086C10.931 13.0726 11.3956 13.4884 11.3956 14.1749V14.1815C11.3956 15 10.6398 15.5677 9.56195 15.5677C8.42832 15.5677 7.6292 15.0396 7.55487 14.2409L7.54867 14.1749H6L6.00619 14.2673C6.1177 15.9109 7.43717 17 9.51239 17Z" fill="black"/>
</svg>
