<svg width="30" height="30" viewBox="0 0 30 30" fill="none" xmlns="http://www.w3.org/2000/svg">
<path fill-rule="evenodd" clip-rule="evenodd" d="M15.35 3.70557C8.92 3.70557 3.7 8.94266 3.7 15.3937C3.7 21.8448 8.92 27.0819 15.35 27.0819C17.36 27.0819 19.25 26.5702 20.9 25.6773L21.71 27.1722C19.82 28.2055 17.65 28.7874 15.35 28.7874C7.98 28.7874 2 22.7879 2 15.3937C2 7.99959 7.98 2 15.35 2C22.72 2 28.7 7.99959 28.7 15.3937C28.7 19.4771 26.87 23.139 24 25.597C23.87 25.7074 23.75 25.8077 23.62 25.908L22.57 24.5737C22.68 24.4834 22.79 24.3931 22.9 24.3028C25.41 22.1558 27 18.9654 27 15.3937C27 8.94266 21.78 3.70557 15.35 3.70557Z" fill="black"/>
<path d="M12.7804 11.1406L15.3004 17.3208H15.4104L17.9304 11.1406H19.8004V19.6484H18.3404V13.7893H18.2604L15.9004 19.6183H14.8104L12.4504 13.7592H12.3804V19.6384H10.9004V11.1406H12.7804Z" fill="black"/>
</svg>
