<?xml version="1.0" standalone="no"?>
<!DOCTYPE svg PUBLIC "-//W3C//DTD SVG 20010904//EN"
 "http://www.w3.org/TR/2001/REC-SVG-20010904/DTD/svg10.dtd">
<svg version="1.0" xmlns="http://www.w3.org/2000/svg"
 width="1335.000000pt" height="267.000000pt" viewBox="0 0 1335.000000 267.000000"
 preserveAspectRatio="xMidYMid meet">

<g transform="translate(0.000000,267.000000) scale(0.100000,-0.100000)"
fill="#000000" stroke="none">
<path d="M1148 2484 c-174 -27 -362 -106 -508 -215 -559 -416 -629 -1229 -150
-1733 462 -487 1228 -487 1690 0 375 395 425 988 122 1449 -45 67 -216 255
-233 255 -5 0 -16 -14 -24 -30 l-16 -31 88 -93 c200 -213 303 -465 303 -745 0
-208 -34 -307 -125 -358 -44 -25 -115 -30 -162 -12 -40 15 -91 67 -118 120
-53 103 -136 154 -250 153 -58 0 -79 -5 -122 -28 -64 -35 -82 -54 -125 -130
-43 -76 -93 -117 -152 -123 -98 -11 -165 26 -211 117 -35 68 -66 102 -127 135
-45 25 -64 29 -128 29 -118 0 -192 -47 -248 -160 -79 -157 -275 -167 -359 -19
-46 82 -58 316 -24 480 46 222 138 391 301 555 164 163 333 255 555 301 245
51 550 0 754 -126 l71 -44 16 30 c8 17 13 36 11 42 -8 20 -176 104 -274 137
-171 57 -371 73 -555 44z m-140 -1348 c25 -17 52 -50 71 -86 37 -70 78 -112
135 -143 32 -17 58 -22 121 -22 122 0 178 38 260 172 47 78 101 113 172 113
82 0 148 -51 206 -159 56 -105 199 -158 316 -116 55 19 54 9 -9 -95 -69 -115
-121 -180 -211 -263 -356 -330 -896 -382 -1304 -126 -154 96 -274 220 -375
389 -62 102 -63 112 -12 94 117 -42 263 12 319 117 36 67 90 128 128 146 48
22 136 12 183 -21z"/>
<path d="M8930 2340 c-45 -66 -78 -124 -76 -129 7 -10 65 -35 70 -30 13 16
148 223 152 234 5 11 -40 45 -60 45 -3 0 -42 -54 -86 -120z"/>
<path d="M9138 2342 c-43 -65 -78 -123 -78 -129 0 -11 68 -39 74 -31 13 15
148 221 152 231 3 10 -53 48 -69 47 -1 0 -37 -53 -79 -118z"/>
<path d="M9343 2335 l-83 -125 30 -15 c16 -8 34 -15 39 -15 10 0 176 239 169
245 -5 4 -67 35 -70 35 -2 0 -40 -57 -85 -125z"/>
<path d="M9553 2335 l-83 -125 30 -15 c16 -8 34 -15 39 -15 10 0 176 239 169
245 -5 4 -67 35 -70 35 -2 0 -40 -57 -85 -125z"/>
<path d="M9778 2363 c-113 -171 -104 -149 -68 -168 17 -9 36 -15 41 -13 5 2
45 57 89 123 l80 120 -33 17 c-17 9 -35 17 -38 18 -3 0 -35 -44 -71 -97z"/>
<path d="M11789 2080 l-226 -378 -239 239 c-131 131 -244 239 -250 239 -6 0
-21 -11 -34 -25 l-24 -26 247 -247 c136 -136 247 -252 247 -258 0 -7 -164
-287 -365 -624 -201 -337 -365 -616 -365 -621 0 -5 98 -9 217 -9 l218 0 -98
-98 c-53 -53 -97 -102 -97 -108 0 -6 11 -21 25 -34 l26 -24 132 132 132 132
720 0 720 0 100 -100 101 -100 29 30 29 30 -69 70 -69 70 177 0 c97 0 177 4
177 9 0 4 -159 276 -354 602 l-355 594 247 247 246 247 -29 31 -29 31 -236
-236 c-129 -129 -238 -235 -242 -235 -3 0 -61 92 -128 205 -67 113 -125 203
-129 201 -3 -2 -14 -20 -25 -39 l-18 -35 116 -194 c64 -106 116 -198 116 -203
0 -6 -86 -96 -190 -200 l-190 -190 -215 216 -216 215 193 324 c106 178 197
324 202 324 6 1 37 -45 71 -101 l62 -103 22 40 c21 37 21 41 6 69 -13 25 -153
261 -159 268 -1 1 -103 -168 -227 -377z m1 -725 l205 -205 -345 -345 -345
-345 -192 2 -191 3 326 548 c179 301 329 547 332 547 3 0 97 -92 210 -205z
m1007 -367 l311 -523 -156 -3 -156 -3 -343 343 -343 343 182 182 c101 101 185
183 188 183 3 0 146 -235 317 -522z m-427 -213 l315 -315 -630 0 -630 0 315
315 c173 173 315 315 315 315 0 0 142 -142 315 -315z"/>
<path d="M5590 2253 c-8 -2 -20 -6 -27 -8 -8 -3 1 -50 27 -154 21 -83 36 -151
33 -151 -2 0 -13 5 -24 10 -14 8 -27 6 -50 -5 -16 -9 -29 -20 -27 -25 2 -5 32
-29 68 -52 l65 -43 28 -105 c15 -58 31 -123 36 -145 5 -22 55 -217 110 -434
56 -217 101 -400 101 -407 0 -6 -92 -69 -205 -140 -113 -70 -204 -132 -202
-137 1 -5 14 -16 29 -24 26 -16 28 -15 209 98 100 63 185 115 189 117 3 1 17
-43 30 -99 l24 -100 28 55 c28 56 28 57 13 115 -8 32 -15 64 -15 69 0 6 160
111 355 233 311 194 359 221 378 212 19 -9 566 -350 576 -358 2 -2 -14 -74
-35 -160 l-38 -155 -578 0 -578 0 -20 -40 -20 -40 629 0 629 0 42 170 c23 94
46 170 50 170 5 0 102 -58 216 -130 213 -133 211 -132 257 -98 15 12 -8 29
-214 157 -127 80 -233 150 -236 157 -3 9 174 734 217 884 9 31 25 44 130 109
66 41 120 75 120 76 0 2 -15 12 -33 23 l-34 20 -69 -44 c-38 -24 -70 -40 -72
-35 -2 5 19 97 46 205 28 108 47 198 43 200 -3 2 -20 7 -38 10 -30 7 -32 6
-42 -31 -5 -21 -33 -130 -62 -243 -29 -113 -56 -210 -61 -217 -5 -6 -61 -44
-125 -84 l-116 -72 -21 29 c-51 71 -103 103 -181 111 -106 11 -180 -36 -244
-156 -55 -102 -86 -126 -161 -126 -74 0 -111 27 -155 115 -57 113 -115 158
-216 167 -77 7 -157 -29 -201 -92 l-30 -43 -202 126 c-110 69 -202 126 -203
127 -1 0 -21 73 -43 160 -23 88 -46 177 -51 198 -9 36 -17 41 -49 30z m421
-650 c49 -30 89 -58 89 -62 0 -10 -51 -56 -77 -70 -48 -24 -144 1 -188 49 -14
15 -73 200 -75 233 0 4 36 -16 81 -43 44 -28 121 -76 170 -107z m396 56 c43
-16 72 -48 108 -120 52 -103 129 -159 216 -159 103 0 180 52 234 160 52 103
110 141 191 126 38 -8 118 -77 112 -98 -3 -7 -121 -86 -263 -174 l-259 -161
-86 53 c-47 29 -167 104 -267 166 -100 62 -182 116 -183 120 0 3 12 21 27 39
45 53 109 71 170 48z m1131 -108 c-25 -104 -32 -108 -103 -66 -59 34 -62 50
-17 79 106 66 137 85 140 82 1 -2 -8 -44 -20 -95z m-1109 -206 c132 -82 241
-152 241 -155 0 -7 -646 -410 -656 -410 -10 0 -167 610 -160 618 3 2 19 -1 37
-7 87 -30 190 -2 251 69 18 21 36 37 40 37 3 -1 114 -69 247 -152z m922 100
c31 -29 64 -49 93 -57 30 -8 46 -18 46 -28 -1 -30 -127 -505 -135 -504 -11 1
-535 328 -534 334 0 5 470 299 478 300 2 0 26 -20 52 -45z"/>
<path d="M3670 2170 l0 -40 559 0 c524 0 560 -1 565 -17 17 -62 328 -1564 324
-1568 -3 -3 -505 -4 -1115 -3 l-1111 3 42 105 c177 438 418 742 665 842 56 23
59 23 620 26 l563 3 -6 22 c-3 12 -6 30 -6 40 0 17 -27 18 -557 15 -555 -3
-558 -3 -623 -26 -305 -109 -601 -499 -781 -1029 l-28 -83 1220 0 1220 0 -6
33 c-4 17 -86 410 -183 872 l-177 840 -593 3 -592 2 0 -40z"/>
<path d="M8940 2020 c0 -20 -7 -20 -380 -20 l-380 0 0 -40 0 -40 380 0 380 0
0 -100 0 -100 -60 0 c-59 0 -62 -2 -282 -135 -123 -75 -222 -141 -220 -146 3
-13 231 -411 240 -421 4 -4 45 15 91 43 46 27 85 48 87 46 2 -2 -1 -136 -6
-298 -5 -162 -10 -318 -10 -346 l0 -53 44 0 43 0 6 183 c20 557 21 671 5 665
-8 -3 -61 -34 -118 -67 -56 -34 -104 -60 -106 -59 -7 8 -154 268 -156 277 -2
6 78 61 177 121 l180 110 116 0 116 0 27 -39 c50 -72 136 -115 231 -115 95 0
181 43 231 115 l27 39 115 0 116 0 175 -106 c97 -58 179 -109 183 -112 5 -5
-139 -273 -156 -290 -2 -1 -54 27 -115 64 -62 36 -115 64 -118 60 -3 -3 0
-180 6 -393 6 -213 11 -403 11 -420 0 -32 1 -33 45 -33 l45 0 0 63 c0 34 -5
190 -10 346 -5 157 -8 286 -7 288 2 1 41 -20 88 -47 46 -27 87 -46 91 -42 9
10 237 408 240 421 2 5 -97 71 -220 145 l-223 136 -70 0 -69 0 0 100 0 100
390 0 390 0 0 40 0 40 -389 0 c-380 0 -389 0 -394 20 -4 15 -14 20 -42 20 -28
0 -38 -5 -42 -20 -5 -19 -14 -20 -314 -20 -302 0 -309 0 -309 20 0 17 -7 20
-40 20 -33 0 -40 -3 -40 -20z m700 -200 l0 -100 -54 0 c-49 0 -54 -2 -60 -24
-16 -64 -104 -126 -178 -126 -80 1 -168 61 -184 126 -6 22 -10 24 -75 24 l-69
0 0 100 0 100 310 0 310 0 0 -100z"/>
<path d="M1440 1705 l0 -205 25 0 25 0 0 105 0 105 30 0 c23 0 30 5 30 19 0
14 -8 21 -27 23 -28 3 -28 4 -31 81 -3 74 -4 77 -27 77 l-25 0 0 -205z"/>
<path d="M1850 1705 l0 -205 30 0 30 0 0 205 0 205 -30 0 -30 0 0 -205z"/>
<path d="M1631 1864 c-91 -64 -50 -274 54 -274 59 0 105 63 105 145 0 87 -42
145 -105 145 -17 0 -41 -7 -54 -16z m83 -49 c34 -34 32 -128 -4 -160 -57 -52
-107 96 -52 158 19 21 36 22 56 2z"/>
<path d="M820 1775 l0 -95 140 0 c133 0 140 1 140 20 0 19 -7 20 -115 20
l-115 0 0 55 0 55 115 0 c108 0 115 1 115 20 0 19 -7 20 -140 20 l-140 0 0
-95z"/>
<path d="M1190 1850 c0 -18 7 -20 65 -20 l65 0 0 -35 0 -35 -65 0 -65 0 0 -80
0 -80 73 0 c108 0 147 9 147 32 0 19 -5 19 -85 13 l-85 -7 0 41 0 41 65 0 65
0 0 75 0 75 -90 0 c-83 0 -90 -1 -90 -20z"/>
<path d="M11831 1812 c-55 -27 -75 -63 -79 -140 -2 -54 1 -73 17 -100 56 -88
177 -96 240 -16 29 37 27 54 -8 54 -19 0 -34 -8 -44 -24 -19 -29 -56 -37 -95
-20 -56 23 -68 130 -21 180 31 33 82 32 113 -1 25 -27 76 -35 76 -11 0 23 -42
68 -76 82 -45 19 -82 18 -123 -4z"/>
<path d="M12090 1660 l0 -160 100 0 100 0 0 25 c0 24 -2 25 -70 25 l-70 0 0
135 0 135 -30 0 -30 0 0 -160z"/>
<path d="M780 1575 l0 -25 180 0 180 0 0 25 0 25 -180 0 -180 0 0 -25z"/>
<path d="M3343 1106 c-55 -25 -70 -80 -30 -120 l23 -23 -28 -25 c-19 -18 -28
-35 -28 -57 0 -90 150 -123 223 -50 35 35 32 70 -10 107 l-25 23 21 20 c29 28
28 79 -3 108 -31 29 -99 37 -143 17z m95 -48 c24 -24 11 -61 -25 -72 -22 -7
-63 21 -63 43 0 33 64 53 88 29z m14 -153 c9 -21 8 -28 -7 -45 -33 -37 -95
-21 -95 25 0 30 19 45 57 45 26 0 36 -6 45 -25z"/>
<path d="M3643 1104 c-45 -22 -68 -75 -67 -155 0 -102 47 -159 131 -159 74 0
117 61 117 165 0 81 -19 127 -64 150 -37 19 -76 19 -117 -1z m88 -53 c21 -17
24 -27 24 -96 0 -69 -3 -79 -24 -96 -29 -23 -33 -24 -61 -1 -16 13 -24 32 -28
70 -6 62 2 96 28 122 25 25 32 25 61 1z"/>
<path d="M4455 1111 c-26 -11 -51 -40 -59 -68 -6 -20 -4 -23 19 -23 17 0 35 9
47 25 23 30 58 32 83 5 28 -31 12 -62 -70 -135 -53 -48 -75 -74 -75 -91 0 -24
1 -24 110 -24 l110 0 0 25 c0 24 -2 25 -67 25 l-66 0 61 64 c68 70 81 101 61
147 -19 48 -97 73 -154 50z"/>
<path d="M4734 1101 c-17 -10 -37 -34 -45 -52 -20 -47 -17 -156 4 -196 43 -81
160 -83 209 -5 30 49 32 161 3 209 -35 59 -113 79 -171 44z m96 -51 c26 -26
34 -60 28 -122 -4 -38 -12 -57 -28 -70 -28 -23 -32 -22 -61 1 -21 17 -24 27
-24 96 0 69 3 79 24 96 29 24 36 24 61 -1z"/>
<path d="M4213 1089 c-22 -14 -33 -29 -33 -45 0 -28 8 -30 36 -9 10 8 22 15
27 15 4 0 7 -56 7 -125 l0 -125 35 0 35 0 0 155 0 155 -37 0 c-21 0 -53 -10
-70 -21z"/>
<path d="M3906 978 c-22 -31 -21 -68 2 -68 9 0 23 9 30 20 7 11 17 20 23 20 6
0 22 -9 36 -20 14 -11 38 -20 54 -20 26 0 59 22 59 40 0 5 3 15 6 24 5 12 0
16 -19 16 -14 0 -27 -7 -31 -15 -8 -21 -33 -19 -63 5 -34 27 -78 26 -97 -2z"/>
<path d="M8780 276 c0 -7 -3 -28 -6 -45 l-6 -31 577 0 578 0 -7 31 c-3 17 -6
38 -6 45 0 12 -92 14 -565 14 -473 0 -565 -2 -565 -14z"/>
</g>
</svg>
