<svg width="26" height="26" viewBox="0 0 26 26" fill="none" xmlns="http://www.w3.org/2000/svg">
<path fill-rule="evenodd" clip-rule="evenodd" d="M13 1.81395C6.82212 1.81395 1.81395 6.82212 1.81395 13C1.81395 19.1779 6.82212 24.186 13 24.186C14.93 24.186 16.7434 23.698 18.3261 22.8393L19.1911 24.4337C17.3495 25.4329 15.2396 26 13 26C5.8203 26 0 20.1797 0 13C0 5.8203 5.8203 0 13 0C20.1797 0 26 5.8203 26 13C26 16.9679 24.2212 20.5213 21.4207 22.9045C21.2984 23.0085 21.1742 23.1103 21.0481 23.2099L19.9242 21.786C20.0328 21.7003 20.1398 21.6126 20.2451 21.523L20.8329 22.2137L20.2451 21.523C22.6579 19.4698 24.186 16.4138 24.186 13C24.186 6.82212 19.1779 1.81395 13 1.81395Z" fill="black"/>
<path fill-rule="evenodd" clip-rule="evenodd" d="M12.9976 7.88242C12.2882 7.88242 11.7087 8.48454 11.7087 9.22161H10.8594C10.8594 7.99661 11.8186 7 12.9976 7C14.1766 7 15.1358 7.99661 15.1358 9.22161C15.1358 10.3013 14.3964 11.1941 13.4272 11.4017V12.7824H12.568V10.5504H12.9976C13.707 10.5504 14.2865 9.94831 14.2865 9.21123C14.2865 8.47416 13.707 7.88242 12.9976 7.88242Z" fill="black" stroke="black" stroke-width="0.5" stroke-miterlimit="10"/>
<path fill-rule="evenodd" clip-rule="evenodd" d="M12.995 13.1763L18.1307 15.8028V16.924H18.99V15.2422L12.995 12.1797L7 15.2422V16.924H7.85928V15.8028L12.995 13.1763ZM7 18.1075V19.0003H7.85928H18.1407H19V18.1075H7Z" fill="black" stroke="black" stroke-width="0.5" stroke-miterlimit="10"/>
</svg>
