<svg width="30" height="30" viewBox="0 0 30 30" fill="none" xmlns="http://www.w3.org/2000/svg">
<path d="M28.5 28.3438H2V29.949H28.5V28.3438Z" fill="black"/>
<path d="M21.86 7.92509C21.77 7.11244 21.48 5.79815 20.57 4.58418C19.74 3.48058 18.14 2.15625 15.25 2.15625C12.36 2.15625 10.76 3.48058 9.93 4.58418C9.02 5.79815 8.73 7.11244 8.64 7.92509H2V27.2081H3.6V9.53034H8.6V11.9884H10.2V9.53034H20.3V11.9884H21.9V9.53034H26.9V27.2181H28.5V7.92509H21.86ZM20.25 7.92509H10.25C10.36 7.18267 10.64 6.29978 11.21 5.54733C12.1 4.36346 13.46 3.76149 15.25 3.76149C17.04 3.76149 18.4 4.36346 19.29 5.54733C19.86 6.29978 20.14 7.18267 20.25 7.92509Z" fill="black"/>
<path d="M7.35938 19.4572C7.35938 18.1329 8.14937 17.25 9.38937 17.25C10.6294 17.25 11.4294 18.1329 11.4194 19.4572C11.4194 20.7715 10.6294 21.6544 9.38937 21.6544C8.15937 21.6544 7.35938 20.7715 7.35938 19.4572ZM9.39938 20.8518C10.0794 20.8518 10.4194 20.2297 10.4194 19.4472C10.4194 18.6646 10.0794 18.0426 9.39938 18.0426C8.70938 18.0426 8.36937 18.6646 8.36937 19.4472C8.36937 20.2297 8.70938 20.8518 9.39938 20.8518Z" fill="black"/>
<path d="M12.0195 19.4728C12.0195 18.1585 12.8195 17.2656 14.0295 17.2656C15.0695 17.2656 15.9695 17.9178 15.9695 19.4126V19.7237H12.9995C13.0195 20.446 13.4395 20.8774 14.0895 20.8774C14.5295 20.8774 14.8195 20.6968 14.9495 20.436H15.9295C15.7495 21.1684 15.0695 21.66 14.0895 21.66C12.7995 21.66 12.0195 20.8072 12.0195 19.4728ZM15.0095 19.0414C15.0095 18.4595 14.6195 18.0381 14.0395 18.0381C13.4395 18.0381 13.0395 18.4997 12.9995 19.0414H15.0095Z" fill="black"/>
<path d="M16.7383 17.3124H17.7083V18.0147H17.7583C17.9083 17.5231 18.3183 17.2422 18.8083 17.2422C18.9183 17.2422 19.0783 17.2522 19.1683 17.2623V18.1853C19.0783 18.1552 18.8683 18.1251 18.7083 18.1251C18.1583 18.1251 17.7483 18.5163 17.7483 19.0481V21.5563H16.7483V17.3124H16.7383Z" fill="black"/>
<path d="M21.0605 19.0916C21.3605 19.0715 21.9605 19.0414 22.1505 19.0314V18.6903C22.1505 18.2689 21.8805 18.0281 21.3805 18.0281C20.9305 18.0281 20.6605 18.2288 20.5805 18.5398H19.6205C19.6905 17.8174 20.3405 17.2656 21.4005 17.2656C22.2005 17.2656 23.1305 17.5967 23.1305 18.7304V21.5797H22.1805V20.9878H22.1505C21.9605 21.349 21.5705 21.66 20.9005 21.66C20.0905 21.66 19.4805 21.2185 19.4805 20.3758C19.4805 19.4126 20.2705 19.1417 21.0605 19.0916ZM21.1605 20.9175C21.7705 20.9175 22.1505 20.5162 22.1505 20.0347V19.6835C21.9705 19.6936 21.4205 19.7237 21.2205 19.7437C20.7505 19.7838 20.4505 19.9845 20.4505 20.3557C20.4405 20.737 20.7405 20.9175 21.1605 20.9175Z" fill="black"/>
</svg>
