<svg width="87" height="20" viewBox="0 0 87 20" fill="none" xmlns="http://www.w3.org/2000/svg">
<path d="M33.3477 5.37695H28.0537V9.97266H33.3477V5.37695ZM29.0312 9.18555V6.18945H32.3701V9.18555H29.0312ZM29.4375 11.9277H35.7852V13.083H29.4502V15.9014H37.1689V15.0889H30.4404V13.8193H36.7627V11.1279H29.4375V11.9277ZM35.7852 10.5693H36.7627V4.74219H35.7852V10.5693ZM41.7266 5.61816C40.0571 5.62451 38.8892 7.1543 38.8955 9.55371C38.8892 11.9595 40.0571 13.4829 41.7266 13.4766C43.3008 13.4829 44.4307 12.0991 44.5386 9.88379H47.0586V16.0537H48.0488V4.74219H47.0586V9.05859H44.5259C44.3735 6.94482 43.2627 5.62451 41.7266 5.61816ZM39.8477 9.55371C39.854 7.71924 40.6157 6.51318 41.7266 6.50684C42.8311 6.51318 43.6055 7.71924 43.6055 9.55371C43.6055 11.3882 42.8311 12.5942 41.7266 12.5879C40.6157 12.5942 39.854 11.3882 39.8477 9.55371ZM53.9014 7.77637V5.71973H52.8857V7.77637C52.8794 9.8584 51.5718 12.0293 49.915 12.8418L50.5625 13.6416C51.8447 12.9624 52.9048 11.5151 53.4062 9.82666C53.9077 11.4326 54.9678 12.7783 56.25 13.4385L56.8467 12.626C55.209 11.877 53.895 9.82031 53.9014 7.77637ZM55.6152 9.41406H58.2939V16.0537H59.2842V4.74219H58.2939V8.60156H55.6152V9.41406ZM74.7598 13.7559H70.0498V11.3184H73.4902V5.54199H72.5127V7.58594H66.6475V5.54199H65.6445V11.3184H69.0723V13.7559H64.4258V14.5811H74.7598V13.7559ZM66.6475 10.5059V8.39844H72.5127V10.5059H66.6475ZM84.9922 4.74219H83.9893V16.0283H84.9922V4.74219ZM75.8008 13.0957L76.3467 13.9082C80.1299 12.0928 81.6406 9.21729 81.6533 5.97363H76.3213V6.78613H80.6377C80.4155 9.48389 78.854 11.6484 75.8008 13.0957Z" fill="#767676"/>
<path d="M0.646446 10.6464C0.451185 10.8417 0.451185 11.1583 0.646446 11.3536L3.82843 14.5355C4.02369 14.7308 4.34027 14.7308 4.53553 14.5355C4.7308 14.3403 4.7308 14.0237 4.53553 13.8284L1.70711 11L4.53553 8.17157C4.7308 7.97631 4.7308 7.65973 4.53553 7.46447C4.34027 7.26921 4.02369 7.26921 3.82843 7.46447L0.646446 10.6464ZM21 10.5L1 10.5L1 11.5L21 11.5L21 10.5Z" fill="#767676"/>
</svg>
