<svg width="36" height="36" viewBox="0 0 36 36" fill="none" xmlns="http://www.w3.org/2000/svg">
<path d="M10.439 11.147H12.477V24.9228H10.439L10.439 11.147Z" fill="black"/>
<path fill-rule="evenodd" clip-rule="evenodd" d="M8.3993 5.15625L11.3993 6.87823L14.3993 5.15625L31.9191 5.15625L33.9591 5.15625V7.19625L33.9591 25.8201H31.9191L31.9191 7.19625L14.9432 7.19625L12.4148 8.64749L11.3993 9.23041L10.3838 8.64749L7.85543 7.19625H4.07906L4.07906 28.7962H7.85544L10.3838 27.345L11.3993 26.7621L12.4148 27.345L14.9432 28.7962H27.3649V28.8148H33.9591V30.8362H31.9191H14.3993L11.3993 29.1143L8.3993 30.8362H4.07906H2.03906L2.03906 28.7962L2.03906 7.19625L2.03906 5.15625L4.07906 5.15625L8.3993 5.15625Z" fill="#C4C4C4"/>
<path fill-rule="evenodd" clip-rule="evenodd" d="M11.3993 9.23041L7.85543 7.19625H4.07906L4.07906 28.7962H7.85544L11.3993 26.7621L14.9432 28.7962H27.3649V28.8148H33.9591V30.8362H14.3993L11.3993 29.1143L8.3993 30.8362H2.03906V5.15625H8.3993L11.3993 6.87823L14.3993 5.15625H33.9591L33.9591 25.8201H31.9191L31.9191 7.19625L14.9432 7.19625L11.3993 9.23041Z" fill="black"/>
</svg>
