<svg width="72" height="72" viewBox="0 0 72 72" fill="none" xmlns="http://www.w3.org/2000/svg">
<path fill-rule="evenodd" clip-rule="evenodd" d="M9 35.55C9 50.2132 20.8868 62.1 35.55 62.1C50.2132 62.1 62.1 50.2132 62.1 35.55C62.1 32.8233 61.6897 30.1966 60.929 27.7261L65.2298 26.4019C66.1211 29.2966 66.6 32.3694 66.6 35.55C66.6 52.6984 52.6984 66.6 35.55 66.6C18.4016 66.6 4.5 52.6984 4.5 35.55C4.5 18.4016 18.4016 4.5 35.55 4.5C38.7306 4.5 41.8034 4.97894 44.6981 5.87021L43.3739 10.171C40.9034 9.4103 38.2767 9 35.55 9C20.8868 9 9 20.8868 9 35.55Z" fill="black"/>
<path d="M57.0837 6.30005H54.5146V24.3H57.0837V6.30005Z" fill="black"/>
<path d="M52.7446 14.0171H46.7998V16.5858H52.7446V14.0171Z" fill="black"/>
<path d="M64.8003 14.0171H58.8555V16.5858H64.8003V14.0171Z" fill="black"/>
<path d="M43.3159 45.9001V31.3243H43.1735L38.1064 45.9001H33.4947L28.4275 31.3243H28.2852V45.9001H24.2998V26.1001H31.3881L35.9429 39.175H36.0567L40.6115 26.1001H47.6998V45.9001H43.3159Z" fill="url(#paint0_linear_23811_25008)"/>
<defs>
<linearGradient id="paint0_linear_23811_25008" x1="25.8598" y1="27.7501" x2="48.8322" y2="32.1053" gradientUnits="userSpaceOnUse">
<stop stop-color="#FF6868"/>
<stop offset="1" stop-color="#5A8FF9"/>
</linearGradient>
</defs>
</svg>
