<svg width="72" height="72" viewBox="0 0 72 72" fill="none" xmlns="http://www.w3.org/2000/svg">
<path d="M20.0391 9.44995L2.30078 20.7275L12.0798 36.2499L18.1751 34.3148L15.6766 62.5499H56.2991L55.9041 58.0499H20.5924L23.2531 27.9814L14.0332 30.9084L8.49697 22.1206L21.3485 13.95H27.1104C27.4889 14.4689 28.0163 15.113 28.6968 15.7608C30.2301 17.22 32.6714 18.812 35.9887 18.812C39.306 18.812 41.7474 17.22 43.2806 15.7608C43.9612 15.113 44.4886 14.4689 44.867 13.95H50.6493L63.5008 22.1206L57.9645 30.9084L48.747 27.9822L50.9917 53.5499H55.509L53.8202 34.3141L59.918 36.2499L69.697 20.7275L51.9586 9.44995H42.288L41.6606 10.6419L41.6543 10.6532C41.6447 10.6703 41.626 10.7031 41.5981 10.7494C41.5423 10.8423 41.4509 10.9876 41.3245 11.1679C41.0693 11.5319 40.685 12.0188 40.1782 12.5012C39.1572 13.4729 37.7697 14.312 35.9887 14.312C34.2077 14.312 32.8203 13.4729 31.7992 12.5012C31.2925 12.0188 30.9081 11.5319 30.6529 11.1679C30.5265 10.9876 30.4351 10.8423 30.3793 10.7494C30.3515 10.7031 30.3327 10.6703 30.3231 10.6532L30.3169 10.642L29.6894 9.44995H20.0391Z" fill="black"/>
<path d="M4.69922 24.5464L21.3485 13.95H27.1104C27.4889 14.4689 28.0163 15.113 28.6968 15.7608C30.2301 17.22 32.6714 18.812 35.9887 18.812C39.306 18.812 41.7474 17.22 43.2806 15.7608C43.9612 15.113 44.4886 14.4689 44.867 13.95H50.6493L67.3038 24.517L69.697 20.7275L51.9586 9.44995H42.288L41.6606 10.6419L41.6543 10.6532C41.6447 10.6703 41.626 10.7031 41.5981 10.7494C41.5423 10.8423 41.4509 10.9876 41.3245 11.1679C41.0693 11.5319 40.685 12.0188 40.1782 12.5012C39.1572 13.4729 37.7697 14.312 35.9887 14.312C34.2077 14.312 32.8203 13.4729 31.7992 12.5012C31.2925 12.0188 30.9081 11.5319 30.6529 11.1679C30.5265 10.9876 30.4351 10.8423 30.3793 10.7494C30.3515 10.7031 30.3327 10.6703 30.3231 10.6532L30.3169 10.642L29.6894 9.44995H20.0391L2.30078 20.7275L4.69922 24.5464Z" fill="url(#paint0_linear_23811_25015)"/>
<defs>
<linearGradient id="paint0_linear_23811_25015" x1="80.0399" y1="37.5783" x2="1.62349" y2="-21.6039" gradientUnits="userSpaceOnUse">
<stop stop-color="#5AADF9"/>
<stop offset="0.31" stop-color="#A393FF"/>
<stop offset="1" stop-color="#FF6868"/>
</linearGradient>
</defs>
</svg>
