<svg width="40" height="40" viewBox="0 0 40 40" fill="none" xmlns="http://www.w3.org/2000/svg">
<path d="M21.168 13.9424L21.168 30.1029L18.8346 30.1029L18.8346 13.9424L21.168 13.9424Z" fill="black"/>
<path fill-rule="evenodd" clip-rule="evenodd" d="M6.77865 14.5548H33.2231V30.1135H35.5564V14.5548V12.2214H33.2231H6.77865H4.44531V14.5548V30.1135H6.77865V14.5548ZM6.77865 33.2246H4.44531V33.2246V35.5579H6.77865H33.2231H35.5564V33.2246V33.2246H33.2231V33.2246H6.77865V33.2246Z" fill="black"/>
<path fill-rule="evenodd" clip-rule="evenodd" d="M9.32617 4.4436V4.44696V12.9161H11.6595V6.90603L19.3538 13.1897L19.8638 13.827L20.0003 13.7177L20.1252 13.8198L20.6015 13.2366L28.3385 7.04441V13.0856H30.6719V4.61638V4.4436H27.854L20.0152 10.7173L12.3332 4.4436H9.32617Z" fill="black"/>
</svg>
