<svg width="40" height="40" viewBox="0 0 40 40" fill="none" xmlns="http://www.w3.org/2000/svg">
<path fill-rule="evenodd" clip-rule="evenodd" d="M34.6673 19.9993C34.6673 11.8992 28.1008 5.33268 20.0007 5.33268C11.9005 5.33268 5.33398 11.8992 5.33398 19.9993C5.33398 28.0995 11.9005 34.666 20.0007 34.666C28.1008 34.666 34.6673 28.0995 34.6673 19.9993ZM36.6673 19.9993C36.6673 10.7946 29.2054 3.33268 20.0007 3.33268C10.7959 3.33268 3.33398 10.7946 3.33398 19.9993C3.33398 29.2041 10.7959 36.666 20.0007 36.666C29.2054 36.666 36.6673 29.2041 36.6673 19.9993Z" fill="black"/>
<path d="M17.6455 15.5542L20.4455 22.4211H20.5678L23.3678 15.5542H25.4455V25.0074H23.8233V18.4972H23.7344L21.1122 24.9739H19.9011L17.2789 18.4637H17.2011V24.9962H15.5566V15.5542H17.6455Z" fill="black"/>
</svg>
