<svg width="72" height="72" viewBox="0 0 72 72" fill="none" xmlns="http://www.w3.org/2000/svg">
<path d="M49.5035 7.20703H5.85352V55.807H10.3535V11.707H49.5035V7.20703Z" fill="black"/>
<path d="M5.85352 60.307V64.807H66.1535V60.307H5.85352Z" fill="black"/>
<path d="M66.1535 55.807H61.6535V29.257H66.1535V55.807Z" fill="black"/>
<path d="M62.4929 7.20703H59.9238V25.207H62.4929V7.20703Z" fill="black"/>
<path d="M58.1519 14.9258H52.207V17.4944H58.1519V14.9258Z" fill="black"/>
<path d="M70.2104 14.9219H64.2656V17.4905H70.2104V14.9219Z" fill="black"/>
<path d="M16.6465 42.75V29.25H21.7059C23.106 29.25 24.3184 29.5204 25.343 30.0611C26.3676 30.5956 27.1536 31.3695 27.7009 32.3826C28.2482 33.3957 28.5219 34.6015 28.5219 36C28.5219 37.3923 28.2482 38.595 27.7009 39.6081C27.1536 40.6212 26.3676 41.3981 25.343 41.9389C24.3184 42.4796 23.106 42.75 21.7059 42.75H16.6465ZM21.5914 40.0276C22.8133 40.0338 23.7297 39.72 24.3407 39.086C24.9516 38.452 25.2571 37.4233 25.2571 36C25.2571 34.5704 24.9484 33.5418 24.3311 32.914C23.7202 32.28 22.7942 31.9599 21.5532 31.9537H19.8922V40.0276H21.5914Z" fill="url(#paint0_linear_23811_24982)"/>
<path d="M28.9801 42.75L33.6768 29.25H37.9916L42.6692 42.75H39.1753L38.2398 39.8598H33.4286L32.4931 42.75H28.9801ZM37.457 37.4358L35.8915 32.5877H35.7769L34.2114 37.4358H37.457Z" fill="url(#paint1_linear_23811_24982)"/>
<path d="M45.6476 29.25L48.626 34.9185H48.7406L51.719 29.25H55.3465L50.3061 38.1816V42.75H47.0604V38.1816L42.001 29.25H45.6476Z" fill="url(#paint2_linear_23811_24982)"/>
<defs>
<linearGradient id="paint0_linear_23811_24982" x1="61.2855" y1="54.4037" x2="4.05156" y2="26.6669" gradientUnits="userSpaceOnUse">
<stop stop-color="#5AADF9"/>
<stop offset="0.31" stop-color="#A393FF"/>
<stop offset="1" stop-color="#FF6868"/>
</linearGradient>
<linearGradient id="paint1_linear_23811_24982" x1="61.2855" y1="54.4037" x2="4.05156" y2="26.6669" gradientUnits="userSpaceOnUse">
<stop stop-color="#5AADF9"/>
<stop offset="0.31" stop-color="#A393FF"/>
<stop offset="1" stop-color="#FF6868"/>
</linearGradient>
<linearGradient id="paint2_linear_23811_24982" x1="61.2855" y1="54.4037" x2="4.05156" y2="26.6669" gradientUnits="userSpaceOnUse">
<stop stop-color="#5AADF9"/>
<stop offset="0.31" stop-color="#A393FF"/>
<stop offset="1" stop-color="#FF6868"/>
</linearGradient>
</defs>
</svg>
