<svg width="168" height="20" viewBox="0 0 168 20" fill="none" xmlns="http://www.w3.org/2000/svg">
<path fill-rule="evenodd" clip-rule="evenodd" d="M0 20H1.31888V0H0V20Z" fill="black"/>
<path fill-rule="evenodd" clip-rule="evenodd" d="M49.7031 20H51.8132V0H49.7031V20Z" fill="black"/>
<path fill-rule="evenodd" clip-rule="evenodd" d="M28.0391 9.27615H22.7419V5.39453H21.291V14.6052H22.7419V10.5919H28.0391V14.6052H29.49V5.39453H28.0391V9.27615Z" fill="black"/>
<path fill-rule="evenodd" clip-rule="evenodd" d="M34.5759 10.5787H38.894V9.28934H34.5759V6.71031H40.0211V5.39453H33.125V14.605H40.2189V13.2892H34.5759V10.5787Z" fill="black"/>
<path fill-rule="evenodd" clip-rule="evenodd" d="M10.1504 6.71031H13.5242V14.605H14.9751V6.71031H18.3494V5.39453H10.1504V6.71031Z" fill="black"/>
<path fill-rule="evenodd" clip-rule="evenodd" d="M164.043 20H167.999V0H164.043V20Z" fill="black"/>
<path fill-rule="evenodd" clip-rule="evenodd" d="M101.612 12.948H99.8759V7.05361H101.599C103.512 7.05361 104.66 8.16478 104.66 10.0008C104.66 11.8097 103.489 12.948 101.612 12.948ZM101.612 5.09961H97.7656V14.9022H101.612C103.184 14.9022 104.672 14.4009 105.495 13.5947C106.381 12.7389 106.855 11.4866 106.855 10.0008C106.855 8.51525 106.381 7.2627 105.495 6.40717C104.672 5.60068 103.184 5.09961 101.612 5.09961Z" fill="black"/>
<path fill-rule="evenodd" clip-rule="evenodd" d="M68.2415 9.01408H63.5595V5.09961H61.4492V14.9022H63.5595V10.8563H68.2415V14.9022H70.3518V5.09961H68.2415V9.01408Z" fill="black"/>
<path fill-rule="evenodd" clip-rule="evenodd" d="M149.468 10.828H153.84V9.03851H149.468V6.93989H154.96V5.09766H147.357V14.9003H155.158V13.0583H149.468V10.828Z" fill="black"/>
<path fill-rule="evenodd" clip-rule="evenodd" d="M124.935 13.2092C124.121 13.2092 123.424 12.9187 122.925 12.3631C122.426 11.8075 122.144 11.0135 122.144 10.0001C122.144 8.98653 122.426 8.19273 122.925 7.63715C123.424 7.08132 124.121 6.79083 124.935 6.79083C125.748 6.79083 126.445 7.08132 126.944 7.63715C127.443 8.19273 127.725 8.98653 127.725 10.0001C127.725 11.0135 127.443 11.8075 126.944 12.3631C126.445 12.9187 125.748 13.2092 124.935 13.2092ZM124.935 15.1975C126.438 15.1975 127.667 14.7022 128.547 13.7954C129.426 12.8886 129.92 11.6004 129.92 10.0001C129.92 8.39984 129.426 7.11144 128.547 6.20489C127.667 5.29808 126.438 4.80273 124.935 4.80273C123.431 4.80273 122.202 5.29808 121.322 6.20489C120.443 7.11144 119.949 8.39984 119.949 10.0001C119.949 11.6004 120.443 12.8886 121.322 13.7954C122.202 14.7022 123.431 15.1975 124.935 15.1975Z" fill="black"/>
<path fill-rule="evenodd" clip-rule="evenodd" d="M76.4934 10.9186L77.9255 7.33642L79.3577 10.9186H76.4934ZM80.9233 14.9005H83.1147L79.1955 5.09766H76.6558L72.7363 14.9005H74.9277L75.7833 12.7608H80.068L80.9233 14.9005Z" fill="black"/>
<path fill-rule="evenodd" clip-rule="evenodd" d="M92.3659 5.09961V11.9742L87.9278 5.09961H85.5078V14.9022H87.552V8.02762L91.9899 14.9022H94.4101V5.09961H92.3659Z" fill="black"/>
<path fill-rule="evenodd" clip-rule="evenodd" d="M141.019 5.09961L138.292 11.8841L135.566 5.09961H132.582V14.9022H134.626V7.66122L137.635 14.9022H138.95L141.958 7.66122V14.9022H144.002V5.09961H141.019Z" fill="black"/>
<path fill-rule="evenodd" clip-rule="evenodd" d="M114.096 9.03781C113.395 8.90713 112.577 8.66344 112.133 8.44788C111.773 8.27289 111.554 7.99286 111.554 7.6272C111.554 7.12115 112.169 6.67434 113.294 6.67434C114.362 6.67434 115.393 7.18139 115.977 7.86491L117.398 6.5337C116.642 5.52907 115.124 4.80273 113.331 4.80273C112.339 4.80273 111.393 5.0056 110.637 5.49945C109.857 6.00899 109.359 6.80851 109.359 7.6272C109.359 8.83395 109.952 9.53714 110.691 9.9725C111.305 10.3339 112.137 10.5669 112.982 10.7556C113.614 10.8965 114.464 11.0585 114.86 11.2816C115.174 11.4588 115.393 11.7164 115.393 12.0144C115.393 12.7716 114.693 13.2084 113.528 13.2084C112.152 13.2084 111.045 12.5055 110.435 11.8307L108.795 13.2189C109.952 14.5712 112.02 15.1968 113.528 15.1968C114.631 15.1968 115.746 14.9829 116.554 14.3089C117.261 13.7197 117.657 12.8848 117.657 12.0144C117.657 11.3443 117.459 10.8141 117.043 10.3494C116.514 9.75768 115.758 9.34771 114.096 9.03781Z" fill="black"/>
</svg>
