<svg width="60" height="60" viewBox="0 0 60 60" fill="none" xmlns="http://www.w3.org/2000/svg">
<path d="M43.6727 45.5086C44.8364 44.4671 45.9455 43.3726 46.8727 42.2074C47.8 41.0423 48.6 39.8242 49.1455 38.5708C49.6909 37.2997 50 35.9934 50 34.6517V33.5042V32.3567V31.2093V30.0618V26.2663V22.4355V18.6223V14.8268L45 12.6201L40 10.4134L35 8.20669L30 6L25 8.20669L20 10.4134L15 12.6201L10 14.8268V18.6223V22.4178V26.2133V30.0088V31.1563V32.3038V33.4513V34.5988C10 35.9404 10.3091 37.2468 10.8545 38.5178C11.4 39.7889 12.1818 41.007 13.1273 42.1545C14.0727 43.302 15.1636 44.4141 16.3273 45.4557C17.4909 46.4972 18.7455 47.4505 20 48.3332C21.2545 49.2159 22.5091 50.0103 23.6727 50.6988C24.8364 51.4049 25.9455 52.0051 26.8727 52.4818C27.8182 52.9761 28.6 53.3468 29.1455 53.6116C29.6909 53.8764 30 54 30 54C30 54 30.3091 53.8588 30.8545 53.6116C31.4 53.3468 32.1818 52.9761 33.1273 52.4818C34.0727 51.9875 35.1636 51.3873 36.3273 50.6988C37.4909 49.9926 38.7455 49.1982 40 48.3332" stroke="#767676" stroke-width="2" stroke-miterlimit="10"/>
<path d="M38.4803 20.479L21.5097 37.4496" stroke="#767676" stroke-width="2"/>
<path d="M38.4746 37.471L21.504 20.5005" stroke="#767676" stroke-width="2"/>
</svg>
