<svg width="36" height="36" viewBox="0 0 36 36" fill="none" xmlns="http://www.w3.org/2000/svg">
<path d="M25.52 26.4005C26.16 25.8363 26.77 25.2435 27.28 24.6124C27.79 23.9812 28.23 23.3214 28.53 22.6425C28.83 21.954 29 21.2464 29 20.5197V19.8981V19.2766V18.655V18.0335V15.9776V13.9025V11.8371V9.78117L26.25 8.58588L23.5 7.39058L20.75 6.19529L18 5L15.25 6.19529L12.5 7.39058L9.75 8.58588L7 9.78117V11.8371V13.893V15.9489V18.0048V18.6263V19.2479V19.8694V20.491C7 21.2177 7.17 21.9253 7.47 22.6138C7.77 23.3023 8.2 23.9621 8.72 24.5837C9.24 25.2052 9.84 25.8077 10.48 26.3718C11.12 26.936 11.81 27.4524 12.5 27.9305C13.19 28.4086 13.88 28.8389 14.52 29.2118C15.16 29.5943 15.77 29.9195 16.28 30.1776C16.8 30.4454 17.23 30.6462 17.53 30.7896C17.83 30.9331 18 31 18 31C18 31 18.17 30.9235 18.47 30.7896C18.77 30.6462 19.2 30.4454 19.72 30.1776C20.24 29.9099 20.84 29.5848 21.48 29.2118C22.12 28.8294 22.81 28.399 23.5 27.9305" stroke="white" stroke-width="1.5" stroke-miterlimit="10"/>
<path d="M22.7284 13.2432L14.2432 21.7284" stroke="white" stroke-width="1.5"/>
<path d="M22.7246 21.7314L14.2393 13.2461" stroke="white" stroke-width="1.5"/>
</svg>
