<svg width="18" height="18" viewBox="0 0 18 18" fill="none" xmlns="http://www.w3.org/2000/svg">
<g opacity="0.3">
<path fill-rule="evenodd" clip-rule="evenodd" d="M2.08943 3.12947C3.76836 1.45054 6.49033 1.45033 8.16951 3.12886L8.17012 3.12947L8.99939 3.95874L9.82863 3.1295C11.5078 1.45036 14.2302 1.45037 15.9093 3.1295C17.5885 4.80864 17.5885 7.53106 15.9093 9.21019L10.769 14.3505L9.92048 13.502L15.0608 8.36167C16.2713 7.15116 16.2713 5.18854 15.0608 3.97803C13.8503 2.76752 11.8877 2.76752 10.6772 3.97803L9.84792 4.80727L8.99939 5.65579L8.15086 4.80727L7.32159 3.978C6.11109 2.76749 4.14847 2.76749 2.93796 3.978C1.72745 5.18851 1.72745 7.15112 2.93796 8.36163L8.99931 14.423L8.99936 14.4229L8.99944 14.423L9.00124 14.4212L9.84976 15.2697L9.84797 15.2715L8.99944 16.1201L8.99936 16.12L8.99931 16.12L8.15078 15.2715L2.08943 9.21016C0.410293 7.53102 0.410295 4.80861 2.08943 3.12947Z" fill="black"/>
</g>
</svg>
