<svg width="18" height="18" viewBox="0 0 18 18" fill="none" xmlns="http://www.w3.org/2000/svg">
<path d="M8.41706 1.21944C8.65127 0.7295 9.34873 0.7295 9.58294 1.21944L9.89167 1.86527C10.0777 2.25449 10.5857 2.35553 10.9065 2.06714L11.4389 1.58862C11.8428 1.2256 12.4872 1.49251 12.5161 2.03478L12.5541 2.7496C12.5771 3.1804 13.0077 3.46813 13.4145 3.32447L14.0895 3.08611C14.6015 2.90528 15.0947 3.39846 14.9139 3.91052L14.6755 4.58549C14.5319 4.99228 14.8196 5.4229 15.2504 5.44586L15.9652 5.48394C16.5075 5.51283 16.7744 6.1572 16.4114 6.56108L15.9329 7.09346C15.6445 7.41431 15.7455 7.92226 16.1347 8.10833L16.7806 8.41706C17.2705 8.65127 17.2705 9.34873 16.7806 9.58294L16.1347 9.89167C15.7455 10.0777 15.6445 10.5857 15.9329 10.9065L16.4114 11.4389C16.7744 11.8428 16.5075 12.4872 15.9652 12.5161L15.2504 12.5541C14.8196 12.5771 14.5319 13.0077 14.6755 13.4145L14.9139 14.0895C15.0947 14.6015 14.6015 15.0947 14.0895 14.9139L13.4145 14.6755C13.0077 14.5319 12.5771 14.8196 12.5541 15.2504L12.5161 15.9652C12.4872 16.5075 11.8428 16.7744 11.4389 16.4114L10.9065 15.9329C10.5857 15.6445 10.0777 15.7455 9.89167 16.1347L9.58294 16.7806C9.34873 17.2705 8.65127 17.2705 8.41706 16.7806L8.10833 16.1347C7.92226 15.7455 7.41431 15.6445 7.09346 15.9329L6.56108 16.4114C6.1572 16.7744 5.51283 16.5075 5.48394 15.9652L5.44586 15.2504C5.4229 14.8196 4.99228 14.5319 4.58549 14.6755L3.91052 14.9139C3.39846 15.0947 2.90528 14.6015 3.08611 14.0895L3.32447 13.4145C3.46813 13.0077 3.1804 12.5771 2.7496 12.5541L2.03478 12.5161C1.49251 12.4872 1.2256 11.8428 1.58862 11.4389L2.06714 10.9065C2.35553 10.5857 2.25449 10.0777 1.86527 9.89167L1.21944 9.58294C0.7295 9.34873 0.7295 8.65127 1.21944 8.41706L1.86527 8.10833C2.25449 7.92226 2.35553 7.41431 2.06714 7.09346L1.58862 6.56108C1.2256 6.1572 1.49251 5.51283 2.03478 5.48394L2.7496 5.44586C3.1804 5.4229 3.46813 4.99228 3.32447 4.58549L3.08611 3.91052C2.90528 3.39846 3.39846 2.90528 3.91052 3.08611L4.58549 3.32447C4.99228 3.46813 5.4229 3.1804 5.44586 2.7496L5.48394 2.03478C5.51283 1.49251 6.1572 1.2256 6.56108 1.58862L7.09346 2.06714C7.41431 2.35553 7.92226 2.25449 8.10833 1.86527L8.41706 1.21944Z" fill="black"/>
<path d="M6 9L8 11L12 7" stroke="white" stroke-width="1.5"/>
</svg>
