<svg width="628" height="64" viewBox="0 0 628 64" fill="none" xmlns="http://www.w3.org/2000/svg">
<path fill-rule="evenodd" clip-rule="evenodd" d="M8.2 8.2H55.8V52.7188H58V8.2V6H55.8H8.2H6V8.2V52.7188H8.2V8.2ZM6 55.9688V58H8.2H55.8H58V55.9688H6Z" fill="black"/>
<rect x="26" y="23" width="4" height="17" fill="black"/>
<rect x="34" y="23" width="4" height="17" fill="black"/>
<path fill-rule="evenodd" clip-rule="evenodd" d="M102.2 8.2H149.8V52.7188H152V8.2V6H149.8H102.2H100V8.2V52.7188H102.2V8.2ZM100 55.9688V58H102.2H149.8H152V55.9688H100Z" fill="black"/>
<path fill-rule="evenodd" clip-rule="evenodd" d="M134.244 30.6829L136 32L134.244 33.317L132.48 32.0057L132.488 32L122.286 24.3484L122.286 39.6516L130.284 33.653L132.048 34.9643L122.286 42.2857L120 44V41.3658V22.6342V20L122.286 21.7143L134.244 30.6829Z" fill="black"/>
<rect x="282" width="64" height="64" fill="white"/>
<path d="M306.02 12H333.583L342 52H286C286 52 293.805 26.5455 308.444 26.5455H333.583" stroke="black" stroke-width="2" stroke-miterlimit="10"/>
<rect width="2.0698" height="4.54629" transform="matrix(0.976138 -0.217152 0.21875 0.975781 332 24.4495)" fill="white"/>
<path d="M299.54 45.1074C301.313 45.1074 302.591 44.1729 302.591 42.9053C302.591 41.9277 301.829 41.1328 300.883 40.9824V40.9287C301.7 40.7676 302.296 40.064 302.301 39.21C302.296 38.0015 301.13 37.1152 299.54 37.1152C297.951 37.1152 296.785 38.0015 296.79 39.21C296.785 40.064 297.365 40.7676 298.208 40.9287V40.9824C297.242 41.1328 296.49 41.9277 296.49 42.9053C296.49 44.1729 297.763 45.1074 299.54 45.1074ZM298.176 42.7441C298.171 42.0674 298.751 41.5786 299.54 41.5732C300.33 41.5786 300.91 42.0728 300.905 42.7441C300.91 43.4102 300.362 43.8774 299.54 43.8721C298.719 43.8774 298.171 43.4102 298.176 42.7441ZM298.37 39.3711C298.364 38.7642 298.842 38.3398 299.54 38.3398C300.233 38.3398 300.717 38.7642 300.722 39.3711C300.717 39.9941 300.223 40.4292 299.54 40.4346C298.853 40.4292 298.364 39.9941 298.37 39.3711ZM306.716 45.1074C308.661 45.1074 309.842 43.668 309.842 41.1113C309.842 38.5708 308.655 37.1152 306.716 37.1152C304.777 37.1152 303.59 38.5708 303.59 41.1113C303.59 43.6572 304.767 45.1074 306.716 45.1074ZM305.245 41.1113C305.245 39.3335 305.819 38.4419 306.716 38.4365C307.613 38.4419 308.193 39.3335 308.188 41.1113C308.193 42.9053 307.619 43.7754 306.716 43.7754C305.814 43.7754 305.234 42.9053 305.245 41.1113ZM311.131 42.1318H312.356C312.34 41.498 312.608 41.2456 312.968 41.2402C313.226 41.2456 313.36 41.3638 313.677 41.6377C314.214 42.1104 314.612 42.3091 315.117 42.3037C316.11 42.3091 316.803 41.5249 316.749 40.0908H315.525C315.546 40.7031 315.278 40.9771 314.913 40.9824C314.649 40.9771 314.488 40.8374 314.193 40.585C313.634 40.0908 313.247 39.9189 312.764 39.9189C311.744 39.9189 311.083 40.6978 311.131 42.1318ZM321.497 37.2227H319.972L318.049 38.4473V39.876L319.832 38.7588H319.875V45H321.497V37.2227ZM323.302 45H328.867V43.668H325.547V43.625L326.729 42.4756C328.329 41.0254 328.759 40.3003 328.759 39.4141C328.759 38.0659 327.653 37.1152 325.988 37.1152C324.35 37.1152 323.222 38.0874 323.227 39.6074H324.763C324.758 38.8608 325.236 38.3989 325.966 38.4043C326.681 38.3989 327.202 38.8286 327.202 39.5215C327.202 40.1392 326.809 40.5688 326.084 41.2617L323.291 43.8291L323.302 45ZM333.035 45.1074C334.979 45.1074 336.161 43.668 336.161 41.1113C336.161 38.5708 334.974 37.1152 333.035 37.1152C331.096 37.1152 329.909 38.5708 329.909 41.1113C329.909 43.6572 331.085 45.1074 333.035 45.1074ZM331.563 41.1113C331.563 39.3335 332.138 38.4419 333.035 38.4365C333.932 38.4419 334.512 39.3335 334.506 41.1113C334.512 42.9053 333.937 43.7754 333.035 43.7754C332.132 43.7754 331.552 42.9053 331.563 41.1113Z" fill="black"/>
<rect x="188" width="64" height="64" fill="white"/>
<path d="M214.5 22.7354H208.936V20.1357H214.425V19.0293H207.583V23.8311H214.5V22.7354ZM206.53 26.7959H215.478V25.668H206.53V26.7959ZM223.75 18.2129H222.396V28.0098H223.75V23.0361H225.189V21.9082H223.75V18.2129ZM216.434 20.1357H219.592V21.7363H216.445V25.7324H217.272C218.991 25.7324 220.333 25.6733 221.827 25.3994L221.708 24.3037C220.409 24.5239 219.232 24.5884 217.809 24.5938V22.8213H220.957V19.0293H216.434V20.1357ZM233.729 18.2129H232.343V28.0098H233.729V18.2129ZM225.833 22.3809C225.828 24.5293 226.918 25.8721 228.422 25.8721C229.894 25.8721 230.99 24.5293 230.99 22.3809C230.99 20.2485 229.894 18.9004 228.422 18.9004C226.918 18.9004 225.828 20.2485 225.833 22.3809ZM227.155 22.3809C227.149 20.9307 227.66 20.1357 228.422 20.1357C229.164 20.1357 229.663 20.9307 229.668 22.3809C229.663 23.8364 229.164 24.6313 228.422 24.626C227.66 24.6313 227.149 23.8364 227.155 22.3809Z" fill="black"/>
<path d="M194 38.5C194.85 40.5693 196.85 42 199.2 42C201.525 42 203.525 40.5438 204.4 38.5C205.25 36.4307 207.25 35 209.6 35C211.925 35 213.925 36.4562 214.8 38.5C215.65 40.5693 217.65 42 220 42C222.325 42 224.325 40.5438 225.2 38.5C226.05 36.4307 228.05 35 230.4 35C232.725 35 234.725 36.4562 235.6 38.5C236.45 40.5693 238.45 42 240.8 42C243.125 42 245.125 40.5438 246 38.5" stroke="black" stroke-width="2" stroke-miterlimit="2.6131" stroke-linecap="round" stroke-linejoin="round"/>
<circle cx="220" cy="32" r="27" stroke="black" stroke-width="2"/>
<rect x="236.602" y="7" width="2.00218" height="6" transform="rotate(25.7048 236.602 7)" fill="white"/>
<line x1="474" y1="17" x2="530" y2="17" stroke="black" stroke-width="2"/>
<path d="M514.44 23.0091L514.43 23H506.71C506.27 25.0856 504.33 26.6589 502.01 26.6589C499.69 26.6589 497.76 25.0856 497.31 23H489.57L479 29.4031L483.98 38.1204L484.75 39.465L486.13 38.6509L487.52 37.8277L489.18 36.8489L489.13 38.6692L488.7 54H490.33L490.81 36.8855L490.89 34.0499L488.3 35.5775L485.36 37.3154L481.13 29.9153L490.05 24.5184H496.11C497.09 26.6589 499.34 28.1773 502 28.1773C504.66 28.1773 506.9 26.6589 507.89 24.5184H513.94L522.86 29.9153L518.63 37.3063L515.7 35.5775L513.12 34.059L513.2 36.8947L513.68 54H515.31L514.88 38.6875L514.83 36.8672L516.49 37.846L517.87 38.6601L519.25 39.4742L520.02 38.1295L525 29.4122L514.44 23.0091Z" fill="black" stroke="black" stroke-width="0.5" stroke-miterlimit="10"/>
<path d="M488.62 57.3601L488.58 59.0001H490.21H513.8H515.42L515.38 57.3601H488.62Z" fill="black" stroke="black" stroke-width="0.5" stroke-miterlimit="10"/>
<line x1="493.223" y1="15.2222" x2="493.223" y2="23.2222" stroke="black" stroke-width="2"/>
<line x1="510.111" y1="15.2222" x2="510.111" y2="23.2222" stroke="black" stroke-width="2"/>
<line y1="-1" x2="7.2111" y2="-1" transform="matrix(-0.5547 0.83205 -0.898063 -0.439867 494 5)" stroke="black" stroke-width="2"/>
<line y1="-1" x2="7.2111" y2="-1" transform="matrix(-0.5547 0.83205 -0.898063 -0.439867 499 5)" stroke="black" stroke-width="2"/>
<line y1="-1" x2="7.2111" y2="-1" transform="matrix(-0.5547 0.83205 -0.898063 -0.439867 504 5)" stroke="black" stroke-width="2"/>
<line y1="-1" x2="7.2111" y2="-1" transform="matrix(-0.5547 0.83205 -0.898063 -0.439867 509 5)" stroke="black" stroke-width="2"/>
<line y1="-1" x2="7.2111" y2="-1" transform="matrix(-0.5547 0.83205 -0.898063 -0.439867 514 5)" stroke="black" stroke-width="2"/>
<rect opacity="0.31" x="376" width="64" height="64" fill="white"/>
<path d="M382 10L393.143 54H422.857L434 10" stroke="black" stroke-width="2"/>
<path d="M386 26.5C386.754 28.5693 389.027 30 391.111 30C393.173 30 394.946 28.5438 395.722 26.5C396.476 24.4307 398.249 23 400.333 23C402.395 23 404.169 24.4562 404.944 26.5C405.698 28.5693 407.472 30 409.556 30C411.617 30 413.391 28.5438 414.167 26.5C414.92 24.4307 416.694 23 418.778 23C420.839 23 422.613 24.4562 423.389 26.5C424.143 28.5693 425.916 30 428 30" stroke="black" stroke-width="2" stroke-miterlimit="2.6131" stroke-linecap="round" stroke-linejoin="round"/>
<rect x="393.602" y="50" width="2" height="6" transform="rotate(25.7048 393.602 50)" fill="white"/>
<line y1="-1" x2="66.0319" y2="-1" transform="matrix(0.848075 0.529875 -0.848075 0.529875 380 18)" stroke="black" stroke-width="2"/>
<line y1="-1" x2="66.0319" y2="-1" transform="matrix(0.848075 -0.529875 -0.848075 -0.529875 380 53)" stroke="black" stroke-width="2"/>
<path d="M568 54L596 7L624 54H568Z" fill="white" stroke="black" stroke-width="2"/>
<rect x="601.098" y="11" width="2" height="6" transform="rotate(31.0788 601.098 11)" fill="white"/>
<path d="M594.872 22.9297H596.505C596.29 21.1411 594.937 20.1152 593.143 20.1152C591.091 20.1152 589.522 21.5708 589.522 24.1113C589.522 26.6411 591.064 28.1074 593.143 28.1074C595.119 28.1074 596.328 26.7969 596.505 25.3574L594.872 25.3467C594.716 26.1899 594.05 26.6733 593.164 26.6787C591.977 26.6733 591.166 25.7871 591.166 24.1113C591.166 22.4731 591.966 21.5493 593.175 21.5439C594.083 21.5493 594.743 22.0703 594.872 22.9297ZM597.633 28H602.596V26.668H599.244V20.2227H597.633V28Z" fill="black"/>
<line y1="-1" x2="66.4678" y2="-1" transform="matrix(0.707104 -0.70711 -0.707104 -0.70711 572 60)" stroke="black" stroke-width="2"/>
<line y1="-1" x2="66.4678" y2="-1" transform="matrix(0.707104 0.70711 -0.707104 0.70711 572 13)" stroke="black" stroke-width="2"/>
</svg>
