<svg width="62" height="14" viewBox="0 0 62 14" fill="none" xmlns="http://www.w3.org/2000/svg">
<path fill-rule="evenodd" clip-rule="evenodd" d="M32.7398 5.10699L30.9712 1L29.2025 5.10699L24.75 5.51995L28.1094 8.47116L27.1263 12.8334L30.9712 10.5503L34.8161 12.8334L33.8329 8.47116L37.1923 5.51995L32.7398 5.10699ZM34.5474 6.37935L31.9879 6.14197L30.9712 3.7811L29.9545 6.14197L27.395 6.37935L29.3261 8.07584L28.761 10.5834L30.9712 9.27104L33.1814 10.5834L32.6162 8.07584L34.5474 6.37935Z" fill="black"/>
<path d="M6.97117 1L8.73982 5.10699L13.1923 5.51995L9.83291 8.47116L10.8161 12.8334L6.97117 10.5503L3.12628 12.8334L4.10943 8.47116L0.75 5.51995L5.20252 5.10699L6.97117 1Z" fill="black"/>
<path fill-rule="evenodd" clip-rule="evenodd" d="M54.9712 1L55 1.06694L56.7398 5.10699L61.1923 5.51995L57.8329 8.47116L58.8161 12.8334L55 10.5675L54.9712 10.5503L51.1263 12.8334L52.1094 8.47116L48.75 5.51995L53.2025 5.10699L54.9712 1ZM55 9.28815L57.1814 10.5834L56.6162 8.07584L58.5474 6.37935L55.9879 6.14197L55 3.84804V9.28815Z" fill="black"/>
</svg>
