<svg width="360" height="100" viewBox="0 0 360 100" fill="none" xmlns="http://www.w3.org/2000/svg">
<path fill-rule="evenodd" clip-rule="evenodd" d="M9.64146 9.64072H90.3598V85.1952H94.1673V90.716H5.83398L5.834 94.1665H9.64146H90.3598H94.1673V90.3591V9.64072V5.83325H90.3598H9.64146H5.834V9.64072L5.83398 85.1952H9.64146V9.64072Z" fill="black"/>
<path fill-rule="evenodd" clip-rule="evenodd" d="M38.1512 41.0674C34.9867 37.9021 31.3049 34.2196 29.2359 32.1506L31.9282 29.4583C33.9974 31.5275 37.6793 35.2102 40.8438 38.3755L46.6552 44.1884C46.6553 44.1884 46.6557 44.1888 45.3094 45.5348C43.963 46.8807 43.963 46.8807 43.9629 46.8806L38.1512 41.0674Z" fill="black"/>
<path fill-rule="evenodd" clip-rule="evenodd" d="M61.8118 64.7272C58.6465 61.5627 54.9637 57.8807 52.8945 55.8115L55.5868 53.1192C57.6558 55.1883 61.3384 58.87 64.5038 62.0346L70.3167 67.8459C70.3168 67.846 70.3172 67.8464 68.9712 69.1928C67.6253 70.5391 67.6252 70.5391 67.6252 70.539L61.8118 64.7272Z" fill="black"/>
<path fill-rule="evenodd" clip-rule="evenodd" d="M67.3086 29.7739L70.0009 32.4662L32.2467 70.2204C32.2465 70.2206 32.2455 70.2216 30.8993 68.8755C29.5532 67.5293 29.5533 67.5292 29.5535 67.529L67.3086 29.7739Z" fill="black"/>
<path fill-rule="evenodd" clip-rule="evenodd" d="M292.487 48.0957L327.516 48.0957L327.516 51.9032L292.487 51.9032L292.487 48.0957Z" fill="black"/>
<path fill-rule="evenodd" clip-rule="evenodd" d="M269.641 9.64048H350.36V85.195H354.167V9.64048V5.83301H350.36H269.641H265.834V9.64048V85.195H269.641V9.64048ZM265.834 90.7158V94.1664H269.641H350.36H354.167V90.7158H265.834Z" fill="black"/>
<path fill-rule="evenodd" clip-rule="evenodd" d="M178.098 61.8027V26.0125H181.905V61.8027H178.098Z" fill="black"/>
<path fill-rule="evenodd" clip-rule="evenodd" d="M178.098 73.987V67.1335H181.905V73.987H178.098Z" fill="black"/>
<path fill-rule="evenodd" clip-rule="evenodd" d="M139.641 9.64072H220.36V85.1952H224.167V9.64072V5.83325H220.36H139.641H135.834V9.64072V85.1952H139.641V9.64072ZM135.834 90.7161V94.1666H139.641H220.36H224.167V90.7161H135.834Z" fill="black"/>
</svg>
