<svg width="630" height="31" viewBox="0 0 630 31" fill="none" xmlns="http://www.w3.org/2000/svg">
<rect x="2.75" y="4.75" width="25.5" height="19.5" stroke="black" stroke-width="1.5"/>
<rect x="2.5" y="11.3125" width="26" height="1.5" fill="black"/>
<path d="M5.5 20L9.5 20V21.5H5.5V20Z" fill="black"/>
<rect x="125.25" y="3.75" width="19.5" height="25.5" stroke="black" stroke-width="1.5"/>
<path d="M128 8.5L138 8.5V10H128V8.5Z" fill="black"/>
<path d="M128 12.5H142V14H128V12.5Z" fill="black"/>
<circle cx="254" cy="16" r="13.25" stroke="black" stroke-width="1.5"/>
<path d="M259.5 15.1459H258.573L259.444 12H258.137C257.856 13.0077 257.575 14.1382 257.294 15.1459H255.637L254.752 12H253.319C253.052 13.0077 252.729 14.1382 252.448 15.1459H250.804L249.975 12H248.669C248.95 12.9831 249.245 14.1505 249.526 15.1459H248.5V16.1782H249.807L250.916 20H252.237C252.616 18.7465 253.038 17.4194 253.403 16.1782H254.709L255.861 20H257.168C257.533 18.7465 257.913 17.4194 258.292 16.1782H259.5V15.1459ZM256.494 18.0092L255.946 16.1782H257.013L256.494 18.0092ZM251.591 17.9969L251.085 16.1782H252.153L251.591 17.9969ZM253.698 15.1459C253.81 14.7158 253.937 14.3594 254.049 13.9539C254.19 14.4823 254.274 14.679 254.4 15.1459H253.698Z" fill="black"/>
<path d="M370.124 14.2666L374.308 18.4509L379.887 12.8718" stroke="black" stroke-width="1.5"/>
<circle cx="375" cy="16" r="13.25" stroke="black" stroke-width="1.5"/>
<path d="M64.7727 23.2754H62.25V5.25H87.75V23.2754H71.3182H70.9375L70.7128 23.5827L68.0455 27.2296L65.3781 23.5827L65.1534 23.2754H64.7727Z" stroke="black" stroke-width="1.5"/>
<rect x="65" y="8.5" width="12" height="1.5" fill="black"/>
<path d="M65 12.5L84 12.5V14H65V12.5Z" fill="black"/>
<rect x="182.25" y="6.25" width="25.5" height="19.5" stroke="black" stroke-width="1.5"/>
<path d="M183 11H207.962V12.5H183V11Z" fill="black"/>
<path d="M185 8.25H188V9.75H185V8.25Z" fill="black"/>
<path d="M189.5 8.25H192.5V9.75H189.5V8.25Z" fill="black"/>
<path fill-rule="evenodd" clip-rule="evenodd" d="M309.566 4H326.5V28H309.566V23.5938H308.066V28V29.5H309.566H326.5H328V28V4V2.5H326.5H309.566H308.066V4V8.40625H309.566V4Z" fill="black"/>
<path d="M302 16H321.067" stroke="black" stroke-width="1.5"/>
<path d="M314.809 10.0938L320.937 16.06L314.809 22.0262" stroke="black" stroke-width="1.5"/>
<rect x="422.25" y="6.25" width="25.5" height="19.5" stroke="black" stroke-width="1.5"/>
<rect x="422" y="12.8125" width="26" height="1.5" fill="black"/>
<path d="M425 21.5L429 21.5V23H425V21.5Z" fill="black"/>
<circle cx="495" cy="16" r="15" fill="black"/>
<rect x="488" y="17" width="2" height="14" transform="rotate(-90 488 17)" fill="white"/>
<circle cx="555" cy="15" r="15" fill="black"/>
<rect x="548" y="16" width="2" height="14" transform="rotate(-90 548 16)" fill="white"/>
<rect x="554" y="8" width="2" height="14" fill="white"/>
<circle cx="615" cy="15" r="15" fill="black"/>
<rect x="608" y="14" width="2" height="14" transform="rotate(-90 608 14)" fill="white"/>
<rect x="608" y="18" width="2" height="14" transform="rotate(-90 608 18)" fill="white"/>
</svg>
