<svg width="270" height="120" viewBox="0 0 270 120" fill="none" xmlns="http://www.w3.org/2000/svg">
<path fill-rule="evenodd" clip-rule="evenodd" d="M15.375 34.6875H104.625V100.781H108.75V34.6875V30.5625H104.625H15.375H11.25V34.6875V100.781H15.375V34.6875ZM15.375 106.875H11.25V106.875V111H15.375H104.625H108.75V106.875V106.875H104.625V106.875H15.375V106.875Z" fill="black"/>
<path fill-rule="evenodd" clip-rule="evenodd" d="M44.1061 20.1773C41.138 24.1235 40.1328 28.9113 40.1328 32.0625L40.1328 43.875L36.0078 43.875L36.0078 32.0625C36.0078 28.2137 37.1964 22.5015 40.8095 17.6977C44.4976 12.7943 50.5978 9 60.0078 9C69.4179 9 75.5181 12.7943 79.2061 17.6977C82.8193 22.5015 84.0078 28.2137 84.0078 32.0625L84.0078 43.875L79.8828 43.875L79.8828 32.0625C79.8828 28.9113 78.8776 24.1235 75.9095 20.1773C73.0164 16.3307 68.1478 13.125 60.0078 13.125C51.8679 13.125 46.9993 16.3307 44.1061 20.1773Z" fill="black"/>
<path fill-rule="evenodd" clip-rule="evenodd" d="M78.9006 62.7795L58.5609 83.1191L42.9416 67.4998L45.8584 64.583L58.5609 77.2855L75.9838 59.8627L78.9006 62.7795Z" fill="black"/>
<path fill-rule="evenodd" clip-rule="evenodd" d="M230.087 52.3004L208.34 74.048L191.664 57.3727L194.581 54.4559L208.34 68.2144L227.171 49.3835L230.087 52.3004Z" fill="black"/>
<path fill-rule="evenodd" clip-rule="evenodd" d="M209.996 13.3127C184.211 13.3127 163.309 34.2155 163.309 60.0002C163.309 85.785 184.211 106.688 209.996 106.688C218.049 106.688 225.619 104.651 232.227 101.066L234.194 104.692C226.997 108.596 218.753 110.813 209.996 110.813C181.933 110.813 159.184 88.0632 159.184 60.0002C159.184 31.9373 181.933 9.18774 209.996 9.18774C238.059 9.18774 260.809 31.9373 260.809 60.0002C260.809 75.5092 253.858 89.3968 242.909 98.7139C242.431 99.1206 241.945 99.5186 241.452 99.9078L238.897 96.6698C239.35 96.3121 239.796 95.9462 240.236 95.5723C250.303 87.0055 256.684 74.2491 256.684 60.0002C256.684 34.2155 235.781 13.3127 209.996 13.3127Z" fill="black"/>
</svg>
