<svg width="32" height="32" viewBox="0 0 32 32" fill="none" xmlns="http://www.w3.org/2000/svg">
<path d="M16.0001 2.66602L19.5268 11.1452L28.6808 11.8791L21.7064 17.8535L23.8372 26.7862L16.0001 21.9993L8.16295 26.7862L10.2938 17.8535L3.31934 11.8791L12.4734 11.1452L16.0001 2.66602Z" fill="black"/>
<path fill-rule="evenodd" clip-rule="evenodd" d="M19.5268 11.1452L16.0001 2.66602L12.4734 11.1452L3.31934 11.8791L10.2938 17.8535L8.16295 26.7862L16.0001 21.9993L23.8372 26.7862L21.7064 17.8535L28.6808 11.8791L19.5268 11.1452ZM23.7278 13.4885L18.1493 13.0412L16.0001 7.87393L13.8509 13.0412L8.27236 13.4885L12.5226 17.1292L11.2241 22.5729L16.0001 19.6558L20.7761 22.5729L19.4776 17.1292L23.7278 13.4885Z" fill="black"/>
</svg>
