<svg width="50" height="50" viewBox="0 0 50 50" fill="none" xmlns="http://www.w3.org/2000/svg">
<path fill-rule="evenodd" clip-rule="evenodd" d="M6.83333 34.3343H43.1667V40.4593H45V34.3343V32.501H43.1667H6.83333H5V34.3343V40.4593H6.83333V34.3343ZM45 43.1676H43.1667H6.83333H5V45.001H6.83333H43.1667H45V43.1676Z" fill="black" stroke="black" stroke-width="0.6"/>
<path fill-rule="evenodd" clip-rule="evenodd" d="M38.1667 25.3333H11.8333V32.5H38.1667V25.3333ZM10 23.5V34.3333H40V23.5H10Z" fill="black" stroke="black" stroke-width="0.6"/>
<path fill-rule="evenodd" clip-rule="evenodd" d="M27.6394 8.86682L24.9993 3.33398L22.3591 8.86682L16.2812 9.668L20.7274 13.8887L19.6112 19.9166L24.9993 16.9923L30.3873 19.9166L29.2711 13.8887L33.7173 9.668L27.6394 8.86682ZM29.6686 10.9835L26.4133 10.5544L24.9993 7.59103L23.5852 10.5544L20.3299 10.9835L22.7113 13.2441L22.1135 16.4726L24.9993 14.9064L27.8851 16.4726L27.2872 13.2441L29.6686 10.9835Z" fill="black" stroke="black" stroke-width="0.4"/>
</svg>
