<svg width="50" height="50" viewBox="0 0 50 50" fill="none" xmlns="http://www.w3.org/2000/svg">
<path fill-rule="evenodd" clip-rule="evenodd" d="M11.4688 7.71851H42.2817V33.9974H45.0005V7.71851V5H42.2817H11.4688H8.75V7.71851V28.5598H11.4688V7.71851ZM20.3495 38.5319H18.1745L17.2807 41.2505H20.3495H42.2817H45.0005V38.5319L42.2817 38.5319H20.3495Z" fill="black"/>
<path d="M27.5 7.5L27.5 26.2502L25 26.2502L25 7.5L27.5 7.5Z" fill="black"/>
<path fill-rule="evenodd" clip-rule="evenodd" d="M12.2428 42.5475C16.2296 42.5475 19.4616 39.3155 19.4616 35.3287C19.4616 31.3418 16.2296 28.1099 12.2428 28.1099C8.2559 28.1099 5.02391 31.3418 5.02391 35.3287C5.02391 39.3155 8.2559 42.5475 12.2428 42.5475ZM12.2428 43.8214C16.9332 43.8214 20.7355 40.0191 20.7355 35.3287C20.7355 30.6383 16.9332 26.8359 12.2428 26.8359C7.55234 26.8359 3.75 30.6383 3.75 35.3287C3.75 40.0191 7.55234 43.8214 12.2428 43.8214Z" fill="black" stroke="black" stroke-width="0.7"/>
<path d="M16.7799 33.8776L16.9214 33.7362L16.7799 33.5948L16.1684 32.9832L16.027 32.8418L15.8856 32.9832L11.9381 36.9307L9.50954 34.5022L9.36812 34.3608L9.2267 34.5022L8.61517 35.1137L8.47375 35.2551L8.61517 35.3965L11.7967 38.578L11.9381 38.7195L12.0795 38.578L16.7799 33.8776Z" fill="black" stroke="black" stroke-width="0.4"/>
</svg>
