<svg width="32" height="32" viewBox="0 0 32 32" fill="none" xmlns="http://www.w3.org/2000/svg">
<path fill-rule="evenodd" clip-rule="evenodd" d="M20.4435 3.33325H4.57133H2.66667V5.23325V24.2333H4.57133V5.23325H20.4435V3.33325ZM26.1575 12.1999V24.2333H28.0621V12.1999H26.1575ZM2.66667 28.6666V26.7666H4.57133H26.1575H28.0621V28.6666H26.1575H4.57133H2.66667ZM7.17288 13.1499V18.8499H9.31433C9.90693 18.8499 10.4201 18.7358 10.8537 18.5074C11.2874 18.2791 11.6201 17.9511 11.8517 17.5233C12.0834 17.0956 12.1992 16.5878 12.1992 15.9999C12.1992 15.4094 12.0834 14.9003 11.8517 14.4726C11.6201 14.0448 11.2874 13.7181 10.8537 13.4924C10.4201 13.2641 9.90693 13.1499 9.31433 13.1499H7.17288ZM10.4295 17.3029C10.1709 17.5706 9.78302 17.7031 9.26584 17.7005H8.54664V14.2915H9.24968C9.77494 14.2941 10.1669 14.4293 10.4255 14.6969C10.6867 14.962 10.8174 15.3963 10.8174 15.9999C10.8174 16.6009 10.6881 17.0352 10.4295 17.3029ZM16.2074 13.1499H14.3811L12.3932 18.8499H13.8801L14.276 17.6296H16.3124L16.7084 18.8499H18.1872L16.2074 13.1499ZM15.3185 14.5592L15.9811 16.6061H14.6073L15.27 14.5592H15.3185ZM19.4478 13.1499L20.7085 15.5433H20.7569L22.0176 13.1499H23.5529L21.4196 16.9211V18.8499H20.0458V16.9211L17.9044 13.1499H19.4478ZM24.9795 3.33325H26.0668V10.9333H24.9795V3.33325ZM24.2295 6.59156H21.7133V7.67611H24.2295V6.59156ZM26.8172 6.59145H29.3333V7.676H26.8172V6.59145Z" fill="black"/>
</svg>
