<svg width="32" height="32" viewBox="0 0 32 32" fill="none" xmlns="http://www.w3.org/2000/svg">
<path d="M3.19922 26.4878V7.98779H28.6992V26.4878" stroke="black" stroke-width="1.5"/>
<path d="M2.5 28.9456H29.5" stroke="black" stroke-width="1.5"/>
<path fill-rule="evenodd" clip-rule="evenodd" d="M10.2246 8.23205C10.2246 7.44974 10.4974 6.24192 11.3109 5.24497C12.0988 4.27931 13.4474 3.44409 15.7505 3.44409V1.94409C13.0329 1.94409 11.2435 2.95486 10.1487 4.29668C9.07936 5.60722 8.72461 7.16838 8.72461 8.23205V11.001H10.2246V8.23205ZM21.2764 8.23205C21.2764 7.44974 21.0035 6.24192 20.1901 5.24497C19.4022 4.27931 18.0536 3.44409 15.7505 3.44409V1.94409C18.4681 1.94409 20.2575 2.95486 21.3523 4.29668C22.4216 5.60722 22.7764 7.16838 22.7764 8.23205V11.001H21.2764V8.23205Z" fill="black"/>
<path d="M20.5 15.05L11.5 24.05" stroke="black" stroke-width="1.5"/>
<circle cx="13" cy="16.5" r="1.75" stroke="black" stroke-width="1.5"/>
<circle cx="19" cy="22.55" r="1.75" stroke="black" stroke-width="1.5"/>
</svg>
