<svg width="32" height="32" viewBox="0 0 32 32" fill="none" xmlns="http://www.w3.org/2000/svg">
<path d="M4.79863 25.4263H4.07501V26.7127H4.81471C5.03984 26.7127 5.2328 26.6484 5.36144 26.5358C5.49009 26.4072 5.55441 26.2624 5.55441 26.0856V26.0695C5.55441 25.8604 5.49009 25.6996 5.34536 25.5871C5.21672 25.4745 5.02376 25.4263 4.79863 25.4263Z" fill="url(#paint0_linear_24261_52025)"/>
<path d="M0 0V20.9206H21.9497V21.4673H0V32H32V0H0ZM6.57688 14.3116H5.16181V17.6241H4.55075V14.3116H3.13568V13.7648H6.57688V14.3116ZM11.2563 17.6241H10.6452V15.9357H8.42613V17.6241H7.81507V13.7487H8.42613V15.3729H10.6452V13.7487H11.2563V17.6241ZM15.7427 17.6241H12.7678V13.7487H15.6623V14.3116H13.3789V15.3889H15.196V15.9357H13.3789V17.0774H15.7427V17.6241ZM6.4804 26.0503C6.4804 26.2915 6.43216 26.5166 6.35176 26.6935C6.27136 26.8703 6.14271 27.0312 5.98191 27.1598C5.82111 27.2884 5.64422 27.3849 5.43518 27.4332C5.22613 27.4975 5.00101 27.5296 4.77588 27.5296H4.06834V28.8H3.13568V24.5869H4.85628C5.11357 24.5869 5.33869 24.6191 5.53166 24.6995C5.72462 24.7638 5.90151 24.8764 6.03015 25.005C6.17487 25.1337 6.27136 25.2945 6.35176 25.4714C6.44824 25.6322 6.4804 25.8251 6.4804 26.0503ZM10.4844 28.8H7.46131V24.5869H8.39397V27.9638H10.5005V28.8H10.4844ZM15.0834 26.9668C15.0834 27.2884 15.0352 27.5618 14.9548 27.803C14.8744 28.0442 14.7457 28.2372 14.5849 28.398C14.4241 28.5588 14.2312 28.6714 14.006 28.7518C13.7809 28.8322 13.5236 28.8643 13.2342 28.8643C12.6714 28.8643 12.2211 28.7035 11.8995 28.398C11.5779 28.0925 11.4171 27.6261 11.4171 26.999V24.5869H12.3497V26.9668C12.3497 27.3045 12.4302 27.5779 12.591 27.7387C12.7518 27.9156 12.9769 27.996 13.2663 27.996C13.5558 27.996 13.7809 27.9156 13.9417 27.7387C14.1025 27.5779 14.1829 27.3206 14.1829 26.9829V24.5709H15.1156V26.9668H15.0834ZM19.3769 27.5457C19.3769 27.7548 19.3447 27.9317 19.2643 28.1085C19.1839 28.2693 19.0874 28.4141 18.9427 28.5106C18.8141 28.6231 18.6533 28.7035 18.4603 28.7678C18.2673 28.8322 18.0583 28.8482 17.8332 28.8482C17.5116 28.8482 17.1899 28.8 16.8844 28.6874C16.5789 28.5749 16.2894 28.4141 16.0482 28.1729L16.595 27.5136C16.7879 27.6744 16.9809 27.7869 17.1899 27.8834C17.399 27.9799 17.608 28.0281 17.8492 28.0281C18.0422 28.0281 18.1869 27.996 18.2995 27.9156C18.4121 27.8513 18.4603 27.7548 18.4603 27.6261V27.6101C18.4603 27.5457 18.4442 27.4975 18.4281 27.4492C18.4121 27.401 18.3638 27.3528 18.2995 27.3206C18.2352 27.2884 18.1548 27.2402 18.0422 27.208C17.9296 27.1759 17.7849 27.1276 17.608 27.0794C17.399 27.0312 17.206 26.9668 17.0291 26.9025C16.8523 26.8382 16.7075 26.7578 16.595 26.6613C16.4663 26.5648 16.3859 26.4523 16.3216 26.3075C16.2573 26.1628 16.2251 25.9859 16.2251 25.7769V25.7608C16.2251 25.5678 16.2573 25.391 16.3377 25.2462C16.402 25.0854 16.5146 24.9568 16.6432 24.8442C16.7719 24.7317 16.9327 24.6513 17.1095 24.5869C17.2864 24.5226 17.4794 24.4905 17.7045 24.4905C18.01 24.4905 18.2995 24.5387 18.5568 24.6352C18.8141 24.7317 19.0553 24.8603 19.2643 25.0372L18.7819 25.7286C18.5889 25.6 18.4121 25.5035 18.2352 25.4231C18.0583 25.3427 17.8814 25.3106 17.6884 25.3106C17.5116 25.3106 17.3668 25.3427 17.2864 25.4231C17.1899 25.4874 17.1578 25.5839 17.1578 25.6804V25.6965C17.1578 25.7608 17.1739 25.8251 17.1899 25.8734C17.2221 25.9216 17.2704 25.9698 17.3347 26.002C17.399 26.0502 17.4955 26.0824 17.608 26.1146C17.7206 26.1467 17.8814 26.195 18.0583 26.2432C18.2673 26.2915 18.4603 26.3558 18.6211 26.4362C18.7819 26.5005 18.9266 26.597 19.0392 26.6935C19.1518 26.7899 19.2482 26.9025 19.2965 27.0472C19.3447 27.192 19.3769 27.3528 19.3769 27.5457ZM26.2915 5.22613H25.1176V4.77588H26.2915V5.22613ZM27.2241 6.86633H26.7739V3.13568H27.2241V6.86633ZM28.8643 5.22613H27.6905V4.77588H28.8643V5.22613Z" fill="url(#paint1_linear_24261_52025)"/>
<defs>
<linearGradient id="paint0_linear_24261_52025" x1="4.81471" y1="25.4263" x2="4.81471" y2="26.7127" gradientUnits="userSpaceOnUse">
<stop stop-color="#FF8968"/>
<stop offset="1" stop-color="#6469DC"/>
</linearGradient>
<linearGradient id="paint1_linear_24261_52025" x1="0" y1="0" x2="35" y2="28" gradientUnits="userSpaceOnUse">
<stop stop-color="#FF6868"/>
<stop offset="1" stop-color="#6E89FE"/>
</linearGradient>
</defs>
</svg>
