<svg width="50" height="50" viewBox="0 0 50 50" fill="none" xmlns="http://www.w3.org/2000/svg">
<path d="M14.502 15.4844H17.3326V34.6175H14.502L14.502 15.4844Z" fill="black"/>
<path fill-rule="evenodd" clip-rule="evenodd" d="M11.6657 7.16406L15.8324 9.55571L19.999 7.16406L44.332 7.16406L47.1654 7.16406V9.9974L47.1654 35.8638H44.332L44.332 9.9974L20.7544 9.9974L17.2428 12.013L15.8324 12.8226L14.4219 12.013L10.9103 9.9974L5.66537 9.9974L5.66537 39.9974H10.9103L14.4219 37.9818L15.8324 37.1722L17.2428 37.9818L20.7544 39.9974H38.0068V40.0232H47.1654V42.8307H44.332H19.999L15.8324 40.4391L11.6657 42.8307H5.66537H2.83203L2.83203 39.9974L2.83203 9.9974L2.83203 7.16406L5.66537 7.16406L11.6657 7.16406Z" fill="#C4C4C4"/>
<path fill-rule="evenodd" clip-rule="evenodd" d="M15.8324 12.8226L10.9103 9.9974L5.66537 9.9974L5.66537 39.9974H10.9103L15.8324 37.1722L20.7544 39.9974H38.0068V40.0232H47.1654V42.8307H19.999L15.8324 40.4391L11.6657 42.8307H2.83203V7.16406H11.6657L15.8324 9.55571L19.999 7.16406H47.1654L47.1654 35.8638H44.332L44.332 9.9974L20.7544 9.9974L15.8324 12.8226Z" fill="black"/>
<path d="M28.75 19.9961L23.75 24.9961M23.75 24.9961L28.75 29.9961M23.75 24.9961H40" stroke="black" stroke-width="2.3"/>
</svg>
