<svg width="32" height="32" viewBox="0 0 32 32" fill="none" xmlns="http://www.w3.org/2000/svg">
<path d="M6.79883 3.19995H25.7038" stroke="black" stroke-width="1.5"/>
<path d="M7.57812 5.75781V23.5507H24.815V5.75781" stroke="black" stroke-width="1.5"/>
<path d="M16 23.7732V28.8331" stroke="black" stroke-width="1.5"/>
<path d="M9.38672 28.8L22.7314 28.8" stroke="black" stroke-width="1.5"/>
<path d="M24.8066 10.4004H29.1863V12.6997L24.8153 18.7688" stroke="black" stroke-width="1.5"/>
<path d="M7.57812 10.4004H3.19846V12.6997L7.56944 18.7688" stroke="black" stroke-width="1.5"/>
<path d="M16.1284 10.2822L16.8451 12.1314L16.9733 12.4621L17.3274 12.4818L19.3076 12.592L17.7703 13.8451L17.4954 14.0691L17.5861 14.412L18.0932 16.3293L16.4264 15.2546L16.1284 15.0624L15.8303 15.2546L14.1635 16.3293L14.6707 14.412L14.7613 14.0691L14.4864 13.8451L12.9492 12.592L14.9294 12.4818L15.2835 12.4621L15.4117 12.1314L16.1284 10.2822Z" stroke="black" stroke-width="1.1"/>
</svg>
