<svg width="50" height="50" viewBox="0 0 50 50" fill="none" xmlns="http://www.w3.org/2000/svg">
<path fill-rule="evenodd" clip-rule="evenodd" d="M33.3719 21.786L24.3104 30.8475L17.3623 23.8994L18.5776 22.6841L24.3104 28.4168L32.1566 20.5706L33.3719 21.786Z" fill="black" stroke="black" stroke-width="0.8"/>
<path fill-rule="evenodd" clip-rule="evenodd" d="M25 5.54102C14.2563 5.54102 5.54688 14.2505 5.54688 24.9941C5.54688 35.7378 14.2563 44.4473 25 44.4473C28.3552 44.4473 31.5096 43.5986 34.2628 42.1048L35.0824 43.6156C32.0839 45.2424 28.6485 46.166 25 46.166C13.3071 46.166 3.82812 36.687 3.82812 24.9941C3.82812 13.3012 13.3071 3.82227 25 3.82227C36.6929 3.82227 46.1719 13.3012 46.1719 24.9941C46.1719 31.4562 43.2758 37.2427 38.7138 41.1248C38.5146 41.2943 38.3123 41.4601 38.1068 41.6223L37.042 40.2731C37.2308 40.1241 37.4168 39.9716 37.5999 39.8159C41.7945 36.2464 44.4531 30.9312 44.4531 24.9941C44.4531 14.2505 35.7437 5.54102 25 5.54102Z" fill="black" stroke="black" stroke-width="0.8"/>
</svg>
