<svg width="50" height="50" viewBox="0 0 50 50" fill="none" xmlns="http://www.w3.org/2000/svg">
<path d="M31.4109 32.2933V15.698H41.8548L45.2665 22.2888V32.2933V32.4933H45.4665H47.1852H47.3852V32.2933V21.8216V21.7729L47.3628 21.7296L43.1998 13.6874L43.1438 13.5793H43.0221H31.2109H29.4922H29.2922V13.7793V15.498V32.2933V32.4933H29.4922H31.2109H31.4109V32.2933ZM39.8438 36.3251H39.6438V36.5251V38.2214V38.4214H39.8438H41.5625H45.4665H47.1852H47.3852V38.2214V36.5251V36.3251H47.1852H39.8438Z" fill="black" stroke="black" stroke-width="0.4"/>
<path d="M4.64844 32.4919H4.84844V32.2919V9.2625H29.3198V32.2919V32.4919H29.5198H31.2385H31.4385V32.2919V9.0625V7.34375V7.14375H31.2385H29.5198H4.64844H2.92969H2.72969V7.34375V9.0625V32.2919V32.4919H2.92969H4.64844ZM9.0249 36.5644L9.07531 36.3234H8.82914H2.92969H2.72969V36.5234V38.2261V38.4261H2.92969H4.64844H8.75983H8.98632L8.9583 38.2014C8.93304 37.9988 8.92002 37.7923 8.92002 37.5827C8.92002 37.2335 8.95618 36.8929 9.0249 36.5644ZM18.905 36.3234H18.6588L18.7093 36.5644C18.778 36.8929 18.8141 37.2335 18.8141 37.5827C18.8141 37.7923 18.8011 37.9988 18.7759 38.2014L18.7478 38.4261H18.9743H29.5198H31.2385H31.4385V38.2261V36.5234V36.3234H31.2385H18.905Z" fill="black" stroke="black" stroke-width="0.4"/>
<path d="M17.0961 37.5787C17.0961 39.3616 15.6507 40.807 13.8678 40.807C12.0848 40.807 10.6395 39.3616 10.6395 37.5787C10.6395 35.7958 12.0848 34.3504 13.8678 34.3504C15.6507 34.3504 17.0961 35.7958 17.0961 37.5787ZM13.8678 42.9258C16.8209 42.9258 19.2148 40.5318 19.2148 37.5787C19.2148 34.6256 16.8209 32.2316 13.8678 32.2316C10.9147 32.2316 8.5207 34.6256 8.5207 37.5787C8.5207 40.5318 10.9147 42.9258 13.8678 42.9258Z" fill="black" stroke="black" stroke-width="0.4"/>
<path d="M38.9711 37.5787C38.9711 39.3616 37.5257 40.807 35.7428 40.807C33.9598 40.807 32.5145 39.3616 32.5145 37.5787C32.5145 35.7958 33.9598 34.3504 35.7428 34.3504C37.5257 34.3504 38.9711 35.7958 38.9711 37.5787ZM35.7428 42.9258C38.6959 42.9258 41.0898 40.5318 41.0898 37.5787C41.0898 34.6256 38.6959 32.2316 35.7428 32.2316C32.7897 32.2316 30.3957 34.6256 30.3957 37.5787C30.3957 40.5318 32.7897 42.9258 35.7428 42.9258Z" fill="black" stroke="black" stroke-width="0.4"/>
</svg>
