<svg width="50" height="50" viewBox="0 0 50 50" fill="none" xmlns="http://www.w3.org/2000/svg">
<path fill-rule="evenodd" clip-rule="evenodd" d="M6.83529 34.3333H43.1686V40.4583H45.002V34.3333V32.5H43.1686H6.83529H5.00195V34.3333V40.4583H6.83529V34.3333ZM45.002 43.1667H43.1686H6.83529H5.00195V45H6.83529H43.1686H45.002V43.1667Z" fill="black" stroke="black" stroke-width="0.6"/>
<path fill-rule="evenodd" clip-rule="evenodd" d="M38.1686 25.3333H11.8353V32.5H38.1686V25.3333ZM10.002 23.5V34.3333H40.002V23.5H10.002Z" fill="black" stroke="black" stroke-width="0.6"/>
<path fill-rule="evenodd" clip-rule="evenodd" d="M27.6433 8.86682L25.0032 3.33398L22.363 8.86682L16.2852 9.668L20.7313 13.8887L19.6151 19.9166L25.0032 16.9923L30.3912 19.9166L29.275 13.8887L33.7212 9.668L27.6433 8.86682ZM29.6725 10.9835L26.4172 10.5544L25.0032 7.59103L23.5891 10.5544L20.3338 10.9835L22.7152 13.2441L22.1174 16.4726L25.0032 14.9064L27.889 16.4726L27.2911 13.2441L29.6725 10.9835Z" fill="black" stroke="black" stroke-width="0.4"/>
</svg>
