<svg width="50" height="50" viewBox="0 0 50 50" fill="none" xmlns="http://www.w3.org/2000/svg">
<path fill-rule="evenodd" clip-rule="evenodd" d="M25.5859 6.1766C14.8693 6.1766 6.16927 14.9051 6.16927 25.6569C6.16927 36.4086 14.8693 45.1371 25.5859 45.1371C28.9359 45.1371 32.0859 44.2843 34.8359 42.7961L36.1859 45.2876C33.0359 47.0099 29.4193 47.9797 25.5859 47.9797C13.3026 47.9797 3.33594 37.9804 3.33594 25.6569C3.33594 13.3333 13.3026 3.33398 25.5859 3.33398C37.8693 3.33398 47.8359 13.3333 47.8359 25.6569C47.8359 32.4624 44.7859 38.5657 40.0026 42.6624C39.7859 42.8463 39.5859 43.0135 39.3693 43.1807L37.6193 40.9568C37.8026 40.8063 37.9859 40.6558 38.1693 40.5053C42.3526 36.927 45.0026 31.6096 45.0026 25.6569C45.0026 14.9051 36.3026 6.1766 25.5859 6.1766Z" fill="black"/>
<path d="M21.3033 18.5684L25.5033 28.8687H25.6866L29.8866 18.5684H33.0033V32.748H30.5699V22.9828H30.4366L26.5033 32.6979H24.6866L20.7533 22.9326H20.6366V32.7313H18.1699V18.5684H21.3033Z" fill="black"/>
</svg>
