<svg width="24" height="24" viewBox="0 0 24 24" fill="none" xmlns="http://www.w3.org/2000/svg">
<path d="M21.75 21.332H2.25V22.5017H21.75V21.332Z" fill="black"/>
<path d="M16.864 6.45322C16.7977 5.86111 16.5843 4.90351 15.9147 4.01901C15.304 3.21491 14.1266 2.25 12 2.25C9.8734 2.25 8.69604 3.21491 8.08528 4.01901C7.41566 4.90351 7.20226 5.86111 7.13604 6.45322H2.25V20.5029H3.42736V7.62281H7.1066V9.41374H8.28396V7.62281H15.716V9.41374H16.8934V7.62281H20.5726V20.5102H21.75V6.45322H16.864ZM15.6792 6.45322H8.32076C8.4017 5.91228 8.60774 5.26901 9.02717 4.72076C9.68208 3.85819 10.6828 3.41959 12 3.41959C13.3172 3.41959 14.3179 3.85819 14.9728 4.72076C15.3923 5.26901 15.5983 5.91228 15.6792 6.45322Z" fill="black"/>
</svg>
