<svg width="48" height="48" viewBox="0 0 48 48" fill="none" xmlns="http://www.w3.org/2000/svg">
<path fill-rule="evenodd" clip-rule="evenodd" d="M41.6 24C41.6 14.2798 33.7202 6.39999 24 6.39999C14.2798 6.39999 6.4 14.2798 6.4 24C6.4 33.7202 14.2798 41.6 24 41.6C33.7202 41.6 41.6 33.7202 41.6 24ZM44 24C44 12.9543 35.0457 4 24 4C12.9543 4 4 12.9543 4 24C4 35.0457 12.9543 44 24 44C35.0457 44 44 35.0457 44 24Z" fill="black"/>
<path d="M23.9062 31.8887C27.5104 31.8887 29.7708 30.0553 29.7708 27.1283V27.1178C29.7708 24.847 28.4479 23.5762 25.2812 22.9095L23.6667 22.5658C21.7917 22.1699 21.0312 21.5033 21.0312 20.4408V20.4303C21.0312 19.1491 22.2187 18.3678 23.8854 18.3678C25.6042 18.3574 26.7187 19.1908 26.9062 20.3574L26.9271 20.4824H29.5L29.4896 20.347C29.3021 17.9303 27.2292 16.1074 23.8958 16.1074C20.6458 16.1074 18.3333 17.9199 18.3333 20.6074V20.6178C18.3333 22.8574 19.6667 24.2949 22.7396 24.9408L24.3542 25.2741C26.2917 25.6908 27.0729 26.347 27.0729 27.4303V27.4408C27.0729 28.7324 25.8021 29.6283 23.9896 29.6283C22.0833 29.6283 20.7396 28.7949 20.6146 27.5345L20.6042 27.4303H18L18.0104 27.5762C18.1979 30.1699 20.4167 31.8887 23.9062 31.8887Z" fill="black"/>
</svg>
