<svg width="80" height="80" viewBox="0 0 80 80" fill="none" xmlns="http://www.w3.org/2000/svg">
<path d="M61.875 32.5H70.625V8.75H61.875" stroke="black" stroke-width="2.5"/>
<path d="M16.875 22.5H51.875" stroke="black" stroke-width="2.5"/>
<path d="M16.875 31.25H51.875" stroke="black" stroke-width="2.5"/>
<path d="M16.875 40H34.375" stroke="black" stroke-width="2.5"/>
<mask id="path-5-inside-1_359_41564" fill="white">
<path fill-rule="evenodd" clip-rule="evenodd" d="M7.5 7.5H8.75H60.625H61.875V8.75V64.9354L59.375 63.9392V10H10V68.1174L20.1399 63.848L20.5916 63.6578L21.0522 63.8253L34.3485 68.6603L47.6517 63.2181L48.1331 63.0211L48.612 63.2238L61.875 68.835V71.5496L48.1169 65.7289L34.8483 71.1569L34.4015 71.3397L33.9478 71.1747L20.6584 66.3422L9.23507 71.152L7.5 71.8826V70V8.75V7.5Z"/>
</mask>
<path d="M7.5 7.5V5H5V7.5H7.5ZM61.875 7.5H64.375V5H61.875V7.5ZM61.875 64.9354L60.9495 67.2578L64.375 68.6229V64.9354H61.875ZM59.375 63.9392H56.875V65.6341L58.4495 66.2615L59.375 63.9392ZM59.375 10H61.875V7.5H59.375V10ZM10 10V7.5H7.5V10H10ZM10 68.1174H7.5V71.8826L10.9701 70.4215L10 68.1174ZM20.1399 63.848L21.1101 66.152L21.1101 66.152L20.1399 63.848ZM20.5916 63.6578L21.446 61.3083L20.5248 60.9733L19.6215 61.3537L20.5916 63.6578ZM21.0522 63.8253L21.9065 61.4758H21.9065L21.0522 63.8253ZM34.3485 68.6603L33.4942 71.0098L34.4015 71.3397L35.2951 70.9742L34.3485 68.6603ZM47.6517 63.2181L48.5983 65.5319H48.5983L47.6517 63.2181ZM48.1331 63.0211L49.1072 60.7187L48.1492 60.3134L47.1865 60.7073L48.1331 63.0211ZM48.612 63.2238L47.6379 65.5262H47.638L48.612 63.2238ZM61.875 68.835H64.375V67.1782L62.8491 66.5326L61.875 68.835ZM61.875 71.5496L60.9009 73.852L64.375 75.3218V71.5496H61.875ZM48.1169 65.7289L49.091 63.4264L48.1331 63.0211L47.1703 63.415L48.1169 65.7289ZM34.8483 71.1569L33.9017 68.8431H33.9017L34.8483 71.1569ZM34.4015 71.3397L33.5471 73.6892L34.4545 74.0191L35.3481 73.6536L34.4015 71.3397ZM33.9478 71.1747L33.0935 73.5242H33.0935L33.9478 71.1747ZM20.6584 66.3422L21.5127 63.9927L20.5916 63.6578L19.6882 64.0381L20.6584 66.3422ZM9.23507 71.152L8.26493 68.848H8.26493L9.23507 71.152ZM7.5 71.8826H5V75.6478L8.47014 74.1867L7.5 71.8826ZM8.75 5H7.5V10H8.75V5ZM60.625 5H8.75V10H60.625V5ZM61.875 5H60.625V10H61.875V5ZM64.375 8.75V7.5H59.375V8.75H64.375ZM64.375 64.9354V8.75H59.375V64.9354H64.375ZM58.4495 66.2615L60.9495 67.2578L62.8005 62.613L60.3005 61.6168L58.4495 66.2615ZM56.875 10V63.9392H61.875V10H56.875ZM10 12.5H59.375V7.5H10V12.5ZM12.5 68.1174V10H7.5V68.1174H12.5ZM19.1698 61.5439L9.02986 65.8133L10.9701 70.4215L21.1101 66.152L19.1698 61.5439ZM19.6215 61.3537L19.1698 61.5439L21.1101 66.152L21.5618 65.9619L19.6215 61.3537ZM21.9065 61.4758L21.446 61.3083L19.7373 66.0073L20.1978 66.1747L21.9065 61.4758ZM35.2029 66.3108L21.9065 61.4758L20.1978 66.1747L33.4942 71.0098L35.2029 66.3108ZM46.7051 60.9042L33.4019 66.3464L35.2951 70.9742L48.5983 65.5319L46.7051 60.9042ZM47.1865 60.7073L46.7051 60.9042L48.5983 65.5319L49.0797 65.335L47.1865 60.7073ZM49.5862 60.9214L49.1072 60.7187L47.159 65.3236L47.6379 65.5262L49.5862 60.9214ZM62.8491 66.5326L49.5861 60.9214L47.638 65.5262L60.9009 71.1375L62.8491 66.5326ZM64.375 71.5496V68.835H59.375V71.5496H64.375ZM47.1428 68.0313L60.9009 73.852L62.8491 69.2472L49.091 63.4264L47.1428 68.0313ZM35.7949 73.4708L49.0635 68.0427L47.1703 63.415L33.9017 68.8431L35.7949 73.4708ZM35.3481 73.6536L35.7949 73.4708L33.9017 68.8431L33.4549 69.0258L35.3481 73.6536ZM33.0935 73.5242L33.5471 73.6892L35.2558 68.9902L34.8022 68.8253L33.0935 73.5242ZM19.804 68.6917L33.0935 73.5242L34.8022 68.8253L21.5127 63.9927L19.804 68.6917ZM10.2052 73.4561L21.6285 68.6463L19.6882 64.0381L8.26493 68.848L10.2052 73.4561ZM8.47014 74.1867L10.2052 73.4561L8.26493 68.848L6.52986 69.5785L8.47014 74.1867ZM5 70V71.8826H10V70H5ZM5 8.75V70H10V8.75H5ZM5 7.5V8.75H10V7.5H5Z" fill="black" mask="url(#path-5-inside-1_359_41564)"/>
</svg>
