<svg width="32" height="32" viewBox="0 0 32 32" fill="none" xmlns="http://www.w3.org/2000/svg">
<path fill-rule="evenodd" clip-rule="evenodd" d="M3.25 4.58317L8.8638 4.58317L12 6.3542L15.1362 4.58317L29.4167 4.58317L29.4167 22.9018L27.9167 22.9018L27.9167 6.08317L15.5305 6.08317L12 8.07684L8.46953 6.08317L4.75 6.08317L4.75 25.9165L8.46953 25.9165L12 23.9228L15.5305 25.9165L28.6667 25.9165L28.6667 27.4165L15.1362 27.4165L12 25.6455L8.8638 27.4165L3.25 27.4165L3.25 4.58317ZM11.25 21.1717L11.25 10.1818L12.75 10.1818L12.75 21.1717L11.25 21.1717ZM17.4481 14.8169C17.4356 14.7949 17.4238 14.772 17.4128 14.7483C17.3445 14.6017 17.3046 14.4217 17.2931 14.2081L17.2923 14.1933C17.2905 14.1545 17.2895 14.1145 17.2895 14.0735C17.2895 14.0352 17.2904 13.9979 17.2922 13.9615C17.3042 13.7191 17.3562 13.5188 17.4481 13.3605C17.466 13.3301 17.485 13.3022 17.5052 13.2767C17.6081 13.1471 17.7406 13.0823 17.9026 13.0823C18.087 13.0823 18.2312 13.1494 18.3352 13.2834C18.3524 13.3056 18.3685 13.3296 18.3835 13.3554C18.4008 13.3842 18.4167 13.4146 18.4312 13.4465C18.495 13.5868 18.5325 13.7578 18.5438 13.9596L18.5446 13.976C18.5465 14.0141 18.5474 14.0534 18.5474 14.0937C18.5474 14.1269 18.5467 14.1593 18.5454 14.191L18.5442 14.217C18.5328 14.4277 18.4916 14.6044 18.4203 14.747C18.4073 14.7731 18.3933 14.7981 18.3783 14.8219C18.3647 14.8441 18.3504 14.8649 18.3353 14.8844L18.3311 14.8898C18.2251 15.0237 18.0823 15.0921 17.9026 15.095C17.7377 15.0921 17.6034 15.0245 17.4997 14.8923C17.4816 14.8691 17.4644 14.844 17.4481 14.8169ZM18.9543 12.2631C19.1511 12.3825 19.3152 12.534 19.4466 12.7176L19.457 12.7322C19.4802 12.7654 19.5025 12.7997 19.5236 12.835C19.5545 12.8866 19.5832 12.9404 19.6097 12.9964C19.7497 13.2931 19.8251 13.6367 19.8357 14.0271C19.8363 14.0492 19.8367 14.0714 19.8369 14.0937C19.8334 14.5118 19.7559 14.8775 19.6044 15.1911C19.57 15.2638 19.5318 15.3328 19.4897 15.3979C19.4736 15.4228 19.457 15.4471 19.4398 15.4708L19.4293 15.4851C19.299 15.6608 19.1372 15.8055 18.9438 15.9193C18.7578 16.0299 18.5478 16.105 18.3137 16.1444C18.1893 16.1653 18.0581 16.1762 17.9202 16.1771L17.9026 16.1772L17.8838 16.1771C17.4902 16.1744 17.1529 16.0868 16.872 15.9142C16.6765 15.7941 16.5131 15.6415 16.3821 15.4564L16.3662 15.4336C16.355 15.4173 16.3441 15.4007 16.3334 15.3839C16.2927 15.3198 16.2556 15.2522 16.222 15.1809C16.074 14.8674 16 14.505 16 14.0937C16 13.6791 16.0758 13.315 16.2273 13.0014C16.2719 12.908 16.3224 12.8207 16.3787 12.7396L16.3832 12.7332C16.5171 12.5421 16.6836 12.3854 16.8826 12.2631C17.168 12.0878 17.508 12.0002 17.9026 12.0002C18.3148 12.0002 18.6654 12.0878 18.9543 12.2631ZM18.7271 19.6664L17.3213 19.6664L22.5851 12.344L23.9909 12.344L18.7271 19.6664ZM21.507 17.9167C21.5035 17.5021 21.5775 17.138 21.729 16.8244C21.7517 16.777 21.7759 16.7311 21.8016 16.6867C21.824 16.6481 21.8476 16.6106 21.8724 16.5743L21.8824 16.5598C22.0167 16.367 22.184 16.2091 22.3843 16.0861C22.5695 15.9738 22.7764 15.8974 23.005 15.8571C23.1279 15.8354 23.257 15.8241 23.3925 15.8232L23.4096 15.8232L23.4283 15.8232C23.8324 15.8258 24.1749 15.9135 24.456 16.0861C24.6559 16.2074 24.822 16.3617 24.9544 16.5491C24.9919 16.6022 25.0267 16.6579 25.0588 16.7163C25.0772 16.7498 25.0947 16.7842 25.1114 16.8194C25.2593 17.1329 25.3333 17.4987 25.3333 17.9167C25.3333 18.3348 25.2576 18.7005 25.1061 19.0141C25.087 19.0545 25.0667 19.0938 25.0452 19.132C25.0131 19.1891 24.9783 19.2435 24.9409 19.2953L24.9347 19.3038C24.8047 19.4815 24.6434 19.6276 24.4507 19.7423C24.166 19.9117 23.8248 19.9977 23.4271 20.0001L23.4096 20.0002L23.3904 20.0001C22.9935 19.9974 22.6546 19.9097 22.3737 19.7372C22.1883 19.6233 22.0318 19.4802 21.9044 19.3079L21.8939 19.2936C21.8771 19.2704 21.8609 19.2467 21.8451 19.2224C21.8005 19.1538 21.76 19.0809 21.7237 19.004C21.5786 18.6966 21.5063 18.3423 21.5069 17.941L21.507 17.9167ZM22.9498 17.1885C22.9669 17.1594 22.9852 17.1327 23.0045 17.1082L23.0088 17.1028C23.112 16.9751 23.2455 16.9127 23.4096 16.9155C23.5894 16.9126 23.731 16.9735 23.8344 17.0982L23.8387 17.1035C23.8572 17.1264 23.8745 17.1513 23.8905 17.1784C23.9107 17.2125 23.929 17.2491 23.9455 17.2882C24.0023 17.4229 24.0369 17.5869 24.0493 17.7802L24.0495 17.7823C24.0522 17.8257 24.0538 17.8705 24.0544 17.9167C24.0538 17.9625 24.0522 18.0068 24.0494 18.0497C24.0365 18.2447 23.9999 18.4102 23.9396 18.546C23.9232 18.5828 23.9051 18.6175 23.8852 18.65C23.8708 18.6731 23.8555 18.6948 23.8394 18.7149C23.7333 18.8474 23.59 18.9151 23.4096 18.918C23.2451 18.9151 23.1096 18.8466 23.003 18.7127C22.9863 18.6917 22.9704 18.6691 22.9551 18.6449C22.941 18.6219 22.9278 18.5978 22.9155 18.5727C22.8469 18.4326 22.8054 18.2586 22.7912 18.0525C22.7883 18.0087 22.7865 17.9635 22.786 17.9167C22.7865 17.8677 22.7885 17.8202 22.7918 17.7742L22.7921 17.7699C22.8061 17.581 22.8432 17.418 22.9034 17.281C22.9176 17.2487 22.933 17.2179 22.9498 17.1885Z" fill="black"/>
</svg>
