<svg width="64" height="64" viewBox="0 0 64 64" fill="none" xmlns="http://www.w3.org/2000/svg">
<path d="M10.8672 55.8236V8.11328H51.4062V55.8236H10.8672Z" stroke="black" stroke-width="2" stroke-miterlimit="10"/>
<path d="M10.8672 55.8909V20.3945H51.4062V55.8909H10.8672Z" stroke="black" stroke-width="2" stroke-miterlimit="10"/>
<path d="M18.2144 16.8937C19.4417 16.8937 20.4366 15.8987 20.4366 14.6714C20.4366 13.4441 19.4417 12.4492 18.2144 12.4492C16.9871 12.4492 15.9922 13.4441 15.9922 14.6714C15.9922 15.8987 16.9871 16.8937 18.2144 16.8937Z" stroke="black" stroke-width="2" stroke-miterlimit="10"/>
<path d="M45.3828 14.7148H47.3508" stroke="black" stroke-width="2" stroke-miterlimit="10"/>
<path d="M41.4453 14.7148H43.4133" stroke="black" stroke-width="2" stroke-miterlimit="10"/>
<path d="M31.1628 44.1811C34.8685 44.1811 37.8725 41.177 37.8725 37.4714C37.8725 33.7657 34.8685 30.7617 31.1628 30.7617C27.4571 30.7617 24.4531 33.7657 24.4531 37.4714C24.4531 41.177 27.4571 44.1811 31.1628 44.1811Z" stroke="black" stroke-width="2" stroke-miterlimit="10"/>
<path d="M18.0938 41.0683H20.4843C22.0292 45.5667 26.2573 48.8115 31.2497 48.8115C37.5431 48.8115 42.6494 43.6657 42.6494 37.3237C42.6494 30.9817 37.5431 25.8359 31.2497 25.8359C26.5256 25.8359 22.4764 28.7284 20.7445 32.8499C20.6469 33.0875 20.5656 33.3333 20.4843 33.5709H18.0938" stroke="black" stroke-width="2" stroke-miterlimit="10"/>
<rect x="8.88281" y="52.3008" width="44.507" height="2.58065" fill="white"/>
</svg>
