<svg width="120" height="120" viewBox="0 0 120 120" fill="none" xmlns="http://www.w3.org/2000/svg">
<path d="M92.9453 81.4173H102.068V68.3828" stroke="black" stroke-width="3" stroke-miterlimit="10"/>
<path d="M97.839 28H71.15H45.4609V81.3818H70.3229" stroke="black" stroke-width="3" stroke-miterlimit="10"/>
<path d="M44.4593 43.8672H34.3147H24.1702L10 64.1031V81.374H16.7179" stroke="black" stroke-width="3" stroke-miterlimit="10"/>
<path d="M21.2031 63.1972H31.7344V53.4766" stroke="black" stroke-width="3" stroke-miterlimit="10"/>
<path d="M84.7461 42.5156H110" stroke="black" stroke-width="3" stroke-miterlimit="10"/>
<path d="M84.7461 55.6719H101.877" stroke="black" stroke-width="3" stroke-miterlimit="10"/>
<path d="M30.2734 92.1484C34.6917 92.1484 38.2734 88.5667 38.2734 84.1484C38.2734 79.7302 34.6917 76.1484 30.2734 76.1484C25.8552 76.1484 22.2734 79.7302 22.2734 84.1484C22.2734 88.5667 25.8552 92.1484 30.2734 92.1484Z" stroke="black" stroke-width="3" stroke-miterlimit="10"/>
<path d="M84.8672 92.1484C89.2855 92.1484 92.8672 88.5667 92.8672 84.1484C92.8672 79.7302 89.2855 76.1484 84.8672 76.1484C80.4489 76.1484 76.8672 79.7302 76.8672 84.1484C76.8672 88.5667 80.4489 92.1484 84.8672 92.1484Z" stroke="black" stroke-width="3" stroke-miterlimit="10"/>
</svg>
