<svg width="120" height="120" viewBox="0 0 120 120" fill="none" xmlns="http://www.w3.org/2000/svg">
<path d="M49.521 43L59.601 67.7208H60.041L70.121 43H77.601V77.0312H73.761V47.5946L61.001 76.9109H58.641L45.921 47.4742V76.9911H42.001V43H49.521Z" fill="black"/>
<path fill-rule="evenodd" clip-rule="evenodd" d="M59.8135 13.125C34.0287 13.125 13.126 34.0277 13.126 59.8125C13.126 85.5973 34.0287 106.5 59.8135 106.5C67.8659 106.5 75.4365 104.463 82.0442 100.878L84.0113 104.504C76.8148 108.408 68.5699 110.625 59.8135 110.625C31.7505 110.625 9.00098 87.8755 9.00098 59.8125C9.00098 31.7495 31.7505 9 59.8135 9C87.8764 9 110.626 31.7495 110.626 59.8125C110.626 75.3214 103.675 89.209 92.7265 98.5261C92.2485 98.9329 91.7629 99.3309 91.2699 99.72L88.7142 96.4821C89.1674 96.1244 89.6138 95.7585 90.0532 95.3846C100.12 86.8178 106.501 74.0614 106.501 59.8125C106.501 34.0277 85.5983 13.125 59.8135 13.125Z" fill="black"/>
</svg>
