<svg width="48" height="48" viewBox="0 0 48 48" fill="none" xmlns="http://www.w3.org/2000/svg">
<path fill-rule="evenodd" clip-rule="evenodd" d="M41.6 24C41.6 14.2798 33.7202 6.39999 24 6.39999C14.2798 6.39999 6.4 14.2798 6.4 24C6.4 33.7202 14.2798 41.6 24 41.6C33.7202 41.6 41.6 33.7202 41.6 24ZM44 24C44 12.9543 35.0457 4 24 4C12.9543 4 4 12.9543 4 24C4 35.0457 12.9543 44 24 44C35.0457 44 44 35.0457 44 24Z" fill="black"/>
<path fill-rule="evenodd" clip-rule="evenodd" d="M19.3359 16H21.7359V16.0001L30.0026 16.0001V18.4001L21.7359 18.4001V22.6667H28.6693V25.0667H21.7359V32H19.3359V25.0667V22.6667V18.4001V16.0001V16Z" fill="black"/>
</svg>
