<svg width="48" height="48" viewBox="0 0 48 48" fill="none" xmlns="http://www.w3.org/2000/svg">
<path fill-rule="evenodd" clip-rule="evenodd" d="M41.6 24C41.6 14.2798 33.7202 6.39999 24 6.39999C14.2798 6.39999 6.4 14.2798 6.4 24C6.4 33.7202 14.2798 41.6 24 41.6C33.7202 41.6 41.6 33.7202 41.6 24ZM44 24C44 12.9543 35.0457 4 24 4C12.9543 4 4 12.9543 4 24C4 35.0457 12.9543 44 24 44C35.0457 44 44 35.0457 44 24Z" fill="black"/>
<path fill-rule="evenodd" clip-rule="evenodd" d="M21.734 32L21.734 26H21.7342H25.6676C28.429 26 30.6676 23.7614 30.6676 21C30.6676 18.2386 28.429 16 25.6676 16H21.7342H21.734H19.3342H19.334L19.334 32H21.734ZM21.7342 18.4H25.6676C27.1035 18.4 28.2676 19.5641 28.2676 21C28.2676 22.4359 27.1035 23.6 25.6676 23.6H21.7342V18.4Z" fill="black"/>
</svg>
