<svg width="48" height="48" viewBox="0 0 48 48" fill="none" xmlns="http://www.w3.org/2000/svg">
<path fill-rule="evenodd" clip-rule="evenodd" d="M41.6 24C41.6 14.2798 33.7202 6.39999 24 6.39999C14.2798 6.39999 6.4 14.2798 6.4 24C6.4 33.7202 14.2798 41.6 24 41.6C33.7202 41.6 41.6 33.7202 41.6 24ZM44 24C44 12.9543 35.0457 4 24 4C12.9543 4 4 12.9543 4 24C4 35.0457 12.9543 44 24 44C35.0457 44 44 35.0457 44 24Z" fill="black"/>
<path d="M24.3965 31.7812C28.4069 31.7812 30.9694 29.2917 30.9694 25.4062V23.5312H24.7298V25.5833H28.334L28.3236 25.8958C28.2923 28.0312 26.7298 29.4583 24.4382 29.4583C21.7611 29.4583 20.0736 27.3229 20.0736 23.875V23.8542C20.0736 20.4583 21.7298 18.3229 24.3548 18.3229C26.2819 18.3229 27.6569 19.2812 28.1465 20.9271L28.1777 21.0312H30.8444L30.834 20.9271C30.3236 17.9896 27.8236 16 24.3548 16C20.0736 16 17.334 19.0729 17.334 23.875V23.8958C17.334 28.75 20.0423 31.7812 24.3965 31.7812Z" fill="black"/>
</svg>
