<svg width="120" height="120" viewBox="0 0 120 120" fill="none" xmlns="http://www.w3.org/2000/svg">
<path d="M11.5 75V27H77V73" stroke="black" stroke-width="3"/>
<path d="M77 41H100.5L108.658 54.6V75" stroke="black" stroke-width="3"/>
<path d="M10 84H21" stroke="black" stroke-width="3"/>
<path d="M44 84H78" stroke="black" stroke-width="3"/>
<path d="M99 84H110" stroke="black" stroke-width="3"/>
<circle cx="35.5744" cy="83.8361" r="8.33612" stroke="black" stroke-width="3"/>
<circle cx="85.0353" cy="83.8361" r="8.33612" stroke="black" stroke-width="3"/>
<rect x="10" y="44" width="68" height="19" fill="black"/>
<path d="M16.8589 57V50.6367H19.1265C19.7622 50.6367 20.3115 50.7642 20.7744 51.019C21.2402 51.271 21.5962 51.6357 21.8423 52.1133C22.0884 52.5879 22.2114 53.1533 22.2114 53.8096C22.2114 54.4688 22.0869 55.0386 21.8379 55.519C21.5918 55.9966 21.2344 56.3628 20.7656 56.6177C20.2998 56.8726 19.7446 57 19.1001 57H16.8589ZM19.0474 55.8662C19.6626 55.8662 20.124 55.6992 20.4316 55.3652C20.7393 55.0312 20.8931 54.5127 20.8931 53.8096C20.8931 53.1123 20.7393 52.5981 20.4316 52.2671C20.127 51.936 19.6685 51.7705 19.0562 51.7705H18.1772V55.8662H19.0474ZM25.1694 50.6367H29.4409V51.7266H26.4878V53.2734H29.2212V54.3633H26.4878V55.9102H29.4497V57H25.1694V50.6367ZM32.4692 50.6367H33.7876V55.9102H36.5298V57H32.4692V50.6367ZM40.7007 57H39.3823V50.6367H40.7007V57ZM46.436 55.4883H46.4976L48.0532 50.6367H49.5122L47.3149 57H45.6187L43.4126 50.6367H44.8892L46.436 55.4883ZM52.2329 50.6367H56.5044V51.7266H53.5513V53.2734H56.2847V54.3633H53.5513V55.9102H56.5132V57H52.2329V50.6367ZM59.5327 50.6367H62.0288C62.5034 50.6367 62.9121 50.7217 63.2549 50.8916C63.5977 51.0615 63.8584 51.3032 64.0371 51.6167C64.2158 51.9272 64.3052 52.292 64.3052 52.7109C64.3052 53.1445 64.2085 53.5166 64.0151 53.8271C63.8218 54.1377 63.5435 54.3706 63.1802 54.5259L64.5337 57H63.0747L61.8574 54.7412H60.8511V57H59.5327V50.6367ZM61.7827 53.6689C62.562 53.6689 62.9487 53.3496 62.9429 52.7109C62.9458 52.3887 62.8506 52.144 62.6572 51.9771C62.4639 51.8071 62.1724 51.7207 61.7827 51.7178H60.8511V53.6689H61.7827ZM68.0542 50.6367L69.522 53.3789H69.5835L71.0425 50.6367H72.5278L70.2075 54.7324V57H68.8892V54.7324L66.5688 50.6367H68.0542Z" fill="white"/>
</svg>
