<svg width="120" height="120" viewBox="0 0 120 120" fill="none" xmlns="http://www.w3.org/2000/svg">
<rect x="13.5" y="40.5" width="92.6089" height="7" stroke="black" stroke-width="3"/>
<mask id="path-2-inside-1_1695_112732" fill="white">
<path d="M17 46H49V91H17V46Z"/>
</mask>
<path d="M17 46V43H14V46H17ZM49 46H52V43H49V46ZM17 49H49V43H17V49ZM46 46V91H52V46H46ZM20 91V46H14V91H20Z" fill="black" mask="url(#path-2-inside-1_1695_112732)"/>
<rect x="25.5" y="70.5" width="14" height="5" stroke="black" stroke-width="3"/>
<mask id="path-5-inside-2_1695_112732" fill="white">
<path d="M27 74H41V91H27V74Z"/>
</mask>
<path d="M27 74V71H24V74H27ZM41 74H44V71H41V74ZM27 77H41V71H27V77ZM38 74V91H44V74H38ZM30 91V74H24V91H30Z" fill="black" mask="url(#path-5-inside-2_1695_112732)"/>
<mask id="path-7-inside-3_1695_112732" fill="white">
<path d="M46 46H103V91H46V46Z"/>
</mask>
<path d="M46 46V43H43V46H46ZM103 46H106V43H103V46ZM46 49H103V43H46V49ZM100 46V91H106V46H100ZM49 91V46H43V91H49Z" fill="black" mask="url(#path-7-inside-3_1695_112732)"/>
<path d="M10 97H110" stroke="black" stroke-width="3"/>
<rect x="21" y="23" width="78" height="19" fill="black"/>
<path d="M27.8765 29.6367H29.1948V32.2734H31.9546V29.6367H33.2817V36H31.9546V33.3633H29.1948V36H27.8765V29.6367ZM35.9937 36L38.1997 29.6367H39.896L42.0933 36H40.6782L40.1992 34.5322H37.8965L37.4175 36H35.9937ZM39.8652 33.5039L39.0698 31.0693H39.0259L38.2305 33.5039H39.8652ZM50.1226 36H48.98L46.1851 31.957H46.1323V36H44.814V29.6367H45.9741L48.7515 33.6797H48.813V29.6367H50.1226V36ZM53.1948 36V29.6367H55.4624C56.0981 29.6367 56.6475 29.7642 57.1104 30.019C57.5762 30.271 57.9321 30.6357 58.1782 31.1133C58.4243 31.5879 58.5474 32.1533 58.5474 32.8096C58.5474 33.4688 58.4229 34.0386 58.1738 34.519C57.9277 34.9966 57.5703 35.3628 57.1016 35.6177C56.6357 35.8726 56.0806 36 55.436 36H53.1948ZM55.3833 34.8662C55.9985 34.8662 56.46 34.6992 56.7676 34.3652C57.0752 34.0312 57.229 33.5127 57.229 32.8096C57.229 32.1123 57.0752 31.5981 56.7676 31.2671C56.4629 30.936 56.0044 30.7705 55.3921 30.7705H54.5132V34.8662H55.3833ZM64.9595 31.4561C64.9331 31.2041 64.8232 31.0078 64.6299 30.8672C64.4395 30.7266 64.1831 30.6562 63.8608 30.6562C63.6411 30.6562 63.4521 30.6885 63.2939 30.7529C63.1387 30.8145 63.02 30.9009 62.938 31.0122C62.856 31.1235 62.8149 31.2495 62.8149 31.3901C62.8149 31.6011 62.9058 31.7681 63.0874 31.8911C63.272 32.0112 63.521 32.1064 63.8345 32.1768L64.4058 32.3174C64.9946 32.4521 65.459 32.6719 65.7988 32.9766C66.1387 33.2783 66.3101 33.6797 66.313 34.1807C66.313 34.5674 66.2148 34.9043 66.0186 35.1914C65.8223 35.4785 65.5396 35.6997 65.1704 35.855C64.8013 36.0103 64.3618 36.0879 63.8521 36.0879C63.3364 36.0908 62.8896 36.0132 62.5117 35.855C62.1338 35.6968 61.8394 35.4624 61.6284 35.1519C61.4175 34.8413 61.3062 34.4619 61.2944 34.0137H62.5776C62.5981 34.3271 62.7212 34.5674 62.9468 34.7344C63.1753 34.8984 63.4712 34.9805 63.8345 34.9805C64.063 34.9805 64.2637 34.9468 64.4365 34.8794C64.6094 34.812 64.7427 34.7183 64.8364 34.5981C64.9302 34.478 64.9771 34.3389 64.9771 34.1807C64.9771 33.9756 64.8877 33.813 64.709 33.6929C64.5332 33.5698 64.2593 33.4629 63.8872 33.3721L63.1929 33.2051C62.0386 32.9209 61.4614 32.3438 61.4614 31.4736C61.4614 31.0957 61.564 30.7617 61.769 30.4717C61.9771 30.1787 62.2627 29.9517 62.626 29.7905C62.9922 29.6294 63.4067 29.5488 63.8696 29.5488C64.3325 29.5488 64.7412 29.6294 65.0957 29.7905C65.4502 29.9517 65.7256 30.1772 65.9219 30.4673C66.1182 30.7544 66.2192 31.084 66.2251 31.4561H64.9595ZM75.0015 32.8184C75.0015 33.4951 74.8726 34.0796 74.6147 34.5718C74.3569 35.064 74.0024 35.4404 73.5513 35.7012C73.103 35.959 72.5962 36.0879 72.0308 36.0879C71.4624 36.0879 70.9526 35.959 70.5015 35.7012C70.0503 35.4404 69.6958 35.064 69.438 34.5718C69.1802 34.0767 69.0513 33.4922 69.0513 32.8184C69.0513 32.1416 69.1802 31.5571 69.438 31.0649C69.6958 30.5728 70.0503 30.1978 70.5015 29.9399C70.9526 29.6792 71.4624 29.5488 72.0308 29.5488C72.5962 29.5488 73.103 29.6792 73.5513 29.9399C74.0024 30.1978 74.3569 30.5728 74.6147 31.0649C74.8726 31.5571 75.0015 32.1416 75.0015 32.8184ZM70.396 32.8184C70.396 33.2637 70.4619 33.6445 70.5938 33.9609C70.7285 34.2744 70.9189 34.5117 71.165 34.6729C71.4111 34.834 71.6997 34.916 72.0308 34.9189C72.3589 34.916 72.6445 34.834 72.8877 34.6729C73.1338 34.5088 73.3228 34.27 73.4546 33.9565C73.5894 33.6431 73.6567 33.2637 73.6567 32.8184C73.6567 32.373 73.5894 31.9937 73.4546 31.6802C73.3228 31.3638 73.1338 31.125 72.8877 30.9639C72.6445 30.8027 72.3589 30.7207 72.0308 30.7178C71.6997 30.7207 71.4111 30.8027 71.165 30.9639C70.9189 31.125 70.7285 31.3638 70.5938 31.6802C70.4619 31.9937 70.396 32.373 70.396 32.8184ZM79.5854 29.6367L81.3521 33.9521H81.4224L83.189 29.6367H84.8237V36H83.5405V31.834H83.4878L81.8267 35.9736H80.9478L79.2866 31.8164H79.2339V36H77.9507V29.6367H79.5854ZM87.896 29.6367H92.1675V30.7266H89.2144V32.2734H91.9478V33.3633H89.2144V34.9102H92.1763V36H87.896V29.6367Z" fill="white"/>
</svg>
