<svg width="48" height="48" viewBox="0 0 48 48" fill="none" xmlns="http://www.w3.org/2000/svg">
<path fill-rule="evenodd" clip-rule="evenodd" d="M41.6 24C41.6 14.2798 33.7202 6.4 24 6.4C14.2798 6.4 6.4 14.2798 6.4 24C6.4 33.7202 14.2798 41.6 24 41.6C33.7202 41.6 41.6 33.7202 41.6 24ZM44 24C44 12.9543 35.0457 4 24 4C12.9543 4 4 12.9543 4 24C4 35.0457 12.9543 44 24 44C35.0457 44 44 35.0457 44 24Z" fill="black"/>
<path d="M31.0662 24L23.9951 31.0711L16.924 24L23.9951 16.9289L31.0662 24Z" fill="black"/>
</svg>
