<svg width="80" height="80" viewBox="0 0 80 80" fill="none" xmlns="http://www.w3.org/2000/svg">
<path d="M21.9434 51.033V25.7552H58.0545V51.033" stroke="black" stroke-width="2.5"/>
<path d="M22.5 36.25H57.5" stroke="black" stroke-width="2.5"/>
<path d="M20.6992 54.6449H59.1992" stroke="black" stroke-width="2.5"/>
<path d="M25.5566 49.2283H32.7789" stroke="black" stroke-width="2.5"/>
<path d="M40 72.6983C22.0507 72.6983 7.5 58.1476 7.5 40.1983C7.5 24.7313 18.3045 11.7878 32.7778 8.50369M32.7778 8.50369L23.75 4.76562M32.7778 8.50369L29.1667 16.9531" stroke="black" stroke-width="2.5"/>
<path d="M40 7.92666C57.9493 7.92666 72.5 22.4774 72.5 40.4267C72.5 55.8937 61.6955 68.8372 47.2222 72.1213M47.2222 72.1213L56.25 75.8594M47.2222 72.1213L50.8333 63.6719" stroke="black" stroke-width="2.5"/>
</svg>
