<svg width="120" height="120" viewBox="0 0 120 120" fill="none" xmlns="http://www.w3.org/2000/svg">
<path fill-rule="evenodd" clip-rule="evenodd" d="M60.1875 13.5C34.4027 13.5 13.5 34.4027 13.5 60.1875C13.5 85.9723 34.4027 106.875 60.1875 106.875C68.2399 106.875 75.8105 104.838 82.4182 101.253L84.3854 104.879C77.1888 108.783 68.9439 111 60.1875 111C32.1245 111 9.375 88.2505 9.375 60.1875C9.375 32.1245 32.1245 9.375 60.1875 9.375C88.2505 9.375 111 32.1245 111 60.1875C111 75.6964 104.049 89.584 93.1005 98.9011C92.6225 99.3079 92.1369 99.7059 91.6439 100.095L89.0882 96.8571C89.5414 96.4994 89.9878 96.1335 90.4272 95.7596C100.494 87.1928 106.875 74.4364 106.875 60.1875C106.875 34.4027 85.9723 13.5 60.1875 13.5Z" fill="black"/>
<path fill-rule="evenodd" clip-rule="evenodd" d="M75.0156 43.125L77.959 46.0683L46.0842 77.9431C46.0841 77.9432 46.084 77.9433 44.6123 76.4717C43.1406 75 43.1407 74.9999 43.1409 74.9997L75.0156 43.125Z" fill="black"/>
<path fill-rule="evenodd" clip-rule="evenodd" d="M45.1328 43.125L42.1895 46.0683L74.0642 77.9431C74.0644 77.9432 74.0645 77.9433 75.5361 76.4717C77.0078 75 77.0077 74.9999 77.0075 74.9997L45.1328 43.125Z" fill="black"/>
</svg>
