<svg width="115" height="24" viewBox="0 0 115 24" fill="none" xmlns="http://www.w3.org/2000/svg">
<path d="M20.336 0V4.22006C18.0198 2.64754 15.2542 1.83285 12.4356 1.89276V23.8245H7.90039V1.89276C5.0837 1.82795 2.31827 2.63674 0 4.20334V0H20.336Z" fill="black"/>
<path d="M114.999 21.8356V23.8538H100.219V4.21588C100.22 2.72448 99.7911 1.26304 98.9805 0H114.521V3.24652C114.521 3.24652 111.886 1.79248 106.373 1.79248H104.776V10.4248H112.334V12.4512H104.776V21.8356H114.999Z" fill="black"/>
<path d="M40.6796 0.0125343V23.8538H36.1443V4.21588C36.1457 2.72508 35.718 1.26404 34.9102 0L40.6796 0.0125343Z" fill="black"/>
<path d="M84.2774 0.00835833V23.8496H79.6696V5.59471L70.787 24H70.014L61.1271 5.56546V23.8496H58.8766V4.2117C58.8868 2.70825 58.4246 1.23803 57.5527 0H63.6424L71.7564 16.8343L79.8916 0L84.2774 0.00835833Z" fill="black"/>
</svg>
