<svg width="164" height="20" viewBox="0 0 164 20" fill="none" xmlns="http://www.w3.org/2000/svg">
<path fill-rule="evenodd" clip-rule="evenodd" d="M0 20H1.28748V0H0V20Z" fill="black"/>
<path fill-rule="evenodd" clip-rule="evenodd" d="M48.5208 20H50.5806V0H48.5208V20Z" fill="black"/>
<path fill-rule="evenodd" clip-rule="evenodd" d="M27.3709 9.27615H22.1998V5.39453H20.7834V14.6052H22.1998V10.5919H27.3709V14.6052H28.7872V5.39453H27.3709V9.27615Z" fill="black"/>
<path fill-rule="evenodd" clip-rule="evenodd" d="M33.7525 10.5787H37.9679V9.28934H33.7525V6.71031H39.068V5.39453H32.3362V14.605H39.2612V13.2892H33.7525V10.5787Z" fill="black"/>
<path fill-rule="evenodd" clip-rule="evenodd" d="M9.9082 6.71031H13.2017V14.605H14.618V6.71031H17.912V5.39453H9.9082V6.71031Z" fill="black"/>
<path fill-rule="evenodd" clip-rule="evenodd" d="M160.138 20H164V0H160.138V20Z" fill="black"/>
<path fill-rule="evenodd" clip-rule="evenodd" d="M99.1923 12.947H97.4973V7.05263H99.1794C101.047 7.05263 102.168 8.1638 102.168 9.99981C102.168 11.8087 101.024 12.947 99.1923 12.947ZM99.1923 5.09863H95.4373V14.9012H99.1923C100.727 14.9012 102.179 14.3999 102.982 13.5937C103.847 12.7379 104.31 11.4856 104.31 9.99981C104.31 8.51427 103.847 7.26172 102.982 6.40619C102.179 5.5997 100.727 5.09863 99.1923 5.09863Z" fill="black"/>
<path fill-rule="evenodd" clip-rule="evenodd" d="M66.6161 9.0131H62.0457V5.09863H59.9856V14.9012H62.0457V10.8553H66.6161V14.9012H68.6762V5.09863H66.6161V9.0131Z" fill="black"/>
<path fill-rule="evenodd" clip-rule="evenodd" d="M145.908 10.829H150.176V9.03949H145.908V6.94087H151.269V5.09863H143.848V14.9012H151.462V13.0593H145.908V10.829Z" fill="black"/>
<path fill-rule="evenodd" clip-rule="evenodd" d="M121.959 13.2092C121.165 13.2092 120.484 12.9187 119.997 12.3631C119.51 11.8075 119.235 11.0135 119.235 10.0001C119.235 8.98653 119.51 8.19273 119.997 7.63715C120.484 7.08132 121.165 6.79083 121.959 6.79083C122.753 6.79083 123.433 7.08132 123.921 7.63715C124.408 8.19273 124.683 8.98653 124.683 10.0001C124.683 11.0135 124.408 11.8075 123.921 12.3631C123.433 12.9187 122.753 13.2092 121.959 13.2092ZM121.959 15.1975C123.427 15.1975 124.627 14.7022 125.485 13.7954C126.344 12.8886 126.826 11.6004 126.826 10.0001C126.826 8.39984 126.344 7.11144 125.485 6.20489C124.627 5.29808 123.427 4.80273 121.959 4.80273C120.491 4.80273 119.291 5.29808 118.433 6.20489C117.574 7.11144 117.092 8.39984 117.092 10.0001C117.092 11.6004 117.574 12.8886 118.433 13.7954C119.291 14.7022 120.491 15.1975 121.959 15.1975Z" fill="black"/>
<path fill-rule="evenodd" clip-rule="evenodd" d="M74.671 10.9196L76.069 7.33739L77.4671 10.9196H74.671ZM78.9955 14.9015H81.1347L77.3088 5.09863H74.8296L71.0034 14.9015H73.1426L73.9778 12.7618H78.1605L78.9955 14.9015Z" fill="black"/>
<path fill-rule="evenodd" clip-rule="evenodd" d="M90.1663 5.09863V11.9732L85.8338 5.09863H83.4714V14.9012H85.467V8.02665L89.7992 14.9012H92.1618V5.09863H90.1663Z" fill="black"/>
<path fill-rule="evenodd" clip-rule="evenodd" d="M137.66 5.09863L134.999 11.8831L132.337 5.09863H129.424V14.9012H131.42V7.66024L134.356 14.9012H135.641L138.577 7.66024V14.9012H140.572V5.09863H137.66Z" fill="black"/>
<path fill-rule="evenodd" clip-rule="evenodd" d="M111.379 9.0383C110.695 8.90762 109.897 8.66393 109.463 8.44837C109.112 8.27338 108.898 7.99335 108.898 7.62769C108.898 7.12164 109.498 6.67483 110.596 6.67483C111.639 6.67483 112.645 7.18188 113.215 7.8654L114.602 6.53419C113.865 5.52956 112.383 4.80322 110.633 4.80322C109.664 4.80322 108.74 5.00609 108.002 5.49994C107.241 6.00948 106.755 6.809 106.755 7.62769C106.755 8.83444 107.334 9.53763 108.055 9.97298C108.655 10.3344 109.466 10.5674 110.292 10.7561C110.908 10.897 111.739 11.059 112.125 11.282C112.432 11.4593 112.645 11.7169 112.645 12.0149C112.645 12.7721 111.962 13.2089 110.825 13.2089C109.482 13.2089 108.401 12.506 107.805 11.8312L106.204 13.2194C107.334 14.5717 109.352 15.1973 110.825 15.1973C111.901 15.1973 112.99 14.9834 113.779 14.3094C114.469 13.7202 114.856 12.8853 114.856 12.0149C114.856 11.3448 114.662 10.8146 114.256 10.3498C113.739 9.75817 113.002 9.3482 111.379 9.0383Z" fill="black"/>
</svg>
