<svg width="240" height="29" viewBox="0 0 240 29" fill="none" xmlns="http://www.w3.org/2000/svg">
<g opacity="0.2">
<path fill-rule="evenodd" clip-rule="evenodd" d="M0 28.5714H1.88412V0H0V28.5714Z" fill="black"/>
<path fill-rule="evenodd" clip-rule="evenodd" d="M71.0059 28.5714H74.0202V0H71.0059V28.5714Z" fill="black"/>
<path fill-rule="evenodd" clip-rule="evenodd" d="M40.0549 13.252H32.4875V7.70679H30.4148V20.8649H32.4875V15.1316H40.0549V20.8649H42.1276V7.70679H40.0549V13.252Z" fill="black"/>
<path fill-rule="evenodd" clip-rule="evenodd" d="M49.394 15.1128H55.5628V13.2708H49.394V9.58647H57.1728V7.70679H47.3213V20.8645H57.4555V18.9849H49.394V15.1128Z" fill="black"/>
<path fill-rule="evenodd" clip-rule="evenodd" d="M14.4999 9.58647H19.3197V20.8645H21.3923V9.58647H26.2128V7.70679H14.4999V9.58647Z" fill="black"/>
<path fill-rule="evenodd" clip-rule="evenodd" d="M234.348 28.5714H240V0H234.348V28.5714Z" fill="black"/>
<path fill-rule="evenodd" clip-rule="evenodd" d="M145.159 18.4959H142.679V10.0754H145.141C147.873 10.0754 149.514 11.6627 149.514 14.2856C149.514 16.8697 147.84 18.4959 145.159 18.4959ZM145.159 7.28394H139.664V21.2877H145.159C147.405 21.2877 149.531 20.5715 150.706 19.4197C151.971 18.1972 152.649 16.4082 152.649 14.2856C152.649 12.1634 151.971 10.3741 150.706 9.15188C149.531 7.99975 147.405 7.28394 145.159 7.28394Z" fill="black"/>
<path fill-rule="evenodd" clip-rule="evenodd" d="M97.4869 12.876H90.7984V7.28394H87.7837V21.2877H90.7984V15.5078H97.4869V21.2877H100.502V7.28394H97.4869V12.876Z" fill="black"/>
<path fill-rule="evenodd" clip-rule="evenodd" d="M213.524 15.4699H219.77V12.9135H213.524V9.91546H221.369V7.28369H210.509V21.2874H221.652V18.656H213.524V15.4699Z" fill="black"/>
<path fill-rule="evenodd" clip-rule="evenodd" d="M178.477 18.8703C177.315 18.8703 176.319 18.4553 175.606 17.6616C174.893 16.8679 174.49 15.7336 174.49 14.2859C174.49 12.8379 174.893 11.7039 175.606 10.9103C176.319 10.1162 177.315 9.70122 178.477 9.70122C179.639 9.70122 180.634 10.1162 181.347 10.9103C182.06 11.7039 182.463 12.8379 182.463 14.2859C182.463 15.7336 182.06 16.8679 181.347 17.6616C180.634 18.4553 179.639 18.8703 178.477 18.8703ZM178.477 21.7108C180.625 21.7108 182.381 21.0031 183.637 19.7077C184.893 18.4123 185.599 16.5721 185.599 14.2859C185.599 11.9998 184.893 10.1592 183.637 8.86416C182.381 7.56872 180.625 6.86108 178.477 6.86108C176.328 6.86108 174.573 7.56872 173.316 8.86416C172.06 10.1592 171.355 11.9998 171.355 14.2859C171.355 16.5721 172.06 18.4123 173.316 19.7077C174.573 21.0031 176.328 21.7108 178.477 21.7108Z" fill="black"/>
<path fill-rule="evenodd" clip-rule="evenodd" d="M109.274 15.5993L111.32 10.4819L113.366 15.5993H109.274ZM115.603 21.2878H118.733L113.135 7.28369H109.506L103.907 21.2878H107.038L108.26 18.2311H114.381L115.603 21.2878Z" fill="black"/>
<path fill-rule="evenodd" clip-rule="evenodd" d="M131.951 7.28394V17.1048L125.61 7.28394H122.153V21.2877H125.073V11.4668L131.413 21.2877H134.871V7.28394H131.951Z" fill="black"/>
<path fill-rule="evenodd" clip-rule="evenodd" d="M201.454 7.28394L197.559 16.9761L193.664 7.28394H189.401V21.2877H192.322V10.9434L196.619 21.2877H198.499L202.795 10.9434V21.2877H205.716V7.28394H201.454Z" fill="black"/>
<path fill-rule="evenodd" clip-rule="evenodd" d="M162.994 12.9119C161.993 12.7252 160.824 12.3771 160.19 12.0692C159.675 11.8192 159.363 11.4191 159.363 10.8968C159.363 10.1738 160.241 9.53554 161.848 9.53554C163.374 9.53554 164.847 10.2599 165.681 11.2364L167.71 9.33463C166.631 7.89945 164.463 6.86182 161.902 6.86182C160.484 6.86182 159.132 7.15163 158.052 7.85713C156.938 8.58503 156.227 9.72721 156.227 10.8968C156.227 12.6207 157.073 13.6253 158.13 14.2472C159.007 14.7635 160.195 15.0964 161.403 15.3659C162.305 15.5672 163.52 15.7987 164.085 16.1173C164.534 16.3705 164.846 16.7385 164.846 17.1641C164.846 18.2459 163.846 18.8699 162.183 18.8699C160.217 18.8699 158.636 17.8657 157.763 16.9017L155.421 18.8849C157.073 20.8168 160.028 21.7104 162.183 21.7104C163.758 21.7104 165.351 21.405 166.506 20.442C167.516 19.6003 168.081 18.4077 168.081 17.1641C168.081 16.2069 167.798 15.4495 167.204 14.7856C166.448 13.9403 165.369 13.3546 162.994 12.9119Z" fill="black"/>
</g>
</svg>
