<svg width="432" height="652" viewBox="0 0 432 652" fill="none" xmlns="http://www.w3.org/2000/svg">
<rect width="432" height="652" fill="#F8F8F8"/>
<g opacity="0.2">
<path fill-rule="evenodd" clip-rule="evenodd" d="M61 343.786H63.4258V307H61V343.786Z" fill="black"/>
<path fill-rule="evenodd" clip-rule="evenodd" d="M152.42 343.786H156.301V307H152.42V343.786Z" fill="black"/>
<path fill-rule="evenodd" clip-rule="evenodd" d="M112.572 324.054H102.829V316.914H100.16V333.855H102.829V326.474H112.572V333.855H115.24V316.914H112.572V324.054Z" fill="black"/>
<path fill-rule="evenodd" clip-rule="evenodd" d="M124.594 326.449H132.537V324.078H124.594V319.334H134.61V316.914H121.926V333.855H134.974V331.435H124.594V326.449Z" fill="black"/>
<path fill-rule="evenodd" clip-rule="evenodd" d="M79.6689 319.334H85.8744V333.855H88.5429V319.334H94.7493V316.914H79.6689V319.334Z" fill="black"/>
<path fill-rule="evenodd" clip-rule="evenodd" d="M362.723 343.786H370V307H362.723V343.786Z" fill="black"/>
<path fill-rule="evenodd" clip-rule="evenodd" d="M247.892 330.81H244.699V319.969H247.869C251.386 319.969 253.499 322.013 253.499 325.39C253.499 328.717 251.344 330.81 247.892 330.81ZM247.892 316.375H240.817V334.405H247.892C250.784 334.405 253.521 333.483 255.034 332C256.663 330.426 257.536 328.122 257.536 325.39C257.536 322.657 256.663 320.354 255.034 318.78C253.521 317.297 250.784 316.375 247.892 316.375Z" fill="black"/>
<path fill-rule="evenodd" clip-rule="evenodd" d="M186.515 323.575H177.904V316.375H174.022V334.405H177.904V326.963H186.515V334.405H190.397V316.375H186.515V323.575Z" fill="black"/>
<path fill-rule="evenodd" clip-rule="evenodd" d="M335.911 326.915H343.953V323.623H335.911V319.763H346.012V316.375H332.029V334.405H346.376V331.017H335.911V326.915Z" fill="black"/>
<path fill-rule="evenodd" clip-rule="evenodd" d="M290.79 331.298C289.294 331.298 288.011 330.763 287.093 329.742C286.175 328.72 285.656 327.259 285.656 325.395C285.656 323.531 286.175 322.071 287.093 321.049C288.011 320.027 289.294 319.493 290.79 319.493C292.286 319.493 293.567 320.027 294.485 321.049C295.403 322.071 295.922 323.531 295.922 325.395C295.922 327.259 295.403 328.72 294.485 329.742C293.567 330.763 292.286 331.298 290.79 331.298ZM290.79 334.955C293.555 334.955 295.816 334.044 297.433 332.376C299.05 330.708 299.959 328.339 299.959 325.395C299.959 322.452 299.05 320.082 297.433 318.415C295.816 316.747 293.555 315.836 290.79 315.836C288.023 315.836 285.763 316.747 284.145 318.415C282.528 320.082 281.62 322.452 281.62 325.395C281.62 328.339 282.528 330.708 284.145 332.376C285.763 334.044 288.023 334.955 290.79 334.955Z" fill="black"/>
<path fill-rule="evenodd" clip-rule="evenodd" d="M201.69 327.081L204.325 320.493L206.959 327.081H201.69ZM209.839 334.405H213.869L206.661 316.375H201.989L194.78 334.405H198.811L200.385 330.47H208.266L209.839 334.405Z" fill="black"/>
<path fill-rule="evenodd" clip-rule="evenodd" d="M230.887 316.375V329.019L222.723 316.375H218.272V334.405H222.032V321.76L230.195 334.405H234.647V316.375H230.887Z" fill="black"/>
<path fill-rule="evenodd" clip-rule="evenodd" d="M320.373 316.375L315.358 328.854L310.343 316.375H304.854V334.405H308.615V321.087L314.148 334.405H316.568L322.099 321.087V334.405H325.86V316.375H320.373Z" fill="black"/>
<path fill-rule="evenodd" clip-rule="evenodd" d="M270.855 323.625C269.566 323.385 268.061 322.937 267.245 322.54C266.582 322.219 266.18 321.703 266.18 321.031C266.18 320.1 267.31 319.278 269.379 319.278C271.344 319.278 273.24 320.211 274.314 321.468L276.927 319.02C275.537 317.172 272.746 315.836 269.449 315.836C267.623 315.836 265.882 316.209 264.492 317.117C263.058 318.055 262.142 319.525 262.142 321.031C262.142 323.25 263.231 324.544 264.592 325.345C265.721 326.009 267.251 326.438 268.806 326.785C269.968 327.044 271.532 327.342 272.259 327.752C272.837 328.078 273.239 328.552 273.239 329.1C273.239 330.493 271.952 331.296 269.811 331.296C267.279 331.296 265.244 330.003 264.12 328.762L261.104 331.316C263.231 333.803 267.036 334.953 269.811 334.953C271.838 334.953 273.889 334.56 275.376 333.32C276.677 332.237 277.404 330.701 277.404 329.1C277.404 327.868 277.04 326.893 276.275 326.038C275.302 324.949 273.913 324.195 270.855 323.625Z" fill="black"/>
</g>
</svg>
