<svg width="48" height="48" viewBox="0 0 48 48" fill="none" xmlns="http://www.w3.org/2000/svg">
<rect width="48" height="48" fill="#F8F8F8"/>
<path fill-rule="evenodd" clip-rule="evenodd" d="M24 22.5C25.933 22.5 27.5 20.933 27.5 19C27.5 17.067 25.933 15.5 24 15.5C22.067 15.5 20.5 17.067 20.5 19C20.5 20.933 22.067 22.5 24 22.5ZM24 24C26.7614 24 29 21.7614 29 19C29 16.2386 26.7614 14 24 14C21.2386 14 19 16.2386 19 19C19 21.7614 21.2386 24 24 24ZM34 25.75V30.5H32.5V27.25H15.5V30.5H14V25.75H34ZM14 32.75V34.25H34V32.75H14Z" fill="#CCCCCC"/>
</svg>
