<svg width="110" height="20" viewBox="0 0 110 20" fill="none" xmlns="http://www.w3.org/2000/svg">
<g clip-path="url(#clip0_4731_25414)">
<path d="M6.009 19.4779C4.90657 19.4779 3.91779 19.3026 3.0459 18.9535C2.1724 18.6044 1.471 18.0816 0.941697 17.3835C0.410775 16.6853 0.097417 15.8329 0 14.8279H3.22613C3.32354 15.414 3.61742 15.8686 4.10613 16.1885C4.59483 16.51 5.22967 16.6707 6.01225 16.6707C6.64059 16.6707 7.15041 16.6009 7.5417 16.4612C7.93299 16.3216 8.21875 16.1235 8.40059 15.8638C8.58244 15.6056 8.67336 15.302 8.67336 14.9529C8.67336 14.6038 8.54347 14.297 8.28531 14.0729C8.02716 13.8505 7.70568 13.6849 7.32251 13.581C6.93771 13.477 6.39055 13.3407 5.67779 13.1718C4.61594 12.977 3.74081 12.7529 3.04915 12.5012C2.35749 12.2496 1.76487 11.8242 1.26804 11.2235C0.772841 10.6227 0.524428 9.78494 0.524428 8.7101C0.524428 7.8025 0.764723 7.02154 1.24694 6.36398C1.72915 5.70804 2.38509 5.21608 3.21638 4.88649C4.04768 4.55852 4.97963 4.39453 6.01225 4.39453C7.1569 4.39453 8.13756 4.57962 8.95424 4.94981C9.77092 5.31999 10.4025 5.82981 10.849 6.47925C11.2955 7.1287 11.5748 7.87881 11.6868 8.73121H8.46066C8.36325 8.2425 8.10834 7.86582 7.69594 7.59955C7.28354 7.3349 6.74937 7.20176 6.09343 7.20176C5.60472 7.20176 5.18908 7.26508 4.84649 7.3901C4.50391 7.51512 4.25225 7.69697 4.09314 7.93401C3.9324 8.17106 3.85284 8.42922 3.85284 8.70848C3.85284 9.11438 3.98598 9.43099 4.25063 9.66154C4.51528 9.8921 4.85137 10.0739 5.25565 10.2055C5.65993 10.3386 6.23306 10.4815 6.97343 10.6341C8.00605 10.8581 8.8617 11.0984 9.53874 11.3566C10.2158 11.6148 10.7922 12.0304 11.2663 12.6035C11.7404 13.1767 11.979 13.9576 11.979 14.9497C11.979 15.815 11.7485 16.5911 11.2874 17.2747C10.8263 17.9582 10.146 18.4973 9.24487 18.8869C8.34376 19.2782 7.26568 19.4731 6.009 19.4731V19.4779Z" fill="black"/>
<path d="M15.1016 19.2691V4.60782H25.0917V7.49786H18.3261V16.379H25.3011V19.2691H15.1016ZM17.7822 13.2373V10.5356H24.6728V13.2373H17.7822ZM18.9333 3.1417L20.8199 0H23.585L21.1771 3.1417H18.9365H18.9333Z" fill="black"/>
<path d="M28.7188 19.2687V4.60742H31.9449V16.3786H38.6049V19.2687H28.7188Z" fill="black"/>
<path d="M41.5078 19.2687V4.60742H51.4979V7.49746H44.7323V16.3786H51.7074V19.2687H41.5078ZM44.1884 13.2369V10.5352H51.079V13.2369H44.1884Z" fill="black"/>
<path d="M61.4328 19.4786C60.0365 19.4786 58.8172 19.1815 57.7781 18.5888C56.7373 17.9962 55.932 17.1325 55.3589 16.0024C54.7858 14.8708 54.5 13.5167 54.5 11.9385C54.5 10.3604 54.7858 9.00626 55.3589 7.8746C55.932 6.74294 56.7373 5.8808 57.7781 5.28818C58.8188 4.69556 60.0365 4.39844 61.4328 4.39844C63.2204 4.39844 64.6411 4.83519 65.6948 5.70707C66.7486 6.58058 67.4646 7.76257 67.8413 9.25792H64.5112C64.232 8.62958 63.852 8.14412 63.3698 7.80316C62.8876 7.46058 62.2414 7.2901 61.4328 7.2901C60.6925 7.2901 60.0463 7.4687 59.4959 7.82427C58.9438 8.17984 58.5152 8.70751 58.2083 9.40567C57.9015 10.1038 57.7472 10.9481 57.7472 11.9401C57.7472 12.9322 57.9015 13.7764 58.2083 14.4746C58.5152 15.1728 58.9455 15.7004 59.4959 16.056C60.0479 16.4116 60.6925 16.5902 61.4328 16.5902C62.243 16.5902 62.8876 16.4197 63.3698 16.0771C63.852 15.7345 64.232 15.2491 64.5112 14.6207H67.8413C67.4646 16.1145 66.7486 17.2981 65.6948 18.1716C64.6411 19.0451 63.2204 19.4802 61.4328 19.4802V19.4786Z" fill="black"/>
<path d="M73.5593 19.2687V7.49746H69.2031V4.60742H81.1627V7.49746H76.8065V19.2687H73.5593Z" fill="black"/>
<path d="M83.9688 19.2687V4.60742H93.9589V7.49746H87.1933V16.3786H94.1683V19.2687H83.9688ZM86.6493 13.2369V10.5352H93.54V13.2369H86.6493Z" fill="black"/>
<path d="M97.5781 19.2687V4.60742H103.275C104.629 4.60742 105.816 4.89967 106.836 5.48742C107.856 6.07355 108.637 6.91945 109.182 8.02189C109.726 9.12432 109.999 10.4297 109.999 11.938C109.999 13.4464 109.726 14.7518 109.182 15.8542C108.638 16.9566 107.856 17.8026 106.836 18.3887C105.816 18.9748 104.629 19.2687 103.275 19.2687H97.5781ZM103.17 16.3786C103.826 16.3786 104.427 16.2114 104.97 15.8753C105.514 15.5409 105.948 15.0375 106.269 14.367C106.591 13.6964 106.752 12.8862 106.752 11.938C106.752 10.9899 106.591 10.178 106.269 9.50912C105.948 8.83857 105.516 8.33687 104.97 8.00078C104.427 7.66631 103.826 7.49746 103.17 7.49746H100.803V16.3786H103.17Z" fill="black"/>
</g>
<defs>
<clipPath id="clip0_4731_25414">
<rect width="110" height="19.4785" fill="white"/>
</clipPath>
</defs>
</svg>
