<svg width="496" height="200" viewBox="0 0 496 200" fill="none" xmlns="http://www.w3.org/2000/svg">
<rect x="2.7334" y="52.75" width="18.34" height="18.5" stroke="black" stroke-width="1.5"/>
<rect x="10.9111" y="53" width="1.488" height="18" fill="black"/>
<rect x="52.7344" y="52.75" width="18.34" height="18.5" stroke="black" stroke-width="1.5"/>
<rect x="53.1035" y="62.375" width="0.75" height="17.106" transform="rotate(-90 53.1035 62.375)" fill="#767676" stroke="black" stroke-width="0.75"/>
<rect x="102.734" y="52.75" width="18.34" height="18.5" stroke="black" stroke-width="1.5"/>
<rect x="111.284" y="53.372" width="0.744" height="17.256" fill="#767676" stroke="black" stroke-width="0.744"/>
<rect x="112.279" y="61.375" width="8.178" height="0.75" fill="#767676" stroke="black" stroke-width="0.75"/>
<rect x="152.734" y="52.75" width="18.34" height="18.5" stroke="black" stroke-width="1.5"/>
<rect x="161.284" y="53.372" width="0.744" height="17.256" fill="#767676" stroke="black" stroke-width="0.744"/>
<rect x="162.279" y="64.875" width="8.178" height="0.75" fill="#767676" stroke="black" stroke-width="0.75"/>
<rect x="202.733" y="52.75" width="18.34" height="18.5" stroke="black" stroke-width="1.5"/>
<rect x="211.283" y="53.372" width="0.744" height="17.256" fill="#767676" stroke="black" stroke-width="0.744"/>
<rect x="212.278" y="58.375" width="8.178" height="0.75" fill="#767676" stroke="black" stroke-width="0.75"/>
<rect x="212.278" y="64.875" width="8.178" height="0.75" fill="#767676" stroke="black" stroke-width="0.75"/>
<rect x="252.733" y="52.75" width="18.34" height="18.5" stroke="black" stroke-width="1.5"/>
<rect x="261.283" y="53.372" width="0.744" height="17.256" fill="#767676" stroke="black" stroke-width="0.744"/>
<rect x="262.279" y="64.875" width="8.178" height="0.75" fill="#767676" stroke="black" stroke-width="0.75"/>
<rect x="266.047" y="65.372" width="0.744" height="5.256" fill="#767676" stroke="black" stroke-width="0.744"/>
<rect x="312.279" y="58.375" width="8.178" height="0.75" fill="#767676" stroke="black" stroke-width="0.75"/>
<rect x="302.734" y="52.75" width="18.34" height="18.5" stroke="black" stroke-width="1.5"/>
<rect x="311.284" y="53.372" width="0.744" height="17.256" fill="#767676" stroke="black" stroke-width="0.744"/>
<rect x="303.351" y="64.875" width="17.106" height="0.75" fill="#767676" stroke="black" stroke-width="0.75"/>
<path d="M365.573 65L365.573 53L367.061 53L367.061 65L365.573 65Z" fill="black"/>
<rect x="352.734" y="52.75" width="18.34" height="18.5" stroke="black" stroke-width="1.5"/>
<rect x="361.284" y="53.372" width="0.744" height="17.256" fill="#767676" stroke="black" stroke-width="0.744"/>
<rect x="352.976" y="64.5" width="17.856" height="1.5" fill="black"/>
<path d="M411.357 58.5L421.277 58.5V60H411.357V58.5Z" fill="black"/>
<rect x="402.734" y="52.75" width="18.34" height="18.5" stroke="black" stroke-width="1.5"/>
<rect x="411.284" y="53.372" width="0.744" height="17.256" fill="#767676" stroke="black" stroke-width="0.744"/>
<rect x="402.976" y="65.5" width="17.856" height="1.5" fill="black"/>
<rect x="415.945" y="66.372" width="0.744" height="5.256" fill="#767676" stroke="black" stroke-width="0.744"/>
<rect x="462.279" y="58.375" width="8.178" height="0.75" fill="#767676" stroke="black" stroke-width="0.75"/>
<rect x="452.733" y="52.75" width="18.34" height="18.5" stroke="black" stroke-width="1.5"/>
<rect x="461.283" y="53.372" width="0.744" height="17.256" fill="#767676" stroke="black" stroke-width="0.744"/>
<rect x="466.046" y="53.372" width="0.744" height="5.256" fill="#767676" stroke="black" stroke-width="0.744"/>
<rect x="453.351" y="64.875" width="17.106" height="0.75" fill="#767676" stroke="black" stroke-width="0.75"/>
<rect x="0.951364" y="0.49534" width="14.8538" height="14.4004" transform="matrix(0.95708 -0.289824 0.311405 0.950277 299.471 7.19098)" stroke="black" stroke-width="1.5"/>
<rect width="19.1871" height="1.6439" transform="matrix(0.95708 -0.289824 0.311405 0.950277 300.663 6.5625)" fill="black"/>
<path d="M319.572 15.987L302.831 15.5234L305.174 20.6213L319.572 15.987Z" fill="black"/>
<path fill-rule="evenodd" clip-rule="evenodd" d="M263.052 3.02698L268.557 8.57682L259.575 17.6313L260.581 18.6448L269.563 9.59031L270.568 8.57682L269.563 7.56333L264.057 2.01349L263.052 1L262.046 2.01349L253.064 11.068L254.07 12.0815L263.052 3.02698Z" fill="black"/>
<path d="M259.943 18.2271L253.479 11.7109L252.273 12.9257L251.694 19.0231L252.689 20.0256L258.737 19.4418L259.943 18.2271Z" stroke="black" stroke-width="1.5"/>
<rect width="2.22656" height="2.08814" transform="matrix(0.709685 0.704519 -0.698797 0.71532 251.229 18.8203)" fill="black"/>
<path fill-rule="evenodd" clip-rule="evenodd" d="M207.524 14V6H209.012V14H207.524Z" fill="black"/>
<path fill-rule="evenodd" clip-rule="evenodd" d="M204.351 9.45312L212.287 9.45312L212.287 10.9531L204.351 10.9531L204.351 9.45312Z" fill="black"/>
<path fill-rule="evenodd" clip-rule="evenodd" d="M208.319 17.3125C212.325 17.3125 215.573 14.0386 215.573 10C215.573 5.96142 212.325 2.6875 208.319 2.6875C204.312 2.6875 201.065 5.96142 201.065 10C201.065 14.0386 204.312 17.3125 208.319 17.3125ZM208.319 19C213.249 19 217.247 14.9706 217.247 10C217.247 5.02944 213.249 1 208.319 1C203.388 1 199.391 5.02944 199.391 10C199.391 14.9706 203.388 19 208.319 19Z" fill="black"/>
<path fill-rule="evenodd" clip-rule="evenodd" d="M219.174 22.0012L212.934 15.7109L213.986 14.6503L220.226 20.9405L219.174 22.0012Z" fill="black"/>
<path d="M151.769 22.4844L160.697 7.48438L169.625 22.4844H151.769Z" stroke="black" stroke-width="1.5"/>
<path d="M160.402 8.53125H160.89V21.5312H160.402V8.53125Z" fill="#767676" stroke="black"/>
<path d="M152.269 3.53125H169.125V4.03125H152.269V3.53125Z" fill="#767676" stroke="black"/>
<path d="M167.706 6.65655L170.512 3.82812L167.706 0.999698" stroke="black" stroke-width="1.5"/>
<path d="M153.59 0.999697L150.784 3.82813L153.59 6.65655" stroke="black" stroke-width="1.5"/>
<path d="M114.03 2.44433C116.327 3.15869 118.289 4.68972 119.55 6.75273C120.812 8.81574 121.287 11.2703 120.888 13.6602C120.489 16.05 119.242 18.2124 117.38 19.7453C115.518 21.2782 113.167 22.0774 110.765 21.9941C108.362 21.9108 106.071 20.9509 104.318 19.2927C102.565 17.6345 101.469 15.3909 101.233 12.9791C100.998 10.5673 101.639 8.15139 103.038 6.18057C104.437 4.20975 106.499 2.81813 108.839 2.26447L109.201 3.8197C107.235 4.28491 105.503 5.45422 104.327 7.11021C103.151 8.7662 102.613 10.7962 102.81 12.8227C103.008 14.8492 103.929 16.7344 105.402 18.1277C106.875 19.521 108.8 20.3276 110.819 20.3976C112.838 20.4675 114.813 19.7961 116.378 18.508C117.942 17.22 118.99 15.403 119.325 13.395C119.661 11.3869 119.261 9.32442 118.201 7.59097C117.141 5.85751 115.493 4.57107 113.563 3.97082L114.03 2.44433Z" fill="black"/>
<path fill-rule="evenodd" clip-rule="evenodd" d="M114.889 3.70965L116.142 8.92255L114.695 9.2723L113.091 2.60162L119.712 1.00119L120.063 2.45897L114.889 3.70965Z" fill="black"/>
<path d="M58.5282 3H56.5442H52.5762V9" stroke="black" stroke-width="1.5"/>
<path d="M64.4806 21L70.4326 21L70.4326 17L70.4326 15" stroke="black" stroke-width="1.5"/>
<path d="M70.4326 9L70.4326 3L64.4806 3" stroke="black" stroke-width="1.5"/>
<path d="M52.5762 15L52.5762 21L58.5282 21" stroke="black" stroke-width="1.5"/>
<path d="M53.0723 3.5L60.5123 11" stroke="black" stroke-width="1.5"/>
<path d="M69.9371 3.5L62.4971 11" stroke="black" stroke-width="1.5"/>
<path d="M53.0723 20.5L60.5123 13" stroke="black" stroke-width="1.5"/>
<path d="M69.9371 20.5L62.4971 13" stroke="black" stroke-width="1.5"/>
<rect x="2.7334" y="2.75" width="18.34" height="18.5" stroke="black" stroke-width="1.5"/>
<rect x="11.2831" y="3.372" width="0.744" height="17.256" fill="#767676" stroke="black" stroke-width="0.744"/>
<rect x="3.35059" y="11.375" width="7.186" height="0.75" fill="#767676" stroke="black" stroke-width="0.75"/>
<rect x="1.96484" y="111.578" width="19.8836" height="0.75" fill="white" stroke="black" stroke-width="0.75"/>
<path d="M9.52584 104L1.58984 111.875L9.28536 120" stroke="black" stroke-width="1.5"/>
<path d="M51.585 120.484L61.3965 104L71.208 120.484H51.585Z" stroke="black" stroke-width="1.5"/>
<path d="M61.2744 105.344H61.4097V119.229H61.2744V105.344Z" fill="black" stroke="black" stroke-width="1.5"/>
<path fill-rule="evenodd" clip-rule="evenodd" d="M110.112 102H111.6L111.6 122C111.6 122 111.6 122 110.856 122C110.112 122 110.112 122 110.112 122L110.112 102Z" fill="black"/>
<path fill-rule="evenodd" clip-rule="evenodd" d="M101.186 111H121.025L121.023 112.5C121.023 112.5 121.023 112.5 111.104 112.5C101.185 112.5 101.185 112.5 101.185 112.5L101.186 111Z" fill="black"/>
<path fill-rule="evenodd" clip-rule="evenodd" d="M150.786 111H170.624L170.623 112.5C170.623 112.5 170.623 112.5 160.703 112.5C150.784 112.5 150.784 112.5 150.784 112.5L150.786 111Z" fill="black"/>
</svg>
