<svg width="18" height="18" viewBox="0 0 18 18" fill="none" xmlns="http://www.w3.org/2000/svg">
<path fill-rule="evenodd" clip-rule="evenodd" d="M9 0.5C4.02917 0.5 0 3.64949 0 7.53575C0 9.95241 1.55869 12.0837 3.93013 13.3509L2.93266 17.0419C2.91517 17.1145 2.91989 17.1907 2.94619 17.2606C2.97249 17.3304 3.01916 17.3906 3.08007 17.4334C3.14099 17.4761 3.21331 17.4993 3.28757 17.5C3.36183 17.5007 3.43456 17.4788 3.49624 17.4372L7.87362 14.5122C8.24306 14.5486 8.61799 14.5691 9 14.5691C13.9708 14.5715 18 11.422 18 7.53575C18 3.64949 13.9708 0.5 9 0.5Z" fill="#371F1F"/>
</svg>
