<svg width="30" height="30" viewBox="0 0 30 30" fill="none" xmlns="http://www.w3.org/2000/svg">
<path d="M8.7002 9.29126H10.3986V20.7711H8.7002L8.7002 9.29126Z" fill="black"/>
<path fill-rule="evenodd" clip-rule="evenodd" d="M6.9999 4.30005L9.4999 5.73504L11.9999 4.30005L26.5997 4.30005L28.2997 4.30005V6.00005L28.2997 21.5199H26.5997L26.5997 6.00005L12.4531 6.00005L10.3462 7.20942L9.4999 7.69518L8.65361 7.20942L6.54668 6.00005L3.39971 6.00005L3.39971 24H6.54669L8.65362 22.7907L9.4999 22.3049L10.3462 22.7907L12.4531 24H22.8046V24.0155H28.2997V25.7H26.5997H11.9999L9.4999 24.2651L6.9999 25.7H3.39971H1.69971L1.69971 24L1.69971 6.00005L1.69971 4.30005L3.39971 4.30005L6.9999 4.30005Z" fill="#C4C4C4"/>
<path fill-rule="evenodd" clip-rule="evenodd" d="M9.4999 7.69518L6.54668 6.00005L3.39971 6.00005L3.39971 24H6.54669L9.4999 22.3049L12.4531 24H22.8046V24.0155H28.2997V25.7H11.9999L9.4999 24.2651L6.9999 25.7H1.69971V4.30005H6.9999L9.4999 5.73504L11.9999 4.30005H28.2997L28.2997 21.5199H26.5997L26.5997 6.00005L12.4531 6.00005L9.4999 7.69518Z" fill="black"/>
</svg>
