<svg width="30" height="30" viewBox="0 0 30 30" fill="none" xmlns="http://www.w3.org/2000/svg">
<path fill-rule="evenodd" clip-rule="evenodd" d="M14.9999 3.35002C8.56579 3.35002 3.3499 8.56591 3.3499 15C3.3499 21.4341 8.56579 26.65 14.9999 26.65C17.0098 26.65 18.8985 26.1417 20.5469 25.2474L21.3576 26.7416C19.4665 27.7677 17.2999 28.35 14.9999 28.35C7.6269 28.35 1.6499 22.373 1.6499 15C1.6499 7.62702 7.6269 1.65002 14.9999 1.65002C22.3729 1.65002 28.3499 7.62702 28.3499 15C28.3499 19.0748 26.5233 22.7238 23.6473 25.1712C23.5217 25.278 23.3941 25.3826 23.2646 25.4848L22.2114 24.1504C22.3245 24.0611 22.4359 23.9698 22.5455 23.8765C25.0582 21.7383 26.6499 18.5555 26.6499 15C26.6499 8.56591 21.434 3.35002 14.9999 3.35002Z" fill="black"/>
<path fill-rule="evenodd" clip-rule="evenodd" d="M10.8999 10H12.5999V14.15L17.3999 14.15V10H19.0999V20H17.3999V15.85L12.5999 15.85V20H10.8999V10Z" fill="black"/>
</svg>
