<svg width="24" height="24" viewBox="0 0 24 24" fill="none" xmlns="http://www.w3.org/2000/svg">
<rect width="24" height="24" fill="white"/>
<path fill-rule="evenodd" clip-rule="evenodd" d="M20.5496 12.2026C20.5496 11.571 20.4931 10.9638 20.3882 10.3809H12.0352V13.8257H16.8085C16.6029 14.939 15.9781 15.8822 15.0386 16.5138V18.7483H17.9048C19.582 17.1976 20.5496 14.9147 20.5496 12.2026Z" fill="#457BBF"/>
<path fill-rule="evenodd" clip-rule="evenodd" d="M12.037 20.9055C14.4318 20.9055 16.4395 20.108 17.9068 18.748L15.0406 16.5135C14.2463 17.0478 13.2303 17.3635 12.0371 17.3635C9.72723 17.3635 7.77191 15.7968 7.07441 13.6919H4.11133V15.9993C5.57058 18.9099 8.56999 20.9055 12.037 20.9055Z" fill="#46A45D"/>
<path fill-rule="evenodd" clip-rule="evenodd" d="M7.07442 13.692C6.89713 13.1574 6.79629 12.5869 6.79629 11.9998C6.79629 11.4129 6.897 10.8422 7.07442 10.3077V8.00049H4.11134C3.51062 9.20282 3.16797 10.5629 3.16797 11.9999C3.16797 13.4371 3.51062 14.7971 4.11121 15.9992L7.07442 13.692Z" fill="#EEAF36"/>
<path fill-rule="evenodd" clip-rule="evenodd" d="M12.0352 6.6362C13.3375 6.6362 14.5065 7.08553 15.4256 7.96807L17.9694 5.4138C16.4337 3.97665 14.4259 3.09424 12.0352 3.09424C8.56816 3.09424 5.56876 5.08995 4.10938 8.00033L7.07246 10.3077C7.76996 8.20277 9.72528 6.6362 12.0352 6.6362Z" fill="#DC4941"/>
</svg>
