<svg width="60" height="16" viewBox="0 0 60 16" fill="none" xmlns="http://www.w3.org/2000/svg">
<rect x="0.5" y="0.5" width="59" height="15" fill="black"/>
<g clip-path="url(#clip0_20353_86342)">
<path d="M14.7503 7.99268H11.567V5.7207H10.6953V11.1127H11.567V8.76343H14.7503V11.1127H15.622V5.7207H14.7503V7.99268Z" fill="white"/>
<path d="M18.6793 8.75521H21.2741V8.0009H18.6793V6.49063H21.9514V5.7207H17.8076V11.1127H22.0706V10.3427H18.6793V8.75521Z" fill="white"/>
<path d="M4 6.49063H6.02748V11.1127H6.89918V6.49063H8.9275V5.7207H4V6.49063Z" fill="white"/>
<path d="M25.8135 5.53906H28.2798C28.6416 5.53906 28.9655 5.58836 29.2504 5.68615C29.5353 5.78393 29.7763 5.92197 29.975 6.1011C30.1737 6.28023 30.3258 6.49387 30.4324 6.74202C30.5389 6.99017 30.5922 7.26626 30.5922 7.56782V7.58508C30.5922 7.92608 30.5288 8.22518 30.4028 8.48154C30.276 8.73873 30.1018 8.95402 29.8811 9.12657C29.6596 9.29995 29.4009 9.42978 29.105 9.51606C28.809 9.60233 28.4911 9.64588 28.1521 9.64588H27.1426V11.4059H25.8143V5.53906H25.8135ZM28.1935 8.49798C28.5266 8.49798 28.7854 8.41252 28.9697 8.24243C29.154 8.07234 29.2453 7.86117 29.2453 7.60973V7.59329C29.2453 7.30324 29.1489 7.0822 28.9562 6.93101C28.7634 6.77982 28.5004 6.70504 28.1673 6.70504H27.1409V8.4988H28.1935V8.49798Z" fill="white"/>
<path d="M32.0049 5.53906H33.3331V10.2408H36.3431V11.4059H32.0049V5.53906Z" fill="white"/>
<path d="M40.2932 11.4988C39.4824 11.4988 38.8441 11.2811 38.379 10.8447C37.9132 10.4092 37.6807 9.75845 37.6807 8.89157V5.53906H39.0089V8.85788C39.0089 9.33857 39.1239 9.70011 39.3539 9.94334C39.5839 10.1866 39.9026 10.3082 40.311 10.3082C40.7193 10.3082 41.0381 10.1907 41.2681 9.95648C41.498 9.7223 41.613 9.36979 41.613 8.90061V5.53906H42.9413V8.84966C42.9413 9.29666 42.8796 9.68532 42.7561 10.0148C42.6327 10.3443 42.456 10.6196 42.226 10.8406C41.996 11.0617 41.717 11.226 41.3898 11.3353C41.0618 11.4446 40.6965 11.4988 40.2941 11.4988H40.2932Z" fill="white"/>
<path d="M46.8813 11.4907C46.4213 11.4907 45.9699 11.4135 45.5277 11.2598C45.0846 11.1062 44.6822 10.8703 44.3203 10.5515L45.1049 9.6378C45.3806 9.85555 45.6638 10.0289 45.9546 10.1571C46.2446 10.2853 46.5625 10.3502 46.9075 10.3502C47.1831 10.3502 47.3979 10.3017 47.5501 10.2039C47.7023 10.1062 47.7784 9.97059 47.7784 9.79721V9.78078C47.7784 9.69697 47.7623 9.62301 47.731 9.55892C47.6989 9.49483 47.6389 9.43485 47.5492 9.37897C47.4596 9.3231 47.3362 9.26722 47.1772 9.21135C47.0183 9.15547 46.8128 9.09713 46.5592 9.0355C46.2539 8.96319 45.9775 8.88185 45.7289 8.79228C45.4812 8.70272 45.2706 8.59261 45.0973 8.46114C44.924 8.32967 44.7904 8.16615 44.6949 7.97059C44.6002 7.77503 44.552 7.53181 44.552 7.24175V7.22531C44.552 6.95744 44.6036 6.71586 44.7059 6.50058C44.809 6.2853 44.9527 6.09959 45.1387 5.94347C45.3248 5.78735 45.5463 5.66656 45.8041 5.58275C46.062 5.49894 46.3461 5.45703 46.6564 5.45703C47.0994 5.45703 47.5061 5.52112 47.8764 5.65013C48.2476 5.77831 48.5875 5.96319 48.8986 6.20313L48.2087 7.17519C47.9382 6.99606 47.6744 6.85555 47.4156 6.75202C47.1569 6.64849 46.8982 6.59672 46.6395 6.59672C46.3808 6.59672 46.1863 6.64602 46.0569 6.7438C45.9276 6.84158 45.8625 6.96319 45.8625 7.10863V7.12589C45.8625 7.22121 45.8811 7.30337 45.9191 7.37322C45.9572 7.44306 46.024 7.50633 46.122 7.56139C46.2201 7.61726 46.3537 7.67067 46.5245 7.72079C46.6944 7.77092 46.9092 7.82926 47.1688 7.89664C47.474 7.9747 47.7462 8.06262 47.9863 8.1604C48.2256 8.25818 48.4268 8.37568 48.5917 8.51208C48.7557 8.64931 48.88 8.80954 48.9637 8.99442C49.0474 9.1793 49.0889 9.39951 49.0889 9.6567V9.67396C49.0889 9.96484 49.0347 10.2228 48.9257 10.4488C48.8166 10.6748 48.6661 10.8654 48.4717 11.0191C48.2772 11.1727 48.0455 11.2902 47.7767 11.3708C47.507 11.4513 47.2085 11.4924 46.8813 11.4924V11.4907Z" fill="white"/>
<path d="M53.6388 3.5H52.8525V8.85497H53.6388V3.5Z" fill="white"/>
<path d="M52.3107 5.79492H50.4912V6.5591H52.3107V5.79492Z" fill="white"/>
<path d="M56.0002 5.79492H54.1807V6.5591H56.0002V5.79492Z" fill="white"/>
</g>
<rect x="0.5" y="0.5" width="59" height="15" stroke="black"/>
<defs>
<clipPath id="clip0_20353_86342">
<rect width="52" height="8" fill="white" transform="translate(4 3.5)"/>
</clipPath>
</defs>
</svg>
