<svg width="18" height="18" viewBox="0 0 18 18" fill="none" xmlns="http://www.w3.org/2000/svg">
<path fill-rule="evenodd" clip-rule="evenodd" d="M2 7.35355C2 5.26286 2 2 2 2V1H3H7.5H12H13V2V8.5V9.4C13 9.4 12.3905 9.4 12 9.4C9.26633 9.4 5.34129 9.4 5.34129 9.4L2 11.7C2 11.7 2 9.88706 2 7.35355ZM3.2 7.35355V9.4L5 8.2H11.8V2.2H3.2V7.35355Z" fill="white"/>
<path fill-rule="evenodd" clip-rule="evenodd" d="M6 9L6 13.3008V14.2008H7.04545H13.0068L16.5 16.5008V12.1543V6.80078V5.80078H15.4545L11.9999 5.80078V7.00078L15.2455 7.00078V12.1543V14.2008L13.3636 13.0008H7.25455V9H6Z" fill="white"/>
</svg>
