<svg width="30" height="30" viewBox="0 0 30 30" fill="none" xmlns="http://www.w3.org/2000/svg">
<path fill-rule="evenodd" clip-rule="evenodd" d="M4.1 20.1535H25.9V23.3385H27V20.1535V19.2002H25.9H4.1H3V20.1535V23.3385H4.1V20.1535ZM27 24.7469H25.9H4.1H3V25.7002H4.1H25.9H27V24.7469Z" fill="black" stroke="black" stroke-width="0.2"/>
<path fill-rule="evenodd" clip-rule="evenodd" d="M22.9 15.3292H7.1V18.9677H22.9V15.3292ZM6 14.3984V19.8984H24V14.3984H6Z" fill="black" stroke="black" stroke-width="0.2"/>
<path fill-rule="evenodd" clip-rule="evenodd" d="M16.5844 6.3197L15.0003 3L13.4163 6.3197L9.76953 6.80041L12.4372 9.3328L11.7675 12.9496L15.0003 11.195L18.2332 12.9496L17.5634 9.3328L20.2312 6.80041L16.5844 6.3197ZM17.8019 7.58971L15.8488 7.33224L15.0003 5.55423L14.1519 7.33224L12.1987 7.58971L13.6276 8.94604L13.2689 10.8832L15.0003 9.94343L16.7318 10.8832L16.3731 8.94604L17.8019 7.58971Z" fill="black" stroke="black" stroke-width="0.1"/>
</svg>
