<svg width="30" height="30" viewBox="0 0 30 30" fill="none" xmlns="http://www.w3.org/2000/svg">
<path d="M9.375 8.75H10.625V11.875H9.375L9.375 8.75Z" fill="black"/>
<path d="M9.375 13.125H10.625V16.875H9.375L9.375 13.125Z" fill="black"/>
<path d="M9.375 18.125H10.625V21.25H9.375L9.375 18.125Z" fill="black"/>
<path fill-rule="evenodd" clip-rule="evenodd" d="M7.48139 4.375L9.83101 5.79993L12.1806 4.375H26.4208L27.5 4.375V5.51524L27.5 22.5H26.4208V5.51524L12.4684 5.51524L10.3683 6.78884L9.83101 7.11466L9.29376 6.78884L7.19367 5.51524L3.57922 5.51524L3.57922 24.4848H7.19367L9.29376 23.2112L9.83101 22.8853L10.3683 23.2112L12.4684 24.4848L22.8593 24.4848L27.5 24.4848V25.625L26.4208 25.625H12.1806L9.83101 24.2001L7.48139 25.625H3.57922H2.5V24.4848L2.5 5.51524L2.5 4.375H3.57922H7.48139Z" fill="#C4C4C4"/>
<path fill-rule="evenodd" clip-rule="evenodd" d="M9.83101 7.11466L7.19367 5.51524L3.57922 5.51524L3.57922 24.4848H7.19367L9.83101 22.8853L12.4684 24.4848L27.5 24.4848V25.625L12.1806 25.625L9.83101 24.2001L7.48139 25.625H2.5L2.5 4.375H7.48139L9.83101 5.79993L12.1806 4.375L27.5 4.375L27.5 22.5H26.4208V5.51524L12.4684 5.51524L9.83101 7.11466Z" fill="black"/>
<path fill-rule="evenodd" clip-rule="evenodd" d="M16.9648 12.9655C17.3163 12.614 17.3163 12.0442 16.9648 11.6927C16.6134 11.3412 16.0435 11.3412 15.692 11.6927C15.3406 12.0442 15.3406 12.614 15.692 12.9655C16.0435 13.317 16.6134 13.317 16.9648 12.9655ZM17.7426 13.7433C18.5237 12.9623 18.5237 11.6959 17.7426 10.9149C16.9616 10.1338 15.6953 10.1338 14.9142 10.9149C14.1332 11.6959 14.1332 12.9623 14.9142 13.7433C15.6953 14.5244 16.9616 14.5244 17.7426 13.7433Z" fill="black"/>
<path fill-rule="evenodd" clip-rule="evenodd" d="M20.6409 17.9131C20.9924 18.2645 21.5623 18.2645 21.9137 17.9131C22.2652 17.5616 22.2652 16.9917 21.9137 16.6403C21.5623 16.2888 20.9924 16.2888 20.6409 16.6403C20.2895 16.9917 20.2895 17.5616 20.6409 17.9131ZM19.8631 18.6909C20.6442 19.4719 21.9105 19.4719 22.6916 18.6909C23.4726 17.9098 23.4726 16.6435 22.6916 15.8625C21.9105 15.0814 20.6442 15.0814 19.8631 15.8625C19.0821 16.6435 19.0821 17.9098 19.8631 18.6909Z" fill="black"/>
<path fill-rule="evenodd" clip-rule="evenodd" d="M14.8789 17.9492L21.95 10.8782L22.7278 11.656L15.6567 18.727L14.8789 17.9492Z" fill="black"/>
</svg>
