<svg width="32" height="33" viewBox="0 0 32 33" fill="none" xmlns="http://www.w3.org/2000/svg">
<path fill-rule="evenodd" clip-rule="evenodd" d="M3.55469 13.7866C3.55469 10.1248 3.55469 4.40993 3.55469 4.40993V2.65845H5.33247H13.3325H21.3325H23.1102V4.40993V15.7946V17.3709C23.1102 17.3709 22.0267 17.3709 21.3325 17.3709C16.4726 17.3709 9.49476 17.3709 9.49476 17.3709L3.55469 21.3993C3.55469 21.3993 3.55469 18.224 3.55469 13.7866ZM5.68802 13.7866V17.3709L8.88802 15.2691H20.9769V4.76023H5.68802V13.7866Z" fill="black"/>
<path fill-rule="evenodd" clip-rule="evenodd" d="M10.666 19.6259V24.203V25.7794H12.5246H23.1226L29.3327 29.8078V22.1951V12.8184V11.0669H27.4741L21.3325 11.0669V13.1687L27.1024 13.1687V22.1951V25.7794L23.7569 23.6776H12.8963V19.6259H10.666Z" fill="black"/>
</svg>
