<svg width="32" height="32" viewBox="0 0 32 32" fill="none" xmlns="http://www.w3.org/2000/svg">
<path d="M24.7267 22.5717L25.8176 28.05L20.9086 25.9053C20.6594 26.0724 20.8255 25.9053 20.5764 26.0724C18.9985 26.908 17.8685 26.9985 15.9585 26.9985C9.39792 26.9985 4 21.4836 4 14.8825C4 8.28131 9.48097 2.84998 16.0415 2.84998C22.6021 2.84998 28 8.19775 28 14.8825C28 16.7134 27.5931 18.4534 26.8738 20.0074" stroke="black" stroke-width="2" stroke-miterlimit="10"/>
<path d="M12.9788 13.9288H10.9648V15.9578H12.9788V13.9288Z" fill="black"/>
<path d="M17.0071 13.9288H14.9932V15.9578H17.0071V13.9288Z" fill="black"/>
<path d="M21.0345 13.9288H19.0205V15.9578H21.0345V13.9288Z" fill="black"/>
</svg>
