<svg width="50" height="50" viewBox="0 0 50 50" fill="none" xmlns="http://www.w3.org/2000/svg">
<path d="M47.4987 45.207H3.33203V48.3858H47.4987V45.207Z" fill="black"/>
<path d="M36.432 11.002C36.282 9.67254 35.7987 7.52242 34.282 5.53643C32.8987 3.73099 30.232 1.56445 25.4154 1.56445C20.5987 1.56445 17.932 3.73099 16.5487 5.53643C15.032 7.52242 14.5487 9.67254 14.3987 11.002H3.33203V42.548H5.9987V13.6281H14.332V17.6493H16.9987V13.6281H33.832V17.6493H36.4987V13.6281H44.832V42.5645H47.4987V11.002H36.432ZM33.7487 11.002H17.082C17.2654 9.78743 17.732 8.34308 18.682 7.11209C20.1654 5.17534 22.432 4.19055 25.4154 4.19055C28.3987 4.19055 30.6654 5.17534 32.1487 7.11209C33.0987 8.34308 33.5654 9.78743 33.7487 11.002Z" fill="black"/>
</svg>
