<svg width="50" height="50" viewBox="0 0 50 50" fill="none" xmlns="http://www.w3.org/2000/svg">
<path d="M31.4109 32.2718V15.6766H41.8548L45.2665 22.2673V32.2718V32.4718H45.4665H47.1852H47.3852V32.2718V21.8001V21.7514L47.3628 21.7082L43.1998 13.6659L43.1438 13.5578H43.0221H31.2109H29.4922H29.2922V13.7578V15.4766V32.2718V32.4718H29.4922H31.2109H31.4109V32.2718ZM39.8438 36.3036H39.6438V36.5036V38.2V38.4H39.8438H41.5625H45.4665H47.1852H47.3852V38.2V36.5036V36.3036H47.1852H39.8438Z" fill="black" stroke="black" stroke-width="0.4"/>
<path d="M4.71875 32.4782H4.91875V32.2782V9.24883H29.3901V32.2782V32.4782H29.5901H31.3088H31.5088V32.2782V9.04883V7.33008V7.13008H31.3088H29.5901H4.71875H3H2.8V7.33008V9.04883V32.2782V32.4782H3H4.71875ZM9.09521 36.5507L9.14562 36.3098H8.89945H3H2.8V36.5098V38.2124V38.4124H3H4.71875H8.83015H9.05663L9.02861 38.1877C9.00335 37.9851 8.99033 37.7787 8.99033 37.5691C8.99033 37.2198 9.02649 36.8792 9.09521 36.5507ZM18.9753 36.3098H18.7292L18.7796 36.5507C18.8483 36.8792 18.8844 37.2198 18.8844 37.5691C18.8844 37.7787 18.8714 37.9851 18.8462 38.1877L18.8181 38.4124H19.0446H29.5901H31.3088H31.5088V38.2124V36.5098V36.3098H31.3088H18.9753Z" fill="black" stroke="black" stroke-width="0.4"/>
<path d="M17.0941 37.5553C17.0941 39.3382 15.6488 40.7836 13.8658 40.7836C12.0829 40.7836 10.6375 39.3382 10.6375 37.5553C10.6375 35.7723 12.0829 34.327 13.8658 34.327C15.6488 34.327 17.0941 35.7723 17.0941 37.5553ZM13.8658 42.9023C16.8189 42.9023 19.2129 40.5084 19.2129 37.5553C19.2129 34.6022 16.8189 32.2082 13.8658 32.2082C10.9127 32.2082 8.51875 34.6022 8.51875 37.5553C8.51875 40.5084 10.9127 42.9023 13.8658 42.9023Z" fill="black" stroke="black" stroke-width="0.4"/>
<path d="M38.9691 37.5553C38.9691 39.3382 37.5238 40.7836 35.7408 40.7836C33.9579 40.7836 32.5125 39.3382 32.5125 37.5553C32.5125 35.7723 33.9579 34.327 35.7408 34.327C37.5238 34.327 38.9691 35.7723 38.9691 37.5553ZM35.7408 42.9023C38.6939 42.9023 41.0879 40.5084 41.0879 37.5553C41.0879 34.6022 38.6939 32.2082 35.7408 32.2082C32.7877 32.2082 30.3937 34.6022 30.3937 37.5553C30.3937 40.5084 32.7877 42.9023 35.7408 42.9023Z" fill="black" stroke="black" stroke-width="0.4"/>
<path fill-rule="evenodd" clip-rule="evenodd" d="M22.7496 18.7496L16.2362 25.2629L11.4866 20.5134L12.7503 19.2497L16.2362 22.7355L21.4859 17.4859L22.7496 18.7496Z" fill="black" stroke="black" stroke-width="0.5"/>
</svg>
