<svg width="50" height="50" viewBox="0 0 50 50" fill="none" xmlns="http://www.w3.org/2000/svg">
<path fill-rule="evenodd" clip-rule="evenodd" d="M20.8346 34.3763C28.3135 34.3763 34.3763 28.3135 34.3763 20.8346C34.3763 13.3558 28.3135 7.29297 20.8346 7.29297C13.3558 7.29297 7.29297 13.3558 7.29297 20.8346C7.29297 28.3135 13.3558 34.3763 20.8346 34.3763ZM20.8346 37.5013C30.0394 37.5013 37.5013 30.0394 37.5013 20.8346C37.5013 11.6299 30.0394 4.16797 20.8346 4.16797C11.6299 4.16797 4.16797 11.6299 4.16797 20.8346C4.16797 30.0394 11.6299 37.5013 20.8346 37.5013Z" fill="black"/>
<path fill-rule="evenodd" clip-rule="evenodd" d="M43.6317 45.8407L33.291 35.5L35.5007 33.2903L45.8414 43.631L43.6317 45.8407Z" fill="black"/>
</svg>
