<svg width="50" height="50" viewBox="0 0 50 50" fill="none" xmlns="http://www.w3.org/2000/svg">
<path d="M31.4109 32.2718V15.6766H41.8548L45.2665 22.2673V32.2718V32.4718H45.4665H47.1852H47.3852V32.2718V21.8001V21.7514L47.3628 21.7082L43.1998 13.6659L43.1438 13.5578H43.0221H31.2109H29.4922H29.2922V13.7578V15.4766V32.2718V32.4718H29.4922H31.2109H31.4109V32.2718ZM39.8438 36.3036H39.6438V36.5036V38.2V38.4H39.8438H41.5625H45.4665H47.1852H47.3852V38.2V36.5036V36.3036H47.1852H39.8438Z" fill="black" stroke="black" stroke-width="0.4"/>
<path d="M4.64844 32.4782H4.84844V32.2782V9.24883H29.3198V32.2782V32.4782H29.5198H31.2385H31.4385V32.2782V9.04883V7.33008V7.13008H31.2385H29.5198H4.64844H2.92969H2.72969V7.33008V9.04883V32.2782V32.4782H2.92969H4.64844ZM9.0249 36.5507L9.07531 36.3098H8.82914H2.92969H2.72969V36.5098V38.2124V38.4124H2.92969H4.64844H8.75983H8.98632L8.9583 38.1877C8.93304 37.9851 8.92002 37.7787 8.92002 37.5691C8.92002 37.2198 8.95618 36.8792 9.0249 36.5507ZM18.905 36.3098H18.6588L18.7093 36.5507C18.778 36.8792 18.8141 37.2198 18.8141 37.5691C18.8141 37.7787 18.8011 37.9851 18.7759 38.1877L18.7478 38.4124H18.9743H29.5198H31.2385H31.4385V38.2124V36.5098V36.3098H31.2385H18.905Z" fill="black" stroke="black" stroke-width="0.4"/>
<path d="M17.0941 37.5553C17.0941 39.3382 15.6488 40.7836 13.8658 40.7836C12.0829 40.7836 10.6375 39.3382 10.6375 37.5553C10.6375 35.7723 12.0829 34.327 13.8658 34.327C15.6488 34.327 17.0941 35.7723 17.0941 37.5553ZM13.8658 42.9023C16.8189 42.9023 19.2129 40.5084 19.2129 37.5553C19.2129 34.6022 16.8189 32.2082 13.8658 32.2082C10.9127 32.2082 8.51875 34.6022 8.51875 37.5553C8.51875 40.5084 10.9127 42.9023 13.8658 42.9023Z" fill="black" stroke="black" stroke-width="0.4"/>
<path d="M38.9691 37.5553C38.9691 39.3382 37.5238 40.7836 35.7408 40.7836C33.9579 40.7836 32.5125 39.3382 32.5125 37.5553C32.5125 35.7723 33.9579 34.327 35.7408 34.327C37.5238 34.327 38.9691 35.7723 38.9691 37.5553ZM35.7408 42.9023C38.6939 42.9023 41.0879 40.5084 41.0879 37.5553C41.0879 34.6022 38.6939 32.2082 35.7408 32.2082C32.7877 32.2082 30.3937 34.6022 30.3937 37.5553C30.3937 40.5084 32.7877 42.9023 35.7408 42.9023Z" fill="black" stroke="black" stroke-width="0.4"/>
</svg>
